<?xml version="1.0" encoding="UTF-8"?>
<svg xmlns="http://www.w3.org/2000/svg" version="1.1" xmlns:xlink="http://www.w3.org/1999/xlink" viewBox="0 0 16 16">
  <defs>
    <style>
      .cls-1 {
        stroke: #717171;
        stroke-miterlimit: 1;
        stroke-width: .59px;
      }

      .cls-1, .cls-2 {
        fill: none;
      }

      .cls-3 {
        fill: #fff;
      }

      .cls-4 {
        isolation: isolate;
      }

      .cls-2 {
        stroke: #fff;
        stroke-miterlimit: 10;
        stroke-width: 3px;
      }

      .cls-5 {
        fill: url(#linear-gradient-2);
        opacity: .51;
      }

      .cls-5, .cls-6, .cls-7 {
        mix-blend-mode: screen;
      }

      .cls-6 {
        fill: url(#linear-gradient-3);
        opacity: .7;
      }

      .cls-7 {
        opacity: .49;
      }

      .cls-8 {
        opacity: .58;
      }

      .cls-9 {
        fill: url(#linear-gradient);
      }
    </style>
    <linearGradient id="linear-gradient" x1="8" y1="14" x2="8" y2="1" gradientUnits="userSpaceOnUse">
      <stop offset="0" stop-color="#656565"/>
      <stop offset=".62" stop-color="#1b1b1b"/>
      <stop offset=".63" stop-color="#545454"/>
      <stop offset=".98" stop-color="#3e3e3e"/>
    </linearGradient>
    <linearGradient id="linear-gradient-2" x1="8" y1="14" x2="8" y2="1" gradientUnits="userSpaceOnUse">
      <stop offset="0" stop-color="#0e0e0e"/>
      <stop offset=".5" stop-color="#000"/>
      <stop offset=".52" stop-color="#010101"/>
      <stop offset=".73" stop-color="#0b0b0b"/>
      <stop offset="1" stop-color="#0e0e0e"/>
    </linearGradient>
    <linearGradient id="linear-gradient-3" x1="8" y1="1" x2="8" y2="14" gradientUnits="userSpaceOnUse">
      <stop offset="0" stop-color="#fff" stop-opacity=".77"/>
      <stop offset=".2" stop-color="#fff" stop-opacity=".65"/>
      <stop offset=".34" stop-color="#fff" stop-opacity=".65"/>
      <stop offset=".35" stop-color="#fff" stop-opacity=".65"/>
      <stop offset=".37" stop-color="#fff" stop-opacity=".62"/>
      <stop offset=".4" stop-color="#fff" stop-opacity=".53"/>
      <stop offset=".43" stop-color="#fff" stop-opacity=".39"/>
      <stop offset=".47" stop-color="#fff" stop-opacity=".2"/>
      <stop offset=".51" stop-color="#fff" stop-opacity="0"/>
      <stop offset=".59" stop-color="#7d7d7d" stop-opacity=".09"/>
      <stop offset="1" stop-color="#1b1b1b" stop-opacity=".16"/>
    </linearGradient>
  </defs>
  <!-- Generator: Adobe Illustrator 28.7.1, SVG Export Plug-In . SVG Version: 1.2.0 Build 142)  -->
  <g class="cls-4">
    <g id="Layer_1">
      <g>
        <rect class="cls-9" x="1" y="1" width="14" height="13"/>
        <rect class="cls-5" x="1" y="1" width="14" height="13"/>
        <rect class="cls-6" x="1" y="1" width="14" height="13"/>
        <g class="cls-7">
          <path class="cls-3" d="M1.36,13.65V1.35v.36h13.29v-.36c0,3.58,0,7.16,0,10.73v1.56-.36H1.35s0,.73,0,.73h13.29s0-.36,0-.36V1.35s0-.36,0-.36H1.35s0,.36,0,.36v12.29c0,.4,0,.42,0,0Z"/>
        </g>
        <rect class="cls-1" x="1" y="1" width="14" height="13"/>
        <g class="cls-8">
          <path d="M15,13.94H3.19c-.68,0-1.37.04-2.04,0-.17,0-.11.06-.14,0-.07-.13,0-.51,0-.65V1.83c0-.19-.07-.54,0-.72.06-.16-.07-.01.1-.05.21-.04.47,0,.68,0h12.78c.44,0,.44-.14.44.28v12.66c0,.07,0,.07,0,0V1s0-.06,0-.06H1s0,.06,0,.06v13s0,.06,0,.06h14s0-.12,0-.12Z"/>
        </g>
      </g>
      <path class="cls-2" d="M11.17,12.12c.27,0,1.24-.05,1.98-.94.55-.67.69-1.48.77-1.98.12-.71.08-1.27.03-1.9-.07-.83-.11-1.35-.36-1.96-.35-.86-.9-1.37-1.21-1.6-.02-.01-.08-.06-.16-.12-.11-.08-.56-.38-1.27-.55-.49-.12-.88-.13-1.33-.14-.28,0-.6,0-.6,0-.17,0-.31,0-.45.02-.3.01-.52.03-.59.03-.71.05-.78.08-.84.16-.07.09-.08.25-.11.57-.03.36-.01.62,0,.87.01.32.02.64.03.96,0,.3.02.75.03,1.3"/>
      <path class="cls-2" d="M2.5,2v11.5"/>
      <path class="cls-2" d="M4.75,12h5.5"/>
    </g>
  </g>
</svg>