<?xml version="1.0" encoding="UTF-8"?>
<svg xmlns="http://www.w3.org/2000/svg" version="1.1" viewBox="0 0 1920 1080">
  <defs>
    <style>
      .cls-1 {
        fill: #0071bc;
      }

      .cls-2 {
        fill: #1b1464;
      }

      .cls-3 {
        fill: #fff;
        font-family: FreestyleScript-Regular, 'Freestyle Script';
        font-size: 976.17px;
      }
    </style>
  </defs>
  <!-- Generator: Adobe Illustrator 28.7.1, SVG Export Plug-In . SVG Version: 1.2.0 Build 142)  -->
  <g>
    <g id="Layer_2">
      <g>
        <path class="cls-1" d="M1274.95,1010.5c-264.18,0-579.81-58.5-823.72-152.67-131.28-50.69-235.04-108.33-308.41-171.33-77.84-66.84-117.31-136.71-117.31-207.66,0-35.98,10.25-73.18,30.46-110.57,19.81-36.65,49.34-73.84,87.77-110.53,73.47-70.16,180.3-138.92,308.95-198.85,254.76-118.67,569.83-192.39,822.27-192.39,121.48,0,224.98,17.27,307.64,51.33,38.07,15.69,72.62,35.3,102.67,58.3,28.39,21.72,53.68,47.17,75.18,75.62,39.9,52.82,67.91,116.34,85.63,194.2,15.1,66.33,22.44,142.51,22.44,232.88s-7.09,159.61-22.3,219.73c-17.16,67.8-44.76,121.89-84.38,165.36-43.64,47.88-101.68,82.95-177.45,107.2-82.76,26.5-183.98,39.38-309.43,39.38Z"/>
        <path class="cls-2" d="M1274.95-110c60.98,0,117.64,4.43,168.39,13.15,47.76,8.21,91.6,20.46,130.3,36.4,36.17,14.9,68.92,33.49,97.34,55.24,26.7,20.43,50.49,44.36,70.71,71.13,19.21,25.43,35.89,54.33,49.56,85.89,12.99,29.98,23.72,63.41,31.9,99.36,14.7,64.6,21.85,139.07,21.85,227.67s-7.06,156.58-21.58,213.96c-16.19,63.96-42.02,114.75-78.96,155.29-40.79,44.76-95.5,77.68-167.24,100.65-38.84,12.44-83.24,21.95-131.96,28.28-50.92,6.62-108.22,9.97-170.3,9.97-261.48,0-573.87-57.9-815.26-151.09-62.62-24.18-119.76-50.43-169.84-78.04-51.63-28.46-95.94-58.47-131.72-89.19-72.41-62.18-109.12-126.05-109.12-189.84,0-32.04,9.3-65.48,27.63-99.39,18.64-34.48,46.68-69.72,83.33-104.71,71.64-68.41,176.29-135.68,302.64-194.54,251.85-117.31,563.12-190.19,812.34-190.19M1274.95-157C753.04-157,2,149.95,2,478.84s751.04,555.16,1272.95,555.16,617.05-226.28,617.05-555.16-95.15-635.84-617.05-635.84h0Z"/>
      </g>
      <text class="cls-3" transform="translate(161.44 678.65) scale(2.11 1)"><tspan x="0" y="0">LD</tspan></text>
    </g>
  </g>
</svg>