<svg version="1.1" id="Layer_1" xmlns="http://www.w3.org/2000/svg" xmlns:xlink="http://www.w3.org/1999/xlink" x="0px" y="0px"
	 width="100%" viewBox="0 0 1920 1080" enable-background="new 0 0 1920 1080" xml:space="preserve">
<path fill="#FFFFFF" opacity="1.000000" stroke="none" 
	d="
M0.999997,561.000000 
	C1.000000,374.376099 1.000000,187.752197 1.000000,1.000000 
	C413.362701,1.000000 825.725403,1.000000 1238.348633,1.391124 
	C1206.566772,3.796835 1174.493164,5.412319 1142.488525,7.911694 
	C1081.727173,12.656794 1021.395264,20.989031 961.340210,31.249763 
	C877.374939,45.595669 794.331787,64.151657 712.286011,87.070137 
	C578.205017,124.523987 447.747589,171.557373 323.600220,235.085312 
	C267.548767,263.767639 213.537125,295.827637 163.163406,333.766022 
	C122.838089,364.136536 85.430771,397.574280 54.664455,437.889435 
	C31.840233,467.797546 13.889423,500.185913 5.471478,537.232056 
	C3.686417,545.087769 2.475459,553.073914 0.999997,561.000000 
z"/>
<path fill="#FFFFFF" opacity="1.000000" stroke="none" 
	d="
M1229.000000,1081.000000 
	C819.764954,1081.000000 410.529938,1081.000000 1.000000,1081.000000 
	C1.000000,918.970764 1.000000,756.941284 1.342386,594.684326 
	C4.474492,623.257202 14.027048,649.821106 28.465757,674.714600 
	C50.158508,712.114685 79.756462,742.563965 112.858269,769.831421 
	C158.562836,807.480347 209.178680,837.431030 261.918610,863.926208 
	C324.672241,895.452271 389.789612,921.314453 456.237061,943.875183 
	C562.493896,979.952515 671.043579,1007.335449 781.111084,1028.832275 
	C874.752808,1047.120850 969.048279,1061.238159 1064.087891,1069.587036 
	C1117.940308,1074.317627 1172.007202,1076.607422 1225.974854,1080.036865 
	C1226.999512,1080.102051 1227.992310,1080.667847 1229.000000,1081.000000 
z"/>
<path fill="#1C1665" opacity="1.000000" stroke="none" 
	d="
M1229.468628,1081.000000 
	C1227.992310,1080.667847 1226.999512,1080.102051 1225.974854,1080.036865 
	C1172.007202,1076.607422 1117.940308,1074.317627 1064.087891,1069.587036 
	C969.048279,1061.238159 874.752808,1047.120850 781.111084,1028.832275 
	C671.043579,1007.335449 562.493896,979.952515 456.237061,943.875183 
	C389.789612,921.314453 324.672241,895.452271 261.918610,863.926208 
	C209.178680,837.431030 158.562836,807.480347 112.858269,769.831421 
	C79.756462,742.563965 50.158508,712.114685 28.465757,674.714600 
	C14.027048,649.821106 4.474492,623.257202 1.342386,594.228394 
	C1.000000,583.312439 1.000000,572.624878 0.999997,561.468628 
	C2.475459,553.073914 3.686417,545.087769 5.471478,537.232056 
	C13.889423,500.185913 31.840233,467.797546 54.664455,437.889435 
	C85.430771,397.574280 122.838089,364.136536 163.163406,333.766022 
	C213.537125,295.827637 267.548767,263.767639 323.600220,235.085312 
	C447.747589,171.557373 578.205017,124.523987 712.286011,87.070137 
	C794.331787,64.151657 877.374939,45.595669 961.340210,31.249763 
	C1021.395264,20.989031 1081.727173,12.656794 1142.488525,7.911694 
	C1174.493164,5.412319 1206.566772,3.796835 1238.804688,1.391124 
	C1272.354248,1.000000 1305.708496,1.000000 1339.776489,1.352475 
	C1390.129150,3.131695 1439.472778,7.565773 1488.457642,15.889884 
	C1541.085693,24.833075 1592.414062,38.363068 1641.654297,59.193012 
	C1693.938843,81.310684 1741.395020,110.933968 1782.027832,150.897049 
	C1830.193848,198.269012 1863.293701,254.948395 1884.974609,318.585236 
	C1905.683105,379.367920 1915.234619,442.192780 1919.041626,506.060333 
	C1919.478149,513.386414 1920.337036,520.687378 1921.000000,528.000000 
	C1921.000000,561.020874 1921.000000,594.041809 1920.600342,627.710571 
	C1919.173340,643.130554 1918.363647,657.921631 1917.077637,672.671204 
	C1913.382080,715.056824 1906.111816,756.769531 1893.133545,797.387939 
	C1869.830322,870.319946 1828.675293,930.450745 1765.957153,975.191711 
	C1721.591309,1006.840942 1672.283447,1027.861572 1620.278076,1043.098389 
	C1576.115601,1056.037231 1531.050659,1064.456177 1485.433960,1070.223511 
	C1443.286621,1075.552124 1400.979126,1078.614990 1358.536133,1080.040894 
	C1357.348022,1080.080688 1356.178345,1080.667969 1355.000000,1081.000000 
	C1313.312378,1081.000000 1271.624878,1081.000000 1229.468628,1081.000000 
M1328.589844,22.828735 
	C1323.945312,22.580606 1319.298950,22.090134 1314.656738,22.127649 
	C1297.514893,22.266176 1280.370361,22.425055 1263.234497,22.868200 
	C1244.450439,23.353962 1225.661499,23.909729 1206.899170,24.900087 
	C1187.324463,25.933331 1167.755249,27.244013 1148.227051,28.936014 
	C1123.746826,31.057083 1099.233765,33.092110 1074.875000,36.246719 
	C1041.306396,40.594063 1007.723755,45.139740 974.410217,51.076950 
	C928.173401,59.317360 882.044983,68.292465 836.115906,78.103226 
	C769.954041,92.235840 704.711975,110.088791 640.272705,130.652374 
	C601.793457,142.931717 563.647400,156.319641 525.662354,170.068069 
	C468.364532,190.806686 412.296387,214.622467 357.817810,241.905899 
	C325.393738,258.144196 293.448120,275.461212 262.087463,293.671143 
	C212.034866,322.734741 164.817993,355.967438 122.327232,395.468567 
	C92.562408,423.139191 65.838409,453.457855 46.446609,489.501404 
	C29.696882,520.634155 19.862381,553.486084 22.768436,589.438416 
	C24.481499,610.631592 30.139151,630.605042 39.343220,649.624451 
	C54.181526,680.286438 75.415359,706.095703 99.822227,729.608459 
	C122.326271,751.287964 146.873520,770.338379 172.723877,787.735718 
	C218.986084,818.870361 268.240051,844.585327 319.036621,867.409424 
	C372.946014,891.632141 428.018799,912.942322 484.419373,930.542725 
	C530.092896,944.795593 576.009094,958.385071 622.212952,970.797424 
	C691.029419,989.284607 760.676208,1004.298767 830.953247,1016.159790 
	C872.513428,1023.174133 914.144836,1029.837646 955.868408,1035.788330 
	C985.440613,1040.005981 1015.194031,1043.024414 1044.915649,1046.103760 
	C1073.155518,1049.029663 1101.436523,1051.633423 1129.742065,1053.827637 
	C1152.767944,1055.612305 1175.844604,1056.885132 1198.921387,1057.830811 
	C1224.020142,1058.859253 1249.141968,1059.569824 1274.259644,1059.816772 
	C1295.561523,1060.026245 1316.872803,1059.433716 1338.177979,1059.082031 
	C1347.321289,1058.931030 1356.471802,1058.690674 1365.598267,1058.145386 
	C1392.300537,1056.550049 1419.020020,1055.119385 1445.679321,1052.963501 
	C1464.202148,1051.465576 1482.722656,1049.438110 1501.088257,1046.628662 
	C1522.569946,1043.342285 1543.972534,1039.383423 1565.249146,1034.946655 
	C1610.489136,1025.513184 1654.346069,1011.728394 1696.069702,991.598145 
	C1738.503906,971.125122 1776.424316,944.591492 1807.653931,908.952759 
	C1835.928345,876.686523 1856.006104,839.773682 1869.966431,799.423889 
	C1883.614746,759.975647 1891.670288,719.278442 1894.980835,677.737915 
	C1897.276855,648.929749 1898.680176,620.035156 1899.768188,591.152283 
	C1900.350098,575.709106 1899.695068,560.198425 1899.105103,544.737061 
	C1898.281128,523.143372 1897.969727,501.462646 1895.665039,480.009766 
	C1892.707642,452.479523 1888.916016,424.965424 1883.835449,397.752106 
	C1873.502441,342.406189 1855.048584,289.855438 1826.069824,241.310989 
	C1802.083374,201.129166 1771.513306,166.722015 1734.713135,137.841583 
	C1693.139893,105.215385 1646.555176,82.028030 1596.799438,64.882668 
	C1532.292236,42.654083 1465.555298,31.651562 1397.812012,26.161821 
	C1375.123169,24.323166 1352.319580,23.900261 1328.589844,22.828735 
z"/>
<path fill="#FFFFFF" opacity="1.000000" stroke="none" 
	d="
M1921.000000,527.531372 
	C1920.337036,520.687378 1919.478149,513.386414 1919.041626,506.060333 
	C1915.234619,442.192780 1905.683105,379.367920 1884.974609,318.585236 
	C1863.293701,254.948395 1830.193848,198.269012 1782.027832,150.897049 
	C1741.395020,110.933968 1693.938843,81.310684 1641.654297,59.193012 
	C1592.414062,38.363068 1541.085693,24.833075 1488.457642,15.889884 
	C1439.472778,7.565773 1390.129150,3.131695 1340.245117,1.352475 
	C1533.590210,1.000000 1727.180542,1.000000 1921.000000,1.000000 
	C1921.000000,176.354156 1921.000000,351.708435 1921.000000,527.531372 
z"/>
<path fill="#FFFFFF" opacity="1.000000" stroke="none" 
	d="
M1355.468628,1081.000000 
	C1356.178345,1080.667969 1357.348022,1080.080688 1358.536133,1080.040894 
	C1400.979126,1078.614990 1443.286621,1075.552124 1485.433960,1070.223511 
	C1531.050659,1064.456177 1576.115601,1056.037231 1620.278076,1043.098389 
	C1672.283447,1027.861572 1721.591309,1006.840942 1765.957153,975.191711 
	C1828.675293,930.450745 1869.830322,870.319946 1893.133545,797.387939 
	C1906.111816,756.769531 1913.382080,715.056824 1917.077637,672.671204 
	C1918.363647,657.921631 1919.173340,643.130554 1920.600342,628.179199 
	C1921.000000,778.935181 1921.000000,929.870361 1921.000000,1081.000000 
	C1732.645752,1081.000000 1544.291504,1081.000000 1355.468628,1081.000000 
z"/>
<path fill="#0071BC" opacity="1.000000" stroke="none" 
	d="
M1329.079102,22.829475 
	C1352.319580,23.900261 1375.123169,24.323166 1397.812012,26.161821 
	C1465.555298,31.651562 1532.292236,42.654083 1596.799438,64.882668 
	C1646.555176,82.028030 1693.139893,105.215385 1734.713135,137.841583 
	C1771.513306,166.722015 1802.083374,201.129166 1826.069824,241.310989 
	C1855.048584,289.855438 1873.502441,342.406189 1883.835449,397.752106 
	C1888.916016,424.965424 1892.707642,452.479523 1895.665039,480.009766 
	C1897.969727,501.462646 1898.281128,523.143372 1899.105103,544.737061 
	C1899.695068,560.198425 1900.350098,575.709106 1899.768188,591.152283 
	C1898.680176,620.035156 1897.276855,648.929749 1894.980835,677.737915 
	C1891.670288,719.278442 1883.614746,759.975647 1869.966431,799.423889 
	C1856.006104,839.773682 1835.928345,876.686523 1807.653931,908.952759 
	C1776.424316,944.591492 1738.503906,971.125122 1696.069702,991.598145 
	C1654.346069,1011.728394 1610.489136,1025.513184 1565.249146,1034.946655 
	C1543.972534,1039.383423 1522.569946,1043.342285 1501.088257,1046.628662 
	C1482.722656,1049.438110 1464.202148,1051.465576 1445.679321,1052.963501 
	C1419.020020,1055.119385 1392.300537,1056.550049 1365.598267,1058.145386 
	C1356.471802,1058.690674 1347.321289,1058.931030 1338.177979,1059.082031 
	C1316.872803,1059.433716 1295.561523,1060.026245 1274.259644,1059.816772 
	C1249.141968,1059.569824 1224.020142,1058.859253 1198.921387,1057.830811 
	C1175.844604,1056.885132 1152.767944,1055.612305 1129.742065,1053.827637 
	C1101.436523,1051.633423 1073.155518,1049.029663 1044.915649,1046.103760 
	C1015.194031,1043.024414 985.440613,1040.005981 955.868408,1035.788330 
	C914.144836,1029.837646 872.513428,1023.174133 830.953247,1016.159790 
	C760.676208,1004.298767 691.029419,989.284607 622.212952,970.797424 
	C576.009094,958.385071 530.092896,944.795593 484.419373,930.542725 
	C428.018799,912.942322 372.946014,891.632141 319.036621,867.409424 
	C268.240051,844.585327 218.986084,818.870361 172.723877,787.735718 
	C146.873520,770.338379 122.326271,751.287964 99.822227,729.608459 
	C75.415359,706.095703 54.181526,680.286438 39.343220,649.624451 
	C30.139151,630.605042 24.481499,610.631592 22.768436,589.438416 
	C19.862381,553.486084 29.696882,520.634155 46.446609,489.501404 
	C65.838409,453.457855 92.562408,423.139191 122.327232,395.468567 
	C164.817993,355.967438 212.034866,322.734741 262.087463,293.671143 
	C293.448120,275.461212 325.393738,258.144196 357.817810,241.905899 
	C412.296387,214.622467 468.364532,190.806686 525.662354,170.068069 
	C563.647400,156.319641 601.793457,142.931717 640.272705,130.652374 
	C704.711975,110.088791 769.954041,92.235840 836.115906,78.103226 
	C882.044983,68.292465 928.173401,59.317360 974.410217,51.076950 
	C1007.723755,45.139740 1041.306396,40.594063 1074.875000,36.246719 
	C1099.233765,33.092110 1123.746826,31.057083 1148.227051,28.936014 
	C1167.755249,27.244013 1187.324463,25.933331 1206.899170,24.900087 
	C1225.661499,23.909729 1244.450439,23.353962 1263.234497,22.868200 
	C1280.370361,22.425055 1297.514893,22.266176 1314.656738,22.127649 
	C1319.298950,22.090134 1323.945312,22.580606 1329.079102,22.829475 
M642.450012,746.977600 
	C644.543701,746.010254 646.626282,745.017822 648.732849,744.079529 
	C675.872437,731.991150 703.308777,720.520325 730.070251,707.646301 
	C754.010681,696.129395 777.435486,683.476990 800.664307,670.563904 
	C820.860413,659.336731 840.990540,647.833923 860.202759,635.031677 
	C886.926880,617.223816 913.325745,598.819519 938.821594,579.308533 
	C962.167542,561.442871 984.488770,542.176697 1006.565002,522.736694 
	C1019.607483,511.251678 1031.740356,498.636139 1043.488525,485.802429 
	C1059.843750,467.935913 1076.339478,450.071564 1091.120850,430.928833 
	C1104.213623,413.972961 1116.008423,395.820892 1126.634033,377.202667 
	C1140.216309,353.403961 1149.507446,327.893127 1152.218750,300.152527 
	C1154.020020,281.722595 1152.574219,264.115662 1144.694824,247.280167 
	C1136.909912,230.646530 1124.642090,217.660568 1110.645752,206.136292 
	C1087.032104,186.693176 1059.897217,173.740326 1031.138916,164.238754 
	C1003.535278,155.118652 974.957703,149.981873 946.068665,147.120209 
	C928.679138,145.397659 911.169067,144.667542 893.693420,144.121582 
	C883.117920,143.791183 872.504517,144.657501 861.908569,145.001053 
	C851.966980,145.323410 842.013733,145.458679 832.087830,146.049362 
	C818.753174,146.842911 805.409973,147.703583 792.124817,149.066284 
	C775.360596,150.785843 758.491516,152.183060 741.955139,155.262619 
	C716.371216,160.027084 690.770447,165.132034 665.661560,171.892761 
	C641.520935,178.392792 617.841003,186.741333 594.242615,195.080963 
	C568.451904,204.195328 543.242676,214.870972 519.684509,228.907394 
	C512.169739,233.384872 505.327240,239.156754 498.741455,244.975082 
	C493.429321,249.668167 493.669525,256.030914 498.586914,261.049194 
	C509.588867,272.276978 523.679871,276.181274 538.553650,274.695770 
	C555.460327,273.007202 571.131958,266.079620 586.821045,259.654572 
	C601.851257,253.499329 617.146912,247.989258 632.366821,242.305298 
	C633.587646,241.849365 635.126587,242.245148 636.517700,242.245148 
	C636.866089,242.669464 637.214539,243.093781 637.562988,243.518112 
	C636.175720,244.413223 634.603027,245.114120 633.430237,246.233795 
	C623.093384,256.102417 612.623657,265.843781 602.576111,276.001434 
	C558.579041,320.480408 514.693359,365.069519 470.812683,409.663391 
	C463.724609,416.866669 456.706909,424.152222 449.939392,431.654816 
	C439.442902,443.291443 429.188599,455.146515 418.833221,466.910400 
	C407.083710,480.257996 395.121338,493.425781 383.646210,507.005280 
	C371.467377,521.417480 359.596252,536.097778 347.872406,550.884338 
	C332.442749,570.344971 317.170319,589.933167 302.041809,609.629028 
	C277.708771,641.308289 254.773849,673.978394 233.708572,707.928162 
	C223.091476,725.039062 213.077881,742.472046 205.943604,761.438721 
	C201.180969,774.100342 201.895782,785.684509 211.390381,795.795959 
	C222.810272,807.957764 237.340698,814.774902 253.231567,818.921387 
	C268.846283,822.995789 284.749695,825.191162 300.895264,824.848328 
	C321.764221,824.405090 342.665222,824.194397 363.477142,822.777832 
	C378.103424,821.782349 392.668213,819.315674 407.144623,816.830933 
	C425.056519,813.756592 442.954651,810.449707 460.670197,806.415405 
	C497.310760,798.071411 533.406128,787.671082 568.757812,774.921021 
	C593.230286,766.094727 617.381531,756.377563 642.450012,746.977600 
M1154.970703,676.472168 
	C1184.806763,636.826843 1218.852905,600.995422 1254.527466,566.644714 
	C1309.882690,513.343689 1367.581421,462.633179 1428.597168,415.990173 
	C1489.302612,369.584412 1551.408447,324.998749 1613.235352,280.076202 
	C1651.215576,252.480362 1689.977417,225.961487 1728.029663,198.462845 
	C1736.146851,192.597000 1743.233398,185.034225 1749.822388,177.412659 
	C1754.819824,171.631805 1753.510864,165.854416 1747.819214,160.711365 
	C1746.224609,159.270355 1744.446777,157.986969 1742.609497,156.866898 
	C1730.083252,149.231094 1716.337891,147.689423 1702.161621,149.504257 
	C1682.940918,151.964905 1665.511475,159.714752 1649.817505,170.545166 
	C1599.951050,204.958191 1549.473267,238.609039 1501.108276,275.045044 
	C1432.214722,326.946136 1364.705811,380.703400 1297.112427,434.307098 
	C1201.018311,510.512695 1114.071167,596.217590 1034.879639,689.814331 
	C1023.911377,702.777832 1013.438660,716.143188 1006.723511,732.015747 
	C1002.404907,742.223511 1003.741455,751.630188 1010.485413,760.141724 
	C1023.171082,776.152344 1040.312988,783.889404 1060.310303,784.900635 
	C1093.038818,786.555725 1124.978760,780.546387 1156.685669,773.394348 
	C1215.391113,760.152222 1273.456787,743.646729 1333.576294,737.582825 
	C1365.019653,734.411316 1396.554077,731.677124 1428.114990,730.317261 
	C1445.985474,729.547302 1463.983032,732.257996 1481.941650,732.849670 
	C1498.526489,733.395935 1514.064331,729.540344 1527.242676,718.880310 
	C1536.413940,711.461487 1536.834595,700.046936 1528.635742,691.795715 
	C1523.134888,686.259766 1516.088501,683.780090 1508.769043,681.982361 
	C1486.139160,676.424438 1463.038940,676.803894 1440.170410,678.502869 
	C1399.019653,681.560059 1357.826050,684.870117 1316.916382,690.139709 
	C1261.320923,697.300964 1205.974731,706.399231 1150.523071,714.675903 
	C1143.077393,715.787292 1135.639771,716.951904 1128.198364,718.091858 
	C1127.872681,717.676880 1127.546875,717.261902 1127.221069,716.846985 
	C1136.322876,703.575012 1145.424683,690.303101 1154.970703,676.472168 
z"/>
<path fill="#FFFFFF" opacity="1.000000" stroke="none" 
	d="
M642.063110,747.018005 
	C617.381531,756.377563 593.230286,766.094727 568.757812,774.921021 
	C533.406128,787.671082 497.310760,798.071411 460.670197,806.415405 
	C442.954651,810.449707 425.056519,813.756592 407.144623,816.830933 
	C392.668213,819.315674 378.103424,821.782349 363.477142,822.777832 
	C342.665222,824.194397 321.764221,824.405090 300.895264,824.848328 
	C284.749695,825.191162 268.846283,822.995789 253.231567,818.921387 
	C237.340698,814.774902 222.810272,807.957764 211.390381,795.795959 
	C201.895782,785.684509 201.180969,774.100342 205.943604,761.438721 
	C213.077881,742.472046 223.091476,725.039062 233.708572,707.928162 
	C254.773849,673.978394 277.708771,641.308289 302.041809,609.629028 
	C317.170319,589.933167 332.442749,570.344971 347.872406,550.884338 
	C359.596252,536.097778 371.467377,521.417480 383.646210,507.005280 
	C395.121338,493.425781 407.083710,480.257996 418.833221,466.910400 
	C429.188599,455.146515 439.442902,443.291443 449.939392,431.654816 
	C456.706909,424.152222 463.724609,416.866669 470.812683,409.663391 
	C514.693359,365.069519 558.579041,320.480408 602.576111,276.001434 
	C612.623657,265.843781 623.093384,256.102417 633.430237,246.233795 
	C634.603027,245.114120 636.175720,244.413223 637.562988,243.518112 
	C637.214539,243.093781 636.866089,242.669464 636.517700,242.245148 
	C635.126587,242.245148 633.587646,241.849365 632.366821,242.305298 
	C617.146912,247.989258 601.851257,253.499329 586.821045,259.654572 
	C571.131958,266.079620 555.460327,273.007202 538.553650,274.695770 
	C523.679871,276.181274 509.588867,272.276978 498.586914,261.049194 
	C493.669525,256.030914 493.429321,249.668167 498.741455,244.975082 
	C505.327240,239.156754 512.169739,233.384872 519.684509,228.907394 
	C543.242676,214.870972 568.451904,204.195328 594.242615,195.080963 
	C617.841003,186.741333 641.520935,178.392792 665.661560,171.892761 
	C690.770447,165.132034 716.371216,160.027084 741.955139,155.262619 
	C758.491516,152.183060 775.360596,150.785843 792.124817,149.066284 
	C805.409973,147.703583 818.753174,146.842911 832.087830,146.049362 
	C842.013733,145.458679 851.966980,145.323410 861.908569,145.001053 
	C872.504517,144.657501 883.117920,143.791183 893.693420,144.121582 
	C911.169067,144.667542 928.679138,145.397659 946.068665,147.120209 
	C974.957703,149.981873 1003.535278,155.118652 1031.138916,164.238754 
	C1059.897217,173.740326 1087.032104,186.693176 1110.645752,206.136292 
	C1124.642090,217.660568 1136.909912,230.646530 1144.694824,247.280167 
	C1152.574219,264.115662 1154.020020,281.722595 1152.218750,300.152527 
	C1149.507446,327.893127 1140.216309,353.403961 1126.634033,377.202667 
	C1116.008423,395.820892 1104.213623,413.972961 1091.120850,430.928833 
	C1076.339478,450.071564 1059.843750,467.935913 1043.488525,485.802429 
	C1031.740356,498.636139 1019.607483,511.251678 1006.565002,522.736694 
	C984.488770,542.176697 962.167542,561.442871 938.821594,579.308533 
	C913.325745,598.819519 886.926880,617.223816 860.202759,635.031677 
	C840.990540,647.833923 820.860413,659.336731 800.664307,670.563904 
	C777.435486,683.476990 754.010681,696.129395 730.070251,707.646301 
	C703.308777,720.520325 675.872437,731.991150 648.732849,744.079529 
	C646.626282,745.017822 644.543701,746.010254 642.063110,747.018005 
M1005.458923,207.998062 
	C1002.496216,206.973083 999.562378,205.853836 996.566162,204.938446 
	C977.265930,199.041733 957.470825,196.290649 937.363281,194.892776 
	C908.041809,192.854355 878.719604,193.015488 849.633484,196.608612 
	C817.975342,200.519485 786.514465,206.068329 755.013245,211.183517 
	C745.912048,212.661377 736.967773,215.105652 726.613831,217.403793 
	C730.874268,218.873199 733.804443,219.590790 736.466248,220.867889 
	C740.882202,222.986633 745.482727,224.991516 749.352905,227.909866 
	C754.394531,231.711548 754.618958,234.041702 750.776306,239.054855 
	C746.275757,244.926285 741.532349,250.678986 736.347351,255.944733 
	C724.112671,268.370239 711.460571,280.383606 699.144104,292.730103 
	C670.235107,321.709717 641.336731,350.700989 612.613525,379.864349 
	C600.060974,392.609283 587.864014,405.708679 575.659973,418.791199 
	C564.283813,430.986298 553.051025,443.316925 541.861450,455.684052 
	C490.310211,512.660278 441.511017,571.916992 395.236023,633.246277 
	C374.377533,660.890442 353.686951,688.705200 336.864563,719.061829 
	C331.512726,728.719482 327.219025,739.132690 323.800171,749.642273 
	C320.704498,759.158447 325.091766,766.966309 334.741882,770.087769 
	C341.441681,772.254700 348.698151,773.543579 355.734558,773.673279 
	C379.316864,774.108032 402.525848,770.506104 425.480682,765.399841 
	C484.470245,752.277527 541.231934,732.496460 596.193420,707.509033 
	C650.555908,682.794006 702.396240,653.468872 752.902161,621.662781 
	C800.374329,591.767273 846.447815,559.961365 889.411011,523.817078 
	C916.919312,500.674744 943.368164,476.329193 966.988525,449.204681 
	C983.179688,430.611542 998.968506,411.542419 1013.412842,391.582977 
	C1035.446289,361.136749 1052.973877,328.328644 1057.422974,290.116669 
	C1059.846802,269.299683 1056.991089,249.646896 1042.993652,232.918411 
	C1033.134155,221.135162 1020.179321,213.906158 1005.458923,207.998062 
z"/>
<path fill="#FEFEFF" opacity="1.000000" stroke="none" 
	d="
M1154.748657,676.751648 
	C1145.424683,690.303101 1136.322876,703.575012 1127.221069,716.846985 
	C1127.546875,717.261902 1127.872681,717.676880 1128.198364,718.091858 
	C1135.639771,716.951904 1143.077393,715.787292 1150.523071,714.675903 
	C1205.974731,706.399231 1261.320923,697.300964 1316.916382,690.139709 
	C1357.826050,684.870117 1399.019653,681.560059 1440.170410,678.502869 
	C1463.038940,676.803894 1486.139160,676.424438 1508.769043,681.982361 
	C1516.088501,683.780090 1523.134888,686.259766 1528.635742,691.795715 
	C1536.834595,700.046936 1536.413940,711.461487 1527.242676,718.880310 
	C1514.064331,729.540344 1498.526489,733.395935 1481.941650,732.849670 
	C1463.983032,732.257996 1445.985474,729.547302 1428.114990,730.317261 
	C1396.554077,731.677124 1365.019653,734.411316 1333.576294,737.582825 
	C1273.456787,743.646729 1215.391113,760.152222 1156.685669,773.394348 
	C1124.978760,780.546387 1093.038818,786.555725 1060.310303,784.900635 
	C1040.312988,783.889404 1023.171082,776.152344 1010.485413,760.141724 
	C1003.741455,751.630188 1002.404907,742.223511 1006.723511,732.015747 
	C1013.438660,716.143188 1023.911377,702.777832 1034.879639,689.814331 
	C1114.071167,596.217590 1201.018311,510.512695 1297.112427,434.307098 
	C1364.705811,380.703400 1432.214722,326.946136 1501.108276,275.045044 
	C1549.473267,238.609039 1599.951050,204.958191 1649.817505,170.545166 
	C1665.511475,159.714752 1682.940918,151.964905 1702.161621,149.504257 
	C1716.337891,147.689423 1730.083252,149.231094 1742.609497,156.866898 
	C1744.446777,157.986969 1746.224609,159.270355 1747.819214,160.711365 
	C1753.510864,165.854416 1754.819824,171.631805 1749.822388,177.412659 
	C1743.233398,185.034225 1736.146851,192.597000 1728.029663,198.462845 
	C1689.977417,225.961487 1651.215576,252.480362 1613.235352,280.076202 
	C1551.408447,324.998749 1489.302612,369.584412 1428.597168,415.990173 
	C1367.581421,462.633179 1309.882690,513.343689 1254.527466,566.644714 
	C1218.852905,600.995422 1184.806763,636.826843 1154.748657,676.751648 
z"/>
<path fill="#0071BC" opacity="1.000000" stroke="none" 
	d="
M1005.832520,208.109772 
	C1020.179321,213.906158 1033.134155,221.135162 1042.993652,232.918411 
	C1056.991089,249.646896 1059.846802,269.299683 1057.422974,290.116669 
	C1052.973877,328.328644 1035.446289,361.136749 1013.412842,391.582977 
	C998.968506,411.542419 983.179688,430.611542 966.988525,449.204681 
	C943.368164,476.329193 916.919312,500.674744 889.411011,523.817078 
	C846.447815,559.961365 800.374329,591.767273 752.902161,621.662781 
	C702.396240,653.468872 650.555908,682.794006 596.193420,707.509033 
	C541.231934,732.496460 484.470245,752.277527 425.480682,765.399841 
	C402.525848,770.506104 379.316864,774.108032 355.734558,773.673279 
	C348.698151,773.543579 341.441681,772.254700 334.741882,770.087769 
	C325.091766,766.966309 320.704498,759.158447 323.800171,749.642273 
	C327.219025,739.132690 331.512726,728.719482 336.864563,719.061829 
	C353.686951,688.705200 374.377533,660.890442 395.236023,633.246277 
	C441.511017,571.916992 490.310211,512.660278 541.861450,455.684052 
	C553.051025,443.316925 564.283813,430.986298 575.659973,418.791199 
	C587.864014,405.708679 600.060974,392.609283 612.613525,379.864349 
	C641.336731,350.700989 670.235107,321.709717 699.144104,292.730103 
	C711.460571,280.383606 724.112671,268.370239 736.347351,255.944733 
	C741.532349,250.678986 746.275757,244.926285 750.776306,239.054855 
	C754.618958,234.041702 754.394531,231.711548 749.352905,227.909866 
	C745.482727,224.991516 740.882202,222.986633 736.466248,220.867889 
	C733.804443,219.590790 730.874268,218.873199 726.613831,217.403793 
	C736.967773,215.105652 745.912048,212.661377 755.013245,211.183517 
	C786.514465,206.068329 817.975342,200.519485 849.633484,196.608612 
	C878.719604,193.015488 908.041809,192.854355 937.363281,194.892776 
	C957.470825,196.290649 977.265930,199.041733 996.566162,204.938446 
	C999.562378,205.853836 1002.496216,206.973083 1005.832520,208.109772 
z"/>
</svg>