<?xml version="1.0" encoding="UTF-8"?>
<svg xmlns="http://www.w3.org/2000/svg" version="1.1" viewBox="0 0 5100 2294">
  <defs>
    <style>
      .cls-1 {
        fill: #fff;
      }

      .cls-2 {
        fill: none;
        stroke: #000;
        stroke-miterlimit: 10;
        stroke-width: 1000px;
      }
    </style>
  </defs>
  <!-- Generator: Adobe Illustrator 28.7.1, SVG Export Plug-In . SVG Version: 1.2.0 Build 142)  -->
  <g>
    <g id="Layer_1">
      <g>
        <path class="cls-1" d="M-90.03,9766.5c-164.59,0-329.26-16.73-489.43-49.73-156.04-32.15-309.66-80.1-456.6-142.52-144.23-61.27-283.44-137.08-413.77-225.33-129.07-87.39-250.51-187.7-360.95-298.14-110.44-110.44-210.75-231.88-298.14-360.95-88.24-130.33-164.05-269.54-225.33-413.77-62.43-146.94-110.38-300.56-142.52-456.6-33-160.17-49.73-324.84-49.73-489.43V-3216.03c0-164.59,16.73-329.26,49.73-489.43,32.15-156.04,80.1-309.66,142.52-456.6,61.27-144.23,137.08-283.44,225.33-413.77,87.39-129.07,187.7-250.51,298.14-360.95,110.44-110.44,231.88-210.75,360.95-298.14,130.33-88.24,269.54-164.05,413.77-225.33,146.94-62.43,300.56-110.38,456.6-142.52,160.17-33,324.84-49.73,489.43-49.73h10293.06c164.59,0,329.26,16.73,489.43,49.73,156.04,32.15,309.66,80.1,456.6,142.52,144.23,61.27,283.44,137.08,413.77,225.33,129.07,87.39,250.51,187.7,360.95,298.14,110.44,110.44,210.75,231.88,298.14,360.95,88.24,130.33,164.05,269.54,225.33,413.77,62.43,146.94,110.38,300.56,142.52,456.6,33,160.17,49.73,324.84,49.73,489.43V7330.03c0,164.59-16.73,329.26-49.73,489.43-32.15,156.04-80.1,309.66-142.52,456.6-61.27,144.23-137.08,283.44-225.33,413.77-87.39,129.07-187.7,250.51-298.14,360.95-110.44,110.44-231.88,210.75-360.95,298.14-130.33,88.24-269.54,164.05-413.77,225.33-146.94,62.43-300.56,110.38-456.6,142.52-160.17,33-324.84,49.73-489.43,49.73H-90.03Z"/>
        <path d="M10203.03-5652c164.56,0,329.2,16.73,489.33,49.72,156,32.14,309.59,80.08,456.5,142.49,144.2,61.26,283.38,137.06,413.69,225.28,129.04,87.37,250.46,187.66,360.88,298.07,110.42,110.42,210.7,231.83,298.07,360.88,88.22,130.3,164.02,269.49,225.28,413.69,62.41,146.91,110.35,300.5,142.49,456.5,32.99,160.14,49.72,324.77,49.72,489.33V7330.03c0,164.56-16.73,329.2-49.72,489.33-32.14,156-80.08,309.59-142.49,456.5-61.26,144.2-137.06,283.38-225.28,413.69-87.37,129.04-187.66,250.46-298.07,360.88-110.42,110.42-231.83,210.7-360.88,298.07-130.3,88.22-269.49,164.02-413.69,225.28-146.91,62.41-300.5,110.35-456.5,142.49-160.14,32.99-324.77,49.72-489.33,49.72H-90.03c-164.56,0-329.2-16.73-489.33-49.72-156-32.14-309.59-80.08-456.5-142.49-144.2-61.26-283.38-137.06-413.69-225.28-129.04-87.37-250.46-187.66-360.88-298.07-110.42-110.42-210.7-231.83-298.07-360.88-88.22-130.3-164.02-269.49-225.28-413.69-62.41-146.91-110.35-300.5-142.49-456.5-32.99-160.14-49.72-324.77-49.72-489.33V-3216.03c0-164.56,16.73-329.2,49.72-489.33,32.14-156,80.08-309.59,142.49-456.5,61.26-144.2,137.06-283.38,225.28-413.69,87.37-129.04,187.66-250.46,298.07-360.88,110.42-110.42,231.83-210.7,360.88-298.07,130.3-88.22,269.49-164.02,413.69-225.28,146.91-62.41,300.5-110.35,456.5-142.49,160.14-32.99,324.77-49.72,489.33-49.72h10293.06M10203.03-5653H-90.03c-1340.33,0-2436.97,1096.64-2436.97,2436.97V7330.03c0,1340.33,1096.64,2436.97,2436.97,2436.97h10293.06c1340.33,0,2436.97-1096.64,2436.97-2436.97V-3216.03c0-1340.33-1096.64-2436.97-2436.97-2436.97h0Z"/>
      </g>
      <line class="cls-2" x1="2304.07" y1="7415.34" x2="6831.63" y2="7397.58"/>
      <path class="cls-2" d="M7473.2,7307.09c196.11-1.9,892.98-45.66,1416.93-849.65,393.07-603.16,493.19-1333.97,555.28-1787.2,87.71-640.23,55.63-1142.68,19.15-1713.96-47.75-747.74-77.88-1219.61-258.49-1772.56-254.47-779.05-648.85-1232.83-867.99-1445-11.7-11.33-56.68-54.85-118.12-107.82-81.37-70.16-403.99-340.08-914.31-500.56-351.73-110.61-632.41-118.84-957.39-128.37-202.24-5.93-430.82,0-430.82,0-123.32,3.2-221.1,8.51-325.51,14.26-211.9,11.67-370.31,24.36-421.25,28.53-506.34,41.39-559.62,71.24-603.15,142.63-50.94,83.54-60.18,227.99-76.59,513.48-18.49,321.62-7.86,559.81,0,784.48,10.1,288.71,11.97,577.93,19.15,866.83,6.8,273.71,15.07,674.3,19.15,1171.94"/>
      <line class="cls-2" x1="1129.04" y1="-1594" x2="1122.31" y2="7946"/>
    </g>
  </g>
</svg>