<?xml version="1.0" encoding="UTF-8"?>
<svg xmlns="http://www.w3.org/2000/svg" version="1.1" viewBox="0 0 1920 1080">
  <defs>
    <style>
      .cls-1 {
        fill: #fff;
        stroke: #fff;
        stroke-width: 350px;
      }

      .cls-1, .cls-2, .cls-3 {
        stroke-miterlimit: 10;
      }

      .cls-2 {
        stroke-width: 318px;
      }

      .cls-2, .cls-3 {
        fill: none;
        stroke: #000;
      }

      .cls-3 {
        stroke-width: 290px;
      }
    </style>
  </defs>
  <!-- Generator: Adobe Illustrator 28.7.1, SVG Export Plug-In . SVG Version: 1.2.0 Build 142)  -->
  <g>
    <g id="Layer_2">
      <rect class="cls-1" x="177" y="173.07" width="1550.02" height="719.27" rx="12" ry="12"/>
    </g>
    <g id="Layer_1">
      <line class="cls-3" x1="577.57" y1="878.68" x2="1250.43" y2="877.32"/>
      <path class="cls-2" d="M1389.29,859c27.26.69,151.12,2.23,230.82-48.17,11.77-7.44,31.32-20.07,48.49-43.83,5.04-6.98,22.02-31.72,32.1-94,10.03-62,5.22-111.91,2.78-132.19-6.93-57.67-11.3-94.06-37.52-136.7-36.93-60.08-94.17-95.08-125.98-111.44-1.7-.87-8.23-4.23-17.14-8.32-11.81-5.41-58.64-26.23-132.7-38.6-51.05-8.53-91.79-9.17-138.96-9.9-29.35-.46-62.53,0-62.53,0-17.9.25-32.09.66-47.24,1.1-30.76.9-53.75,1.88-61.14,2.2-64.65,2.81-78.41,4.93-85.09,9.15-1.34.84-2.34,1.76-2.45,1.85-11.48,9.82-11.69,27.58-11.67,34.85.1,59.78.16,89.67,1.95,112,1.11,13.83,1.72,40.56,2.93,94,.89,39.22,1.01,70.96.98,91"/>
      <line class="cls-2" x1="344.78" y1="72.5" x2="343.8" y2="1053.5"/>
    </g>
  </g>
</svg>