<svg version="1.1" id="Layer_1" xmlns="http://www.w3.org/2000/svg" xmlns:xlink="http://www.w3.org/1999/xlink" x="0px" y="0px"
	 width="100%" viewBox="0 0 1920 1080" enable-background="new 0 0 1920 1080" xml:space="preserve">
<path fill="#0B0828" opacity="1.000000" stroke="none" 
	d="
M1382.000000,1081.000000 
	C921.768677,1081.000000 461.537292,1081.000000 1.000000,1081.000000 
	C1.000000,905.974304 1.000000,730.948364 1.339134,555.309448 
	C2.922985,549.091919 4.188562,543.492004 5.408855,537.882202 
	C11.168329,511.405334 22.248993,487.150757 36.311066,464.165558 
	C48.544571,444.169281 62.915863,425.719940 78.820480,408.591644 
	C90.124939,396.417389 102.303986,385.002716 114.636444,373.850311 
	C127.028183,362.644318 139.476135,351.327820 152.992126,341.573792 
	C180.704315,321.574921 208.526917,301.601593 237.441864,283.428070 
	C276.275269,259.020599 316.616638,237.127045 358.243164,217.717865 
	C372.085052,211.263824 385.712219,204.333435 399.676910,198.162491 
	C417.601440,190.241669 435.698486,182.698135 453.847168,175.301086 
	C475.347137,166.538147 496.805511,157.624237 518.601135,149.648132 
	C546.513977,139.433441 574.699524,129.953766 602.855286,120.416481 
	C621.726013,114.024353 640.668823,107.818741 659.726196,102.011452 
	C679.583984,95.960243 699.564453,90.291718 719.590332,84.818077 
	C738.811890,79.564278 758.112061,74.578125 777.465149,69.830742 
	C801.785156,63.864933 826.138916,58.013496 850.581177,52.576015 
	C872.281433,47.748516 894.114624,43.515213 915.905212,39.098988 
	C924.845276,37.287136 933.798706,35.508316 942.796997,34.023151 
	C959.481689,31.269339 976.196777,28.696352 992.912842,26.136635 
	C1004.874756,24.304914 1016.849243,22.548653 1028.835449,20.883656 
	C1043.291260,18.875603 1057.756958,16.935005 1072.234009,15.086937 
	C1083.917969,13.595415 1095.605225,12.077600 1107.327148,10.948451 
	C1120.533447,9.676316 1133.781738,8.843575 1147.009277,7.788583 
	C1163.162964,6.500209 1179.308594,5.103366 1195.468994,3.907184 
	C1202.739380,3.369033 1210.042847,3.283704 1217.317871,2.792867 
	C1218.579834,2.707719 1219.774292,1.623006 1221.000000,0.999992 
	C1222.066772,1.000000 1223.133423,1.000000 1224.720215,1.315894 
	C1226.826782,1.421191 1228.413330,1.210594 1230.000000,0.999999 
	C1271.025879,1.000000 1312.051636,1.000000 1353.694336,1.343619 
	C1358.334106,2.045762 1362.354980,2.430279 1366.380493,2.758278 
	C1383.223999,4.130676 1400.092407,5.248469 1416.906860,6.912410 
	C1434.892822,8.692289 1453.001587,10.030104 1470.747437,13.260641 
	C1500.776123,18.727230 1530.782349,24.638475 1560.398926,31.974672 
	C1608.551392,43.902290 1654.252930,62.346203 1697.439697,86.959328 
	C1729.481079,105.220428 1758.619385,127.323036 1784.743408,153.204666 
	C1796.601929,164.953094 1807.265625,178.008102 1817.659546,191.114182 
	C1841.990479,221.794098 1860.482422,255.917175 1875.307373,292.070496 
	C1887.387207,321.529602 1896.776245,351.866791 1903.010742,383.062805 
	C1907.659546,406.324188 1911.633301,429.755066 1914.860229,453.254303 
	C1917.181030,470.154388 1917.742432,487.294403 1919.207031,504.317200 
	C1919.316284,505.586823 1920.380005,506.774323 1921.000000,508.000000 
	C1921.000000,554.025818 1921.000000,600.051697 1920.649902,646.701111 
	C1919.908447,648.532104 1919.281250,649.716553 1919.161011,650.950439 
	C1917.471069,668.276184 1916.267700,685.660400 1914.127441,702.928955 
	C1909.350098,741.474365 1901.035156,779.218262 1887.402466,815.702637 
	C1878.109985,840.571167 1866.524292,864.270264 1852.107056,886.561951 
	C1833.919067,914.684021 1811.826172,939.346741 1786.007202,960.667175 
	C1765.699219,977.436707 1743.753784,991.726440 1720.439087,1003.957397 
	C1689.238647,1020.325073 1656.770508,1033.744263 1622.780029,1042.817505 
	C1592.623779,1050.867188 1562.103394,1057.714111 1531.494873,1063.850708 
	C1511.705444,1067.818359 1491.502075,1069.842773 1471.420776,1072.196411 
	C1453.983154,1074.240234 1436.467163,1075.657471 1418.964844,1077.094727 
	C1407.721802,1078.017822 1396.437378,1078.429077 1385.181396,1079.213623 
	C1384.084839,1079.290039 1383.058838,1080.380371 1382.000000,1081.000000 
M1244.515625,22.789911 
	C1239.356812,22.962187 1234.182129,22.934013 1229.041504,23.337986 
	C1181.569336,27.068575 1134.029297,30.133863 1086.653442,34.844227 
	C1027.148682,40.760521 968.185486,50.707844 909.506104,62.165844 
	C797.757568,83.986374 687.902405,112.983009 580.222656,150.055649 
	C486.714874,182.249069 395.531128,219.910172 308.413727,266.949158 
	C242.550201,302.512085 179.686676,342.534637 124.325378,393.391449 
	C93.735008,421.492859 66.441528,452.356445 46.410084,489.082733 
	C32.014973,515.475220 22.731693,543.415771 21.945747,573.697754 
	C21.048826,608.255432 31.654861,639.618530 49.462616,668.801514 
	C69.589760,701.785400 96.312225,728.858093 125.921837,753.248291 
	C170.013229,789.567566 218.777420,818.579163 269.652283,844.159729 
	C360.273102,889.725159 455.335480,923.759460 552.534180,952.072754 
	C671.638611,986.766968 792.760010,1012.199158 915.438721,1030.417358 
	C977.564514,1039.643311 1039.878052,1047.460205 1102.514648,1051.835815 
	C1156.660278,1055.618164 1210.920410,1058.672852 1265.174561,1059.709473 
	C1310.598877,1060.577393 1356.126831,1058.910156 1401.537354,1056.813599 
	C1448.798706,1054.631592 1495.781616,1048.954224 1542.308594,1040.075317 
	C1595.156006,1029.990356 1646.675781,1015.608704 1695.376709,992.235596 
	C1739.913574,970.861084 1779.461060,942.862183 1811.503906,904.869385 
	C1845.703613,864.319336 1866.927124,817.346619 1880.203613,766.418640 
	C1894.589478,711.235535 1899.004761,654.845642 1900.009155,598.122192 
	C1900.862061,549.953735 1899.046753,501.863129 1893.294189,453.971832 
	C1887.093628,402.351410 1876.110596,351.891113 1856.913696,303.431488 
	C1830.057739,235.637665 1788.823242,178.532242 1730.507446,134.236053 
	C1681.968750,97.366508 1627.386230,72.856186 1569.201294,55.849415 
	C1515.783691,40.236046 1461.145142,31.361963 1405.768433,26.599937 
	C1352.424194,22.012686 1299.007568,20.807095 1244.515625,22.789911 
z"/>
<path fill="#000000" opacity="1.000000" stroke="none" 
	d="
M1220.531372,0.999992 
	C1219.774292,1.623006 1218.579834,2.707719 1217.317871,2.792867 
	C1210.042847,3.283704 1202.739380,3.369033 1195.468994,3.907184 
	C1179.308594,5.103366 1163.162964,6.500209 1147.009277,7.788583 
	C1133.781738,8.843575 1120.533447,9.676316 1107.327148,10.948451 
	C1095.605225,12.077600 1083.917969,13.595415 1072.234009,15.086937 
	C1057.756958,16.935005 1043.291260,18.875603 1028.835449,20.883656 
	C1016.849243,22.548653 1004.874756,24.304914 992.912842,26.136635 
	C976.196777,28.696352 959.481689,31.269339 942.796997,34.023151 
	C933.798706,35.508316 924.845276,37.287136 915.905212,39.098988 
	C894.114624,43.515213 872.281433,47.748516 850.581177,52.576015 
	C826.138916,58.013496 801.785156,63.864933 777.465149,69.830742 
	C758.112061,74.578125 738.811890,79.564278 719.590332,84.818077 
	C699.564453,90.291718 679.583984,95.960243 659.726196,102.011452 
	C640.668823,107.818741 621.726013,114.024353 602.855286,120.416481 
	C574.699524,129.953766 546.513977,139.433441 518.601135,149.648132 
	C496.805511,157.624237 475.347137,166.538147 453.847168,175.301086 
	C435.698486,182.698135 417.601440,190.241669 399.676910,198.162491 
	C385.712219,204.333435 372.085052,211.263824 358.243164,217.717865 
	C316.616638,237.127045 276.275269,259.020599 237.441864,283.428070 
	C208.526917,301.601593 180.704315,321.574921 152.992126,341.573792 
	C139.476135,351.327820 127.028183,362.644318 114.636444,373.850311 
	C102.303986,385.002716 90.124939,396.417389 78.820480,408.591644 
	C62.915863,425.719940 48.544571,444.169281 36.311066,464.165558 
	C22.248993,487.150757 11.168329,511.405334 5.408855,537.882202 
	C4.188562,543.492004 2.922985,549.091919 1.339134,554.848206 
	C1.000000,370.378845 1.000000,185.757721 1.000000,1.000000 
	C407.354248,1.000000 813.708496,1.000000 1220.531372,0.999992 
z"/>
<path fill="#000000" opacity="1.000000" stroke="none" 
	d="
M1921.000000,507.531342 
	C1920.380005,506.774323 1919.316284,505.586823 1919.207031,504.317200 
	C1917.742432,487.294403 1917.181030,470.154388 1914.860229,453.254303 
	C1911.633301,429.755066 1907.659546,406.324188 1903.010742,383.062805 
	C1896.776245,351.866791 1887.387207,321.529602 1875.307373,292.070496 
	C1860.482422,255.917175 1841.990479,221.794098 1817.659546,191.114182 
	C1807.265625,178.008102 1796.601929,164.953094 1784.743408,153.204666 
	C1758.619385,127.323036 1729.481079,105.220428 1697.439697,86.959328 
	C1654.252930,62.346203 1608.551392,43.902290 1560.398926,31.974672 
	C1530.782349,24.638475 1500.776123,18.727230 1470.747437,13.260641 
	C1453.001587,10.030104 1434.892822,8.692289 1416.906860,6.912410 
	C1400.092407,5.248469 1383.223999,4.130676 1366.380493,2.758278 
	C1362.354980,2.430279 1358.334106,2.045762 1354.155518,1.343619 
	C1542.923096,1.000000 1731.846069,1.000000 1921.000000,1.000000 
	C1921.000000,169.687485 1921.000000,338.375092 1921.000000,507.531342 
z"/>
<path fill="#000000" opacity="1.000000" stroke="none" 
	d="
M1382.468628,1081.000000 
	C1383.058838,1080.380371 1384.084839,1079.290039 1385.181396,1079.213623 
	C1396.437378,1078.429077 1407.721802,1078.017822 1418.964844,1077.094727 
	C1436.467163,1075.657471 1453.983154,1074.240234 1471.420776,1072.196411 
	C1491.502075,1069.842773 1511.705444,1067.818359 1531.494873,1063.850708 
	C1562.103394,1057.714111 1592.623779,1050.867188 1622.780029,1042.817505 
	C1656.770508,1033.744263 1689.238647,1020.325073 1720.439087,1003.957397 
	C1743.753784,991.726440 1765.699219,977.436707 1786.007202,960.667175 
	C1811.826172,939.346741 1833.919067,914.684021 1852.107056,886.561951 
	C1866.524292,864.270264 1878.109985,840.571167 1887.402466,815.702637 
	C1901.035156,779.218262 1909.350098,741.474365 1914.127441,702.928955 
	C1916.267700,685.660400 1917.471069,668.276184 1919.161011,650.950439 
	C1919.281250,649.716553 1919.908447,648.532104 1920.649902,647.162354 
	C1921.000000,791.601624 1921.000000,936.203308 1921.000000,1081.000000 
	C1741.645752,1081.000000 1562.291504,1081.000000 1382.468628,1081.000000 
z"/>
<path fill="#000000" opacity="1.000000" stroke="none" 
	d="
M1229.583374,0.999999 
	C1228.413330,1.210594 1226.826782,1.421191 1225.120117,1.315894 
	C1226.388916,1.000000 1227.777832,1.000000 1229.583374,0.999999 
z"/>
<path fill="#0071BC" opacity="1.000000" stroke="none" 
	d="
M1245.013306,22.776436 
	C1299.007568,20.807095 1352.424194,22.012686 1405.768433,26.599937 
	C1461.145142,31.361963 1515.783691,40.236046 1569.201294,55.849415 
	C1627.386230,72.856186 1681.968750,97.366508 1730.507446,134.236053 
	C1788.823242,178.532242 1830.057739,235.637665 1856.913696,303.431488 
	C1876.110596,351.891113 1887.093628,402.351410 1893.294189,453.971832 
	C1899.046753,501.863129 1900.862061,549.953735 1900.009155,598.122192 
	C1899.004761,654.845642 1894.589478,711.235535 1880.203613,766.418640 
	C1866.927124,817.346619 1845.703613,864.319336 1811.503906,904.869385 
	C1779.461060,942.862183 1739.913574,970.861084 1695.376709,992.235596 
	C1646.675781,1015.608704 1595.156006,1029.990356 1542.308594,1040.075317 
	C1495.781616,1048.954224 1448.798706,1054.631592 1401.537354,1056.813599 
	C1356.126831,1058.910156 1310.598877,1060.577393 1265.174561,1059.709473 
	C1210.920410,1058.672852 1156.660278,1055.618164 1102.514648,1051.835815 
	C1039.878052,1047.460205 977.564514,1039.643311 915.438721,1030.417358 
	C792.760010,1012.199158 671.638611,986.766968 552.534180,952.072754 
	C455.335480,923.759460 360.273102,889.725159 269.652283,844.159729 
	C218.777420,818.579163 170.013229,789.567566 125.921837,753.248291 
	C96.312225,728.858093 69.589760,701.785400 49.462616,668.801514 
	C31.654861,639.618530 21.048826,608.255432 21.945747,573.697754 
	C22.731693,543.415771 32.014973,515.475220 46.410084,489.082733 
	C66.441528,452.356445 93.735008,421.492859 124.325378,393.391449 
	C179.686676,342.534637 242.550201,302.512085 308.413727,266.949158 
	C395.531128,219.910172 486.714874,182.249069 580.222656,150.055649 
	C687.902405,112.983009 797.757568,83.986374 909.506104,62.165844 
	C968.185486,50.707844 1027.148682,40.760521 1086.653442,34.844227 
	C1134.029297,30.133863 1181.569336,27.068575 1229.041504,23.337986 
	C1234.182129,22.934013 1239.356812,22.962187 1245.013306,22.776436 
M750.354919,697.942383 
	C752.596680,696.635559 754.804810,695.266479 757.085571,694.031677 
	C777.539124,682.958496 798.363708,672.516785 818.387268,660.715515 
	C851.792847,641.027344 884.764282,620.550232 915.618286,596.975281 
	C939.451782,578.764587 963.187683,560.374512 986.143127,541.083801 
	C1002.485901,527.350037 1017.672302,512.204895 1032.965942,497.270844 
	C1042.442871,488.016724 1051.359009,478.160339 1060.155762,468.245056 
	C1070.200195,456.923462 1080.584473,445.783142 1089.462646,433.576111 
	C1101.893921,416.483643 1113.566040,398.782715 1124.627441,380.767700 
	C1133.616821,366.127167 1140.941406,350.478455 1145.050171,333.646851 
	C1147.743408,322.613098 1150.100220,311.467926 1151.948853,300.263947 
	C1154.907104,282.335419 1152.592529,264.997223 1145.121094,248.309433 
	C1136.855469,229.847687 1123.280151,215.696426 1107.744385,203.600739 
	C1084.941528,185.847198 1059.135376,173.399521 1031.701294,164.447617 
	C1000.386658,154.229492 968.055664,149.005005 935.359436,146.111008 
	C920.222351,144.771194 904.981445,144.392426 889.777466,144.097351 
	C880.022766,143.908020 870.247314,144.609344 860.485352,145.012466 
	C845.597656,145.627243 830.694641,146.053329 815.833496,147.074783 
	C801.904724,148.032166 787.986450,149.368942 774.128113,151.065781 
	C757.405334,153.113403 740.545105,154.760635 724.112244,158.292603 
	C696.283997,164.273819 668.426575,170.525833 641.158569,178.610626 
	C601.354492,190.412308 562.800720,205.788437 525.936768,225.070206 
	C515.924255,230.307266 506.268951,236.206909 498.625183,244.845703 
	C493.904083,250.181396 493.668579,256.031525 498.587097,261.049225 
	C509.590454,272.274323 523.680664,276.180664 538.555420,274.694794 
	C555.464783,273.005707 571.138611,266.079010 586.828918,259.649353 
	C601.860657,253.489563 617.160278,247.980804 632.382751,242.294525 
	C633.595703,241.841431 635.124878,242.234818 637.801025,242.234818 
	C625.604492,253.894180 613.967346,264.515564 602.892761,275.694244 
	C559.207458,319.789978 515.597534,363.961700 472.187866,408.328491 
	C459.583313,421.210999 447.654846,434.761383 435.569092,448.143463 
	C422.202972,462.943207 408.793549,477.713654 395.805511,492.842438 
	C382.535309,508.299957 369.588928,524.044128 356.800629,539.904480 
	C341.512573,558.865173 326.423309,577.989441 311.461243,597.208923 
	C285.707489,630.290771 261.320190,664.353699 238.867157,699.774353 
	C226.334305,719.545532 214.091736,739.481812 205.942581,761.597351 
	C202.385483,771.250671 200.877838,781.112061 207.201645,789.930969 
	C211.240051,795.562805 216.365417,800.805603 221.996506,804.834961 
	C242.575241,819.559875 266.742706,823.569153 291.096191,824.726379 
	C316.871826,825.951233 342.755463,825.307922 368.464417,821.980774 
	C379.980347,820.490417 391.708282,820.124512 403.033630,817.772888 
	C436.073242,810.912537 469.287048,804.514404 501.810181,795.651245 
	C533.231689,787.088257 564.141968,776.410339 594.787415,765.310242 
	C621.733765,755.550110 648.221375,744.422058 674.508789,732.973206 
	C699.810608,721.953491 724.596008,709.748352 750.354919,697.942383 
M1233.159668,487.659515 
	C1205.502808,513.426208 1177.403564,538.737366 1150.294800,565.068298 
	C1111.322998,602.922119 1074.686401,643.020264 1039.433472,684.361267 
	C1027.441040,698.424683 1015.490051,712.594727 1007.781921,729.644531 
	C1001.680908,743.139648 1003.624146,753.669922 1013.928284,764.299072 
	C1026.718506,777.492981 1042.572144,784.128235 1060.728027,784.943298 
	C1093.303711,786.405518 1125.080933,780.521423 1156.630249,773.404236 
	C1215.351562,760.157532 1273.434814,743.657715 1333.566406,737.573425 
	C1365.015991,734.391235 1396.559692,731.673950 1428.128296,730.317261 
	C1446.002808,729.549011 1464.003784,732.267151 1481.966309,732.847900 
	C1498.549316,733.384033 1514.097534,729.543213 1527.266235,718.855103 
	C1536.417725,711.427551 1537.186890,699.589294 1528.460571,691.937561 
	C1523.990967,688.018555 1518.214111,685.051941 1512.526978,683.166199 
	C1498.321289,678.455750 1483.437378,677.896729 1468.581421,677.838989 
	C1424.690186,677.668396 1381.028198,681.534180 1337.633789,687.387268 
	C1272.985962,696.107056 1208.524658,706.208984 1143.984009,715.723083 
	C1138.718872,716.499207 1133.454102,717.278381 1128.189209,718.056091 
	C1127.939575,717.661682 1127.689819,717.267273 1127.440186,716.872925 
	C1134.731079,705.973755 1141.702881,694.844543 1149.368774,684.215881 
	C1180.279419,641.359131 1216.543213,603.251099 1254.494507,566.679138 
	C1309.716187,513.464172 1367.315063,462.873047 1428.186768,416.300049 
	C1488.616821,370.065033 1550.458740,325.663116 1612.025269,280.930359 
	C1650.414551,253.037567 1689.592773,226.231796 1728.059204,198.443054 
	C1736.177246,192.578491 1743.261108,185.008270 1749.841187,177.378555 
	C1754.842285,171.579773 1753.531860,165.854568 1747.776245,160.688202 
	C1745.930664,159.031555 1743.887817,157.518646 1741.734131,156.293594 
	C1729.361206,149.255219 1715.950928,147.686722 1702.105957,149.524750 
	C1680.790771,152.354446 1662.145508,161.919037 1644.666870,173.749908 
	C1613.509644,194.839676 1582.221558,215.773682 1551.713135,237.777969 
	C1442.367676,316.643616 1336.651489,400.168152 1233.159668,487.659515 
z"/>
<path fill="#FFFFFF" opacity="1.000000" stroke="none" 
	d="
M749.981628,698.003174 
	C724.596008,709.748352 699.810608,721.953491 674.508789,732.973206 
	C648.221375,744.422058 621.733765,755.550110 594.787415,765.310242 
	C564.141968,776.410339 533.231689,787.088257 501.810181,795.651245 
	C469.287048,804.514404 436.073242,810.912537 403.033630,817.772888 
	C391.708282,820.124512 379.980347,820.490417 368.464417,821.980774 
	C342.755463,825.307922 316.871826,825.951233 291.096191,824.726379 
	C266.742706,823.569153 242.575241,819.559875 221.996506,804.834961 
	C216.365417,800.805603 211.240051,795.562805 207.201645,789.930969 
	C200.877838,781.112061 202.385483,771.250671 205.942581,761.597351 
	C214.091736,739.481812 226.334305,719.545532 238.867157,699.774353 
	C261.320190,664.353699 285.707489,630.290771 311.461243,597.208923 
	C326.423309,577.989441 341.512573,558.865173 356.800629,539.904480 
	C369.588928,524.044128 382.535309,508.299957 395.805511,492.842438 
	C408.793549,477.713654 422.202972,462.943207 435.569092,448.143463 
	C447.654846,434.761383 459.583313,421.210999 472.187866,408.328491 
	C515.597534,363.961700 559.207458,319.789978 602.892761,275.694244 
	C613.967346,264.515564 625.604492,253.894180 637.801025,242.234818 
	C635.124878,242.234818 633.595703,241.841431 632.382751,242.294525 
	C617.160278,247.980804 601.860657,253.489563 586.828918,259.649353 
	C571.138611,266.079010 555.464783,273.005707 538.555420,274.694794 
	C523.680664,276.180664 509.590454,272.274323 498.587097,261.049225 
	C493.668579,256.031525 493.904083,250.181396 498.625183,244.845703 
	C506.268951,236.206909 515.924255,230.307266 525.936768,225.070206 
	C562.800720,205.788437 601.354492,190.412308 641.158569,178.610626 
	C668.426575,170.525833 696.283997,164.273819 724.112244,158.292603 
	C740.545105,154.760635 757.405334,153.113403 774.128113,151.065781 
	C787.986450,149.368942 801.904724,148.032166 815.833496,147.074783 
	C830.694641,146.053329 845.597656,145.627243 860.485352,145.012466 
	C870.247314,144.609344 880.022766,143.908020 889.777466,144.097351 
	C904.981445,144.392426 920.222351,144.771194 935.359436,146.111008 
	C968.055664,149.005005 1000.386658,154.229492 1031.701294,164.447617 
	C1059.135376,173.399521 1084.941528,185.847198 1107.744385,203.600739 
	C1123.280151,215.696426 1136.855469,229.847687 1145.121094,248.309433 
	C1152.592529,264.997223 1154.907104,282.335419 1151.948853,300.263947 
	C1150.100220,311.467926 1147.743408,322.613098 1145.050171,333.646851 
	C1140.941406,350.478455 1133.616821,366.127167 1124.627441,380.767700 
	C1113.566040,398.782715 1101.893921,416.483643 1089.462646,433.576111 
	C1080.584473,445.783142 1070.200195,456.923462 1060.155762,468.245056 
	C1051.359009,478.160339 1042.442871,488.016724 1032.965942,497.270844 
	C1017.672302,512.204895 1002.485901,527.350037 986.143127,541.083801 
	C963.187683,560.374512 939.451782,578.764587 915.618286,596.975281 
	C884.764282,620.550232 851.792847,641.027344 818.387268,660.715515 
	C798.363708,672.516785 777.539124,682.958496 757.085571,694.031677 
	C754.804810,695.266479 752.596680,696.635559 749.981628,698.003174 
M668.446899,322.946838 
	C649.916199,341.809845 631.291504,360.581726 612.886536,379.566589 
	C599.736816,393.130585 586.809509,406.912750 573.917786,420.723450 
	C563.104553,432.307434 552.226379,443.847382 541.832642,455.803009 
	C514.840942,486.850525 487.572693,517.680725 461.384308,549.398071 
	C423.205353,595.637512 385.865051,642.598389 353.008942,692.849487 
	C343.035919,708.102600 333.912354,724.147583 326.471405,740.757935 
	C317.868805,759.961487 325.432526,770.933655 346.439301,773.101868 
	C366.028870,775.123718 385.359039,772.588745 404.583038,769.373474 
	C448.890289,761.962891 491.575500,748.591919 533.648376,733.206787 
	C598.523865,709.483276 659.692932,678.103333 718.794678,642.570801 
	C775.397156,608.540955 830.506042,572.368530 881.527954,530.198242 
	C913.110168,504.095154 943.221497,476.476440 970.210144,445.673431 
	C985.361389,428.380737 999.889038,410.418610 1013.306519,391.757782 
	C1035.249878,361.239349 1052.871948,328.520996 1057.383423,290.289459 
	C1061.306396,257.042725 1050.555542,231.026657 1019.397644,214.348907 
	C998.728943,203.285736 976.158386,198.750244 953.180603,196.189148 
	C918.974976,192.376602 884.642944,192.591904 850.520874,196.484344 
	C821.458435,199.799622 792.573059,204.757233 763.680603,209.429138 
	C751.671082,211.371063 739.846741,214.458298 727.938232,217.024719 
	C730.936157,218.873718 734.028992,219.604874 736.825134,220.951981 
	C741.240662,223.079300 745.609680,225.384872 749.715454,228.050705 
	C753.963928,230.809082 754.335083,234.647049 751.136414,238.546127 
	C746.334351,244.399719 741.709351,250.450836 736.422791,255.843246 
	C726.772400,265.686859 716.625366,275.041351 706.808350,284.724365 
	C694.124878,297.234650 681.561829,309.867035 668.446899,322.946838 
z"/>
<path fill="#FEFEFF" opacity="1.000000" stroke="none" 
	d="
M1233.422485,487.421875 
	C1336.651489,400.168152 1442.367676,316.643616 1551.713135,237.777969 
	C1582.221558,215.773682 1613.509644,194.839676 1644.666870,173.749908 
	C1662.145508,161.919037 1680.790771,152.354446 1702.105957,149.524750 
	C1715.950928,147.686722 1729.361206,149.255219 1741.734131,156.293594 
	C1743.887817,157.518646 1745.930664,159.031555 1747.776245,160.688202 
	C1753.531860,165.854568 1754.842285,171.579773 1749.841187,177.378555 
	C1743.261108,185.008270 1736.177246,192.578491 1728.059204,198.443054 
	C1689.592773,226.231796 1650.414551,253.037567 1612.025269,280.930359 
	C1550.458740,325.663116 1488.616821,370.065033 1428.186768,416.300049 
	C1367.315063,462.873047 1309.716187,513.464172 1254.494507,566.679138 
	C1216.543213,603.251099 1180.279419,641.359131 1149.368774,684.215881 
	C1141.702881,694.844543 1134.731079,705.973755 1127.440186,716.872925 
	C1127.689819,717.267273 1127.939575,717.661682 1128.189209,718.056091 
	C1133.454102,717.278381 1138.718872,716.499207 1143.984009,715.723083 
	C1208.524658,706.208984 1272.985962,696.107056 1337.633789,687.387268 
	C1381.028198,681.534180 1424.690186,677.668396 1468.581421,677.838989 
	C1483.437378,677.896729 1498.321289,678.455750 1512.526978,683.166199 
	C1518.214111,685.051941 1523.990967,688.018555 1528.460571,691.937561 
	C1537.186890,699.589294 1536.417725,711.427551 1527.266235,718.855103 
	C1514.097534,729.543213 1498.549316,733.384033 1481.966309,732.847900 
	C1464.003784,732.267151 1446.002808,729.549011 1428.128296,730.317261 
	C1396.559692,731.673950 1365.015991,734.391235 1333.566406,737.573425 
	C1273.434814,743.657715 1215.351562,760.157532 1156.630249,773.404236 
	C1125.080933,780.521423 1093.303711,786.405518 1060.728027,784.943298 
	C1042.572144,784.128235 1026.718506,777.492981 1013.928284,764.299072 
	C1003.624146,753.669922 1001.680908,743.139648 1007.781921,729.644531 
	C1015.490051,712.594727 1027.441040,698.424683 1039.433472,684.361267 
	C1074.686401,643.020264 1111.322998,602.922119 1150.294800,565.068298 
	C1177.403564,538.737366 1205.502808,513.426208 1233.422485,487.421875 
z"/>
<path fill="#0071BC" opacity="1.000000" stroke="none" 
	d="
M668.696899,322.696838 
	C681.561829,309.867035 694.124878,297.234650 706.808350,284.724365 
	C716.625366,275.041351 726.772400,265.686859 736.422791,255.843246 
	C741.709351,250.450836 746.334351,244.399719 751.136414,238.546127 
	C754.335083,234.647049 753.963928,230.809082 749.715454,228.050705 
	C745.609680,225.384872 741.240662,223.079300 736.825134,220.951981 
	C734.028992,219.604874 730.936157,218.873718 727.938232,217.024719 
	C739.846741,214.458298 751.671082,211.371063 763.680603,209.429138 
	C792.573059,204.757233 821.458435,199.799622 850.520874,196.484344 
	C884.642944,192.591904 918.974976,192.376602 953.180603,196.189148 
	C976.158386,198.750244 998.728943,203.285736 1019.397644,214.348907 
	C1050.555542,231.026657 1061.306396,257.042725 1057.383423,290.289459 
	C1052.871948,328.520996 1035.249878,361.239349 1013.306519,391.757782 
	C999.889038,410.418610 985.361389,428.380737 970.210144,445.673431 
	C943.221497,476.476440 913.110168,504.095154 881.527954,530.198242 
	C830.506042,572.368530 775.397156,608.540955 718.794678,642.570801 
	C659.692932,678.103333 598.523865,709.483276 533.648376,733.206787 
	C491.575500,748.591919 448.890289,761.962891 404.583038,769.373474 
	C385.359039,772.588745 366.028870,775.123718 346.439301,773.101868 
	C325.432526,770.933655 317.868805,759.961487 326.471405,740.757935 
	C333.912354,724.147583 343.035919,708.102600 353.008942,692.849487 
	C385.865051,642.598389 423.205353,595.637512 461.384308,549.398071 
	C487.572693,517.680725 514.840942,486.850525 541.832642,455.803009 
	C552.226379,443.847382 563.104553,432.307434 573.917786,420.723450 
	C586.809509,406.912750 599.736816,393.130585 612.886536,379.566589 
	C631.291504,360.581726 649.916199,341.809845 668.696899,322.696838 
z"/>
</svg>