<?xml version="1.0" encoding="UTF-8" standalone="no"?>
<svg
   version="1.1"
   id="Layer_1"
   x="0px"
   y="0px"
   width="100%"
   viewBox="0 0 1920 1080"
   enable-background="new 0 0 1920 1080"
   xml:space="preserve"
   sodipodi:docname="newestLogo.svg"
   inkscape:export-filename="newestLogo.svg"
   inkscape:export-xdpi="96"
   inkscape:export-ydpi="96"
   inkscape:version="1.3.2 (091e20e, 2023-11-25, custom)"
   xmlns:inkscape="http://www.inkscape.org/namespaces/inkscape"
   xmlns:sodipodi="http://sodipodi.sourceforge.net/DTD/sodipodi-0.dtd"
   xmlns="http://www.w3.org/2000/svg"
   xmlns:svg="http://www.w3.org/2000/svg"><defs
   id="defs5" /><sodipodi:namedview
   id="namedview5"
   pagecolor="#ffffff"
   bordercolor="#000000"
   borderopacity="0.25"
   inkscape:showpageshadow="2"
   inkscape:pageopacity="0.0"
   inkscape:pagecheckerboard="0"
   inkscape:deskcolor="#d1d1d1"
   inkscape:zoom="0.73072917"
   inkscape:cx="959.31575"
   inkscape:cy="539.8717"
   inkscape:window-width="1920"
   inkscape:window-height="1009"
   inkscape:window-x="-8"
   inkscape:window-y="-8"
   inkscape:window-maximized="1"
   inkscape:current-layer="Layer_1" />
<path
   fill="#FFFFFF"
   opacity="1.000000"
   stroke="none"
   d=" M1266.000000,1081.000000   C844.000061,1081.000000 422.500153,1081.000000 1.000170,1081.000000   C1.000113,721.000122 1.000113,361.000275 1.000057,1.000315   C640.999756,1.000210 1280.999512,1.000210 1920.999512,1.000105   C1920.999634,360.999664 1920.999634,720.999329 1920.999756,1080.999512   C1702.833374,1081.000000 1484.666626,1081.000000 1266.000000,1081.000000  M1744.667725,21.875383   C1738.350708,21.583485 1732.033813,21.036499 1725.716797,21.036007   C1219.391357,20.996506 713.065796,20.964106 206.740356,21.050270   C151.153900,21.059729 104.213989,41.941223 66.663887,82.713768   C33.756306,118.445389 17.069632,161.109344 17.046568,209.809830   C16.940252,434.306305 16.922752,658.802917 17.054199,883.299316   C17.086744,938.883667 37.961887,985.819946 78.740341,1023.360901   C114.476532,1056.259888 157.143997,1072.948853 205.841492,1072.955688   C712.333679,1073.027588 1218.825806,1073.037964 1725.317993,1072.946167   C1780.894287,1072.936157 1827.828369,1052.030396 1865.364502,1011.255554   C1898.263550,975.517944 1914.931274,932.846985 1914.953979,884.149353   C1915.058960,659.652832 1915.090942,435.156281 1914.935913,210.659866   C1914.897339,154.707596 1893.662720,107.668633 1852.509155,69.930634   C1822.279419,42.210011 1786.382446,26.443167 1744.667725,21.875383  z"
   id="path1" />
<path
   fill="#000001"
   opacity="1.000000"
   stroke="none"
   d=" M1745.117432,21.933136   C1786.382446,26.443167 1822.279419,42.210011 1852.509155,69.930634   C1893.662720,107.668633 1914.897339,154.707596 1914.935913,210.659866   C1915.090942,435.156281 1915.058960,659.652832 1914.953979,884.149353   C1914.931274,932.846985 1898.263550,975.517944 1865.364502,1011.255554   C1827.828369,1052.030396 1780.894287,1072.936157 1725.317993,1072.946167   C1218.825806,1073.037964 712.333679,1073.027588 205.841492,1072.955688   C157.143997,1072.948853 114.476532,1056.259888 78.740341,1023.360901   C37.961887,985.819946 17.086744,938.883667 17.054199,883.299316   C16.922752,658.802917 16.940252,434.306305 17.046568,209.809830   C17.069632,161.109344 33.756306,118.445389 66.663887,82.713768   C104.213989,41.941223 151.153900,21.059729 206.740356,21.050270   C713.065796,20.964106 1219.391357,20.996506 1725.716797,21.036007   C1732.033813,21.036499 1738.350708,21.583485 1745.117432,21.933136  M1790.327148,55.107647   C1767.884155,45.680176 1744.403320,41.975414 1720.163452,41.976986   C1217.357422,42.009552 714.551453,41.996387 211.745422,42.047787   C203.764648,42.048603 195.714157,42.196014 187.814438,43.202740   C134.539215,49.992031 93.202850,76.129539 64.017151,121.096123   C45.440796,149.716843 37.950562,181.562088 37.962330,215.501984   C38.038723,435.823303 37.994724,656.144653 38.034187,876.466003   C38.035381,883.117432 38.258987,889.790955 38.820972,896.416687   C43.288853,949.092896 67.551750,990.653320 110.217514,1021.380615   C140.269104,1043.023438 174.368896,1052.069702 211.208984,1052.035889   C322.202850,1051.934204 433.196899,1051.999268 544.190857,1051.999268   C936.002869,1051.999268 1327.814941,1051.978394 1719.626953,1052.041992   C1748.572144,1052.046753 1776.498779,1047.310059 1801.992920,1033.314819   C1862.659302,1000.011230 1893.791016,948.341064 1893.886108,879.134094   C1894.190186,657.646545 1893.999268,436.158356 1893.998413,214.670395   C1893.998413,198.625336 1892.538208,182.731033 1888.150391,167.255966   C1873.280396,114.810631 1840.608398,77.753601 1790.327148,55.107647  z"
   id="path2" />
<path
   fill="#0071BC"
   opacity="1.000000"
   stroke="none"
   d=" M1790.678223,55.260597   C1840.608398,77.753601 1873.280396,114.810631 1888.150391,167.255966   C1892.538208,182.731033 1893.998413,198.625336 1893.998413,214.670395   C1893.999268,436.158356 1894.190186,657.646545 1893.886108,879.134094   C1893.791016,948.341064 1862.659302,1000.011230 1801.992920,1033.314819   C1776.498779,1047.310059 1748.572144,1052.046753 1719.626953,1052.041992   C1327.814941,1051.978394 936.002869,1051.999268 544.190857,1051.999268   C433.196899,1051.999268 322.202850,1051.934204 211.208984,1052.035889   C174.368896,1052.069702 140.269104,1043.023438 110.217514,1021.380615   C67.551750,990.653320 43.288853,949.092896 38.820972,896.416687   C38.258987,889.790955 38.035381,883.117432 38.034187,876.466003   C37.994724,656.144653 38.038723,435.823303 37.962330,215.501984   C37.950562,181.562088 45.440796,149.716843 64.017151,121.096123   C93.202850,76.129539 134.539215,49.992031 187.814438,43.202740   C195.714157,42.196014 203.764648,42.048603 211.745422,42.047787   C714.551453,41.996387 1217.357422,42.009552 1720.163452,41.976986   C1744.403320,41.975414 1767.884155,45.680176 1790.678223,55.260597  M389.617889,1025.061523   C432.570862,1016.105652 475.629791,1007.956055 517.377991,993.650024   C548.450867,983.002197 580.526428,975.255188 612.221375,966.453613   C665.249390,951.728088 716.111450,931.312256 765.955505,908.223145   C802.649353,891.225647 839.048706,873.639832 872.735352,851.026062   C877.982422,847.503723 883.783508,844.265686 887.769897,839.572388   C891.139465,835.605286 894.683960,834.709778 899.172241,833.944092   C907.693726,832.490417 916.206726,829.711792 921.001831,822.252869   C924.286133,817.144043 928.636780,814.343628 933.340393,811.406006   C935.315125,810.172791 937.230225,808.839600 939.130371,807.492615   C949.315979,800.272400 959.496582,793.045227 969.661987,785.796753   C975.741882,781.461487 981.980957,777.318298 987.779236,772.631897   C991.048706,769.989380 993.569092,766.420288 996.752625,762.909302   C994.568481,761.835388 993.298645,761.210938 992.028748,760.586548   C996.598816,758.908020 1001.190247,758.552917 1005.705383,757.762085   C1007.821289,757.391479 1010.289795,756.693787 1011.750244,755.272644   C1032.666016,734.918579 1052.493042,713.559998 1070.139038,690.272156   C1089.030518,665.340698 1106.094116,639.222778 1114.233765,608.663574   C1117.632568,595.902832 1122.688599,584.312683 1129.429077,573.206604   C1131.241333,570.220642 1132.920532,567.152039 1134.603882,564.090027   C1140.668457,553.057800 1146.708618,542.012085 1152.779541,530.932068   C1144.331421,527.576477 1142.783813,521.130310 1148.481079,514.384033   C1149.015747,513.751099 1149.773315,513.279602 1150.208984,512.594360   C1152.479736,509.022247 1155.548218,505.658447 1156.690674,501.741394   C1158.204834,496.550140 1158.765625,490.912201 1158.745361,485.469910   C1158.628784,454.120636 1152.032104,423.893127 1140.203491,395.073120   C1126.945801,362.771484 1103.984985,337.399536 1077.843750,315.005249   C1006.388428,253.791855 924.189819,212.560715 834.060059,187.138763   C800.175964,177.581421 765.379639,171.277618 731.044434,163.295670   C687.457642,153.162964 643.398193,146.391098 598.597107,146.298264   C559.801086,146.217865 520.978699,146.661789 482.211487,148.070984   C439.763733,149.613968 397.507324,153.946320 355.780304,162.189606   C345.744232,164.172256 336.018036,167.814514 326.241791,170.979218   C321.899841,172.384766 320.443848,175.640411 320.938782,180.391006   C322.073639,191.284134 327.075043,200.040894 336.289612,205.346985   C361.063538,219.612717 387.102509,230.153412 416.535553,228.735596   C417.682373,228.680359 418.898987,228.733994 419.989655,229.054565   C434.299713,233.260742 448.783783,232.326233 463.053192,229.556137   C473.275604,227.571701 481.750549,232.295334 491.323059,233.929016   C488.796326,240.687485 486.195953,246.656830 484.328613,252.847260   C480.678162,264.948700 474.569244,275.614563 467.281494,285.874084   C458.128021,298.760101 449.821869,312.244202 440.909393,325.306000   C421.703430,353.453552 406.114594,383.812744 386.201050,411.631989   C367.754181,437.402252 352.319641,465.357697 336.001770,492.616150   C312.848938,531.292175 294.599762,572.580383 271.637115,611.473816   C228.589554,684.386230 189.556564,759.544189 155.429260,837.132690   C152.359680,844.111450 150.053024,851.436462 147.584793,858.666443   C143.645721,870.205200 148.587738,880.195679 153.527649,890.072266   C154.175598,891.367676 155.971725,892.367188 157.453812,892.921448   C166.470718,896.293640 175.381195,900.130005 184.648483,902.611694   C199.297287,906.534546 214.227020,909.480408 229.535660,906.937256   C232.006943,906.526733 234.461075,905.136536 236.578323,903.693359   C239.213623,901.897217 241.230072,898.276367 243.971725,897.726257   C251.959229,896.123779 254.932495,890.161011 257.738525,883.943604   C265.261139,867.275757 272.628967,850.537354 279.956085,833.782349   C282.473480,828.025818 285.356354,822.310730 286.924469,816.278320   C293.198914,792.140930 298.619415,767.777344 305.126373,743.705750   C311.551514,719.936890 320.675964,697.173584 337.511688,678.640198   C344.184845,671.294067 349.311676,663.359375 353.852020,654.645447   C360.763855,641.379883 368.676697,628.639954 375.952362,615.558838   C387.183624,595.365967 397.442719,574.586426 409.520935,554.919739   C438.873871,507.124634 468.634369,459.568115 498.981110,412.398285   C532.480347,360.328400 566.636047,308.676910 600.924744,257.121826   C608.735291,245.378281 618.223572,234.745117 627.022278,223.666534   C631.816895,217.629608 637.957764,214.729019 645.847961,215.875473   C652.923767,216.903610 660.101562,217.315536 667.127319,218.589340   C718.565063,227.915314 769.160217,240.763336 819.425659,255.032974   C880.931580,272.493591 935.850830,302.058472 984.002319,344.085266   C1010.722107,367.406433 1030.236572,395.446259 1038.751221,430.369751   C1045.812988,459.334167 1045.409302,488.403687 1040.058838,517.590088   C1034.275879,549.136169 1024.441406,578.942322 1006.249207,605.856018   C988.197021,632.562683 968.222229,657.672180 946.836060,681.704407   C930.779236,699.747864 914.623901,717.728760 894.735168,731.811523   C893.976807,732.348572 893.275757,733.157654 892.888489,733.997009   C890.182983,739.860962 886.751160,745.550110 885.118896,751.710449   C882.813354,760.411926 876.574036,763.961731 869.441650,767.947266   C835.025085,787.179199 800.901550,806.935486 766.666382,826.492310   C765.226990,827.314575 763.789429,828.339478 762.219666,828.703064   C747.357971,832.145508 733.119751,836.981812 718.832275,842.667664   C659.372131,866.330261 599.331116,888.533630 539.499573,911.262573   C514.181885,920.880371 489.216370,931.609375 463.447144,939.810852   C425.497833,951.888855 386.127747,958.095520 346.845062,964.295105   C298.838867,971.871338 250.632370,975.853699 202.080383,970.953369   C172.384048,967.956116 144.509628,959.434631 119.422920,942.545288   C111.334854,937.099976 102.562843,932.341248 93.512962,928.762207   C86.745071,926.085693 79.044975,924.803650 71.731743,924.688110   C59.940250,924.501770 55.004860,931.602112 57.505562,943.149841   C59.662189,953.108582 65.390472,961.030518 72.019081,968.393555   C87.235588,985.296326 106.212921,997.530212 124.918404,1009.937744   C133.125748,1015.381836 142.280365,1020.219604 151.697876,1022.871643   C187.616623,1032.986816 224.605698,1036.713135 261.756012,1037.585449   C281.171844,1038.041382 300.731384,1036.665039 320.077972,1034.676025   C343.057495,1032.313477 365.877899,1028.402832 389.617889,1025.061523  M1548.339722,962.853760   C1577.810425,959.815979 1607.385620,957.549377 1636.728149,953.566895   C1685.692017,946.921265 1734.572266,939.583130 1783.352417,931.699219   C1803.166626,928.496765 1822.721802,923.478455 1842.207642,918.546570   C1852.099731,916.042847 1853.319214,911.845825 1848.772339,902.541626   C1848.191528,901.353027 1847.480347,900.206055 1846.686523,899.147034   C1839.706787,889.836731 1831.102905,882.557800 1819.602051,879.812134   C1809.760864,877.462708 1799.793945,875.117371 1789.753052,874.220642   C1752.185791,870.865662 1714.989014,875.103271 1677.822754,880.345093   C1640.756714,885.572815 1603.690186,891.152222 1566.442261,894.635376   C1527.525879,898.274536 1488.414917,900.167053 1449.344482,901.665771   C1432.818237,902.299744 1416.105591,900.629517 1399.614258,898.784546   C1387.141724,897.389160 1376.650635,891.715515 1370.301758,879.747253   C1353.950073,848.922729 1359.971924,805.941528 1384.452393,780.912720   C1385.957397,779.374023 1387.457153,777.728394 1388.495483,775.872925   C1389.134277,774.731567 1388.891113,773.096741 1389.044067,771.683472   C1387.668823,771.594604 1386.229980,771.213440 1384.935547,771.495667   C1383.516724,771.805115 1382.291016,773.049316 1380.874878,773.310547   C1378.359741,773.774414 1375.764526,773.804077 1373.202881,774.015442   C1372.825928,773.331543 1372.448853,772.647705 1372.071899,771.963867   C1375.580688,767.712585 1378.915405,763.300171 1382.653931,759.261597   C1385.578491,756.102539 1389.276611,753.654114 1392.162476,750.465820   C1412.351440,728.162537 1427.407471,702.565063 1439.978760,675.392090   C1440.949463,673.293945 1441.891235,671.074646 1443.343140,669.323547   C1460.081177,649.136353 1474.398438,627.349670 1487.347168,604.563232   C1493.147705,594.356140 1500.243408,584.889587 1506.620850,575.002808   C1508.225342,572.515198 1510.358643,569.742981 1510.462280,567.033264   C1510.744873,559.646362 1515.317261,555.003967 1519.651855,550.039429   C1520.856323,548.659912 1522.013672,547.234436 1523.120728,545.775574   C1544.059814,518.183228 1564.753296,490.400330 1585.996948,463.044617   C1601.410767,443.195984 1616.764038,423.200287 1636.467285,407.178375   C1637.320312,406.484772 1637.854248,405.374023 1638.466553,404.412842   C1642.212891,398.531921 1645.218628,391.996490 1649.794922,386.858154   C1671.050903,362.991028 1692.744507,339.513519 1714.271362,315.887512   C1718.734009,310.989838 1723.131714,306.033081 1727.600464,301.141083   C1731.123779,297.284058 1734.110352,292.556519 1738.364136,289.807343   C1770.495361,269.040741 1800.475830,245.586334 1828.140747,219.185745   C1835.271118,212.381271 1835.075317,209.829102 1828.021240,202.972717   C1826.352661,201.350876 1824.663818,199.650040 1822.701416,198.447067   C1811.226562,191.412796 1799.666138,184.518585 1788.137695,177.571655   C1771.169189,167.346588 1753.435791,167.522354 1735.296143,173.757965   C1716.426025,180.244720 1699.774780,191.047226 1685.024780,203.867294   C1665.081543,221.201309 1645.974976,239.686432 1628.005249,259.064758   C1586.567627,303.750366 1545.760376,349.030640 1505.252197,394.563324   C1486.669189,415.451355 1469.373901,437.486053 1451.558105,459.053314   C1449.988525,460.953430 1448.089355,463.110718 1447.712280,465.376434   C1445.888916,476.329712 1439.018433,484.230255 1432.334961,492.327332   C1426.427612,499.484100 1419.797729,506.211792 1414.927490,514.026733   C1398.670044,540.113708 1381.044800,565.283813 1367.259399,593.013855   C1356.721802,614.210693 1342.940063,633.878784 1329.695312,653.619019   C1319.316162,669.088135 1308.586304,684.283142 1300.268799,700.998291   C1298.650513,704.250427 1297.091553,707.702942 1296.474854,711.232483   C1295.906860,714.483276 1294.362305,715.889954 1291.490967,716.458008   C1289.536865,716.844543 1287.578857,717.286438 1285.601074,717.462158   C1281.548706,717.822327 1279.200317,720.136597 1278.262329,723.864258   C1277.616577,726.430481 1277.067017,729.104065 1277.055176,731.732239   C1276.998535,744.219482 1268.967651,754.000122 1265.716431,765.422058   C1264.114868,771.048706 1259.935547,775.905579 1258.036743,781.489563   C1248.509277,809.506287 1246.204712,838.493591 1248.550781,867.759399   C1249.444946,878.915222 1252.375854,889.999084 1255.360474,900.845642   C1256.385010,904.568726 1259.781372,908.562256 1263.191895,910.488770   C1268.284058,913.365173 1272.819214,916.087646 1274.909424,921.849731   C1275.288696,922.895447 1276.423584,923.937927 1277.469238,924.430603   C1293.258423,931.869019 1308.994507,939.433594 1324.953735,946.492310   C1333.137207,950.111755 1341.529907,953.697327 1350.198120,955.679565   C1363.471924,958.714905 1377.059692,960.387817 1390.524658,962.574097   C1414.902588,966.532043 1439.398315,968.890564 1464.130737,967.550964   C1491.889893,966.047424 1519.644653,964.458496 1548.339722,962.853760  z"
   id="path3" />
<path
   fill="#FEFFFF"
   opacity="1.000000"
   stroke="none"
   d=" M389.192566,1025.112305   C365.877899,1028.402832 343.057495,1032.313477 320.077972,1034.676025   C300.731384,1036.665039 281.171844,1038.041382 261.756012,1037.585449   C224.605698,1036.713135 187.616623,1032.986816 151.697876,1022.871643   C142.280365,1020.219604 133.125748,1015.381836 124.918404,1009.937744   C106.212921,997.530212 87.235588,985.296326 72.019081,968.393555   C65.390472,961.030518 59.662189,953.108582 57.505562,943.149841   C55.004860,931.602112 59.940250,924.501770 71.731743,924.688110   C79.044975,924.803650 86.745071,926.085693 93.512962,928.762207   C102.562843,932.341248 111.334854,937.099976 119.422920,942.545288   C144.509628,959.434631 172.384048,967.956116 202.080383,970.953369   C250.632370,975.853699 298.838867,971.871338 346.845062,964.295105   C386.127747,958.095520 425.497833,951.888855 463.447144,939.810852   C489.216370,931.609375 514.181885,920.880371 539.499573,911.262573   C599.331116,888.533630 659.372131,866.330261 718.832275,842.667664   C733.119751,836.981812 747.357971,832.145508 762.219666,828.703064   C763.789429,828.339478 765.226990,827.314575 766.666382,826.492310   C800.901550,806.935486 835.025085,787.179199 869.441650,767.947266   C876.574036,763.961731 882.813354,760.411926 885.118896,751.710449   C886.751160,745.550110 890.182983,739.860962 892.888489,733.997009   C893.275757,733.157654 893.976807,732.348572 894.735168,731.811523   C914.623901,717.728760 930.779236,699.747864 946.836060,681.704407   C968.222229,657.672180 988.197021,632.562683 1006.249207,605.856018   C1024.441406,578.942322 1034.275879,549.136169 1040.058838,517.590088   C1045.409302,488.403687 1045.812988,459.334167 1038.751221,430.369751   C1030.236572,395.446259 1010.722107,367.406433 984.002319,344.085266   C935.850830,302.058472 880.931580,272.493591 819.425659,255.032974   C769.160217,240.763336 718.565063,227.915314 667.127319,218.589340   C660.101562,217.315536 652.923767,216.903610 645.847961,215.875473   C637.957764,214.729019 631.816895,217.629608 627.022278,223.666534   C618.223572,234.745117 608.735291,245.378281 600.924744,257.121826   C566.636047,308.676910 532.480347,360.328400 498.981110,412.398285   C468.634369,459.568115 438.873871,507.124634 409.520935,554.919739   C397.442719,574.586426 387.183624,595.365967 375.952362,615.558838   C368.676697,628.639954 360.763855,641.379883 353.852020,654.645447   C349.311676,663.359375 344.184845,671.294067 337.511688,678.640198   C320.675964,697.173584 311.551514,719.936890 305.126373,743.705750   C298.619415,767.777344 293.198914,792.140930 286.924469,816.278320   C285.356354,822.310730 282.473480,828.025818 279.956085,833.782349   C272.628967,850.537354 265.261139,867.275757 257.738525,883.943604   C254.932495,890.161011 251.959229,896.123779 243.971725,897.726257   C241.230072,898.276367 239.213623,901.897217 236.578323,903.693359   C234.461075,905.136536 232.006943,906.526733 229.535660,906.937256   C214.227020,909.480408 199.297287,906.534546 184.648483,902.611694   C175.381195,900.130005 166.470718,896.293640 157.453812,892.921448   C155.971725,892.367188 154.175598,891.367676 153.527649,890.072266   C148.587738,880.195679 143.645721,870.205200 147.584793,858.666443   C150.053024,851.436462 152.359680,844.111450 155.429260,837.132690   C189.556564,759.544189 228.589554,684.386230 271.637115,611.473816   C294.599762,572.580383 312.848938,531.292175 336.001770,492.616150   C352.319641,465.357697 367.754181,437.402252 386.201050,411.631989   C406.114594,383.812744 421.703430,353.453552 440.909393,325.306000   C449.821869,312.244202 458.128021,298.760101 467.281494,285.874084   C474.569244,275.614563 480.678162,264.948700 484.328613,252.847260   C486.195953,246.656830 488.796326,240.687485 491.323059,233.929016   C481.750549,232.295334 473.275604,227.571701 463.053192,229.556137   C448.783783,232.326233 434.299713,233.260742 419.989655,229.054565   C418.898987,228.733994 417.682373,228.680359 416.535553,228.735596   C387.102509,230.153412 361.063538,219.612717 336.289612,205.346985   C327.075043,200.040894 322.073639,191.284134 320.938782,180.391006   C320.443848,175.640411 321.899841,172.384766 326.241791,170.979218   C336.018036,167.814514 345.744232,164.172256 355.780304,162.189606   C397.507324,153.946320 439.763733,149.613968 482.211487,148.070984   C520.978699,146.661789 559.801086,146.217865 598.597107,146.298264   C643.398193,146.391098 687.457642,153.162964 731.044434,163.295670   C765.379639,171.277618 800.175964,177.581421 834.060059,187.138763   C924.189819,212.560715 1006.388428,253.791855 1077.843750,315.005249   C1103.984985,337.399536 1126.945801,362.771484 1140.203491,395.073120   C1152.032104,423.893127 1158.628784,454.120636 1158.745361,485.469910   C1158.765625,490.912201 1158.204834,496.550140 1156.690674,501.741394   C1155.548218,505.658447 1152.479736,509.022247 1150.208984,512.594360   C1149.773315,513.279602 1149.015747,513.751099 1148.481079,514.384033   C1142.783813,521.130310 1144.331421,527.576477 1152.779541,530.932068   C1146.708618,542.012085 1140.668457,553.057800 1134.603882,564.090027   C1132.920532,567.152039 1131.241333,570.220642 1129.429077,573.206604   C1122.688599,584.312683 1117.632568,595.902832 1114.233765,608.663574   C1106.094116,639.222778 1089.030518,665.340698 1070.139038,690.272156   C1052.493042,713.559998 1032.666016,734.918579 1011.750244,755.272644   C1010.289795,756.693787 1007.821289,757.391479 1005.705383,757.762085   C1001.190247,758.552917 996.598816,758.908020 992.028748,760.586548   C993.298645,761.210938 994.568481,761.835388 996.752625,762.909302   C993.569092,766.420288 991.048706,769.989380 987.779236,772.631897   C981.980957,777.318298 975.741882,781.461487 969.661987,785.796753   C959.496582,793.045227 949.315979,800.272400 939.130371,807.492615   C937.230225,808.839600 935.315125,810.172791 933.340393,811.406006   C928.636780,814.343628 924.286133,817.144043 921.001831,822.252869   C916.206726,829.711792 907.693726,832.490417 899.172241,833.944092   C894.683960,834.709778 891.139465,835.605286 887.769897,839.572388   C883.783508,844.265686 877.982422,847.503723 872.735352,851.026062   C839.048706,873.639832 802.649353,891.225647 765.955505,908.223145   C716.111450,931.312256 665.249390,951.728088 612.221375,966.453613   C580.526428,975.255188 548.450867,983.002197 517.377991,993.650024   C475.629791,1007.956055 432.570862,1016.105652 389.192566,1025.112305  z"
   id="path4" />
<path
   fill="#FEFFFF"
   opacity="1.000000"
   stroke="none"
   d=" M1547.870483,962.880249   C1519.644653,964.458496 1491.889893,966.047424 1464.130737,967.550964   C1439.398315,968.890564 1414.902588,966.532043 1390.524658,962.574097   C1377.059692,960.387817 1363.471924,958.714905 1350.198120,955.679565   C1341.529907,953.697327 1333.137207,950.111755 1324.953735,946.492310   C1308.994507,939.433594 1293.258423,931.869019 1277.469238,924.430603   C1276.423584,923.937927 1275.288696,922.895447 1274.909424,921.849731   C1272.819214,916.087646 1268.284058,913.365173 1263.191895,910.488770   C1259.781372,908.562256 1256.385010,904.568726 1255.360474,900.845642   C1252.375854,889.999084 1249.444946,878.915222 1248.550781,867.759399   C1246.204712,838.493591 1248.509277,809.506287 1258.036743,781.489563   C1259.935547,775.905579 1264.114868,771.048706 1265.716431,765.422058   C1268.967651,754.000122 1276.998535,744.219482 1277.055176,731.732239   C1277.067017,729.104065 1277.616577,726.430481 1278.262329,723.864258   C1279.200317,720.136597 1281.548706,717.822327 1285.601074,717.462158   C1287.578857,717.286438 1289.536865,716.844543 1291.490967,716.458008   C1294.362305,715.889954 1295.906860,714.483276 1296.474854,711.232483   C1297.091553,707.702942 1298.650513,704.250427 1300.268799,700.998291   C1308.586304,684.283142 1319.316162,669.088135 1329.695312,653.619019   C1342.940063,633.878784 1356.721802,614.210693 1367.259399,593.013855   C1381.044800,565.283813 1398.670044,540.113708 1414.927490,514.026733   C1419.797729,506.211792 1426.427612,499.484100 1432.334961,492.327332   C1439.018433,484.230255 1445.888916,476.329712 1447.712280,465.376434   C1448.089355,463.110718 1449.988525,460.953430 1451.558105,459.053314   C1469.373901,437.486053 1486.669189,415.451355 1505.252197,394.563324   C1545.760376,349.030640 1586.567627,303.750366 1628.005249,259.064758   C1645.974976,239.686432 1665.081543,221.201309 1685.024780,203.867294   C1699.774780,191.047226 1716.426025,180.244720 1735.296143,173.757965   C1753.435791,167.522354 1771.169189,167.346588 1788.137695,177.571655   C1799.666138,184.518585 1811.226562,191.412796 1822.701416,198.447067   C1824.663818,199.650040 1826.352661,201.350876 1828.021240,202.972717   C1835.075317,209.829102 1835.271118,212.381271 1828.140747,219.185745   C1800.475830,245.586334 1770.495361,269.040741 1738.364136,289.807343   C1734.110352,292.556519 1731.123779,297.284058 1727.600464,301.141083   C1723.131714,306.033081 1718.734009,310.989838 1714.271362,315.887512   C1692.744507,339.513519 1671.050903,362.991028 1649.794922,386.858154   C1645.218628,391.996490 1642.212891,398.531921 1638.466553,404.412842   C1637.854248,405.374023 1637.320312,406.484772 1636.467285,407.178375   C1616.764038,423.200287 1601.410767,443.195984 1585.996948,463.044617   C1564.753296,490.400330 1544.059814,518.183228 1523.120728,545.775574   C1522.013672,547.234436 1520.856323,548.659912 1519.651855,550.039429   C1515.317261,555.003967 1510.744873,559.646362 1510.462280,567.033264   C1510.358643,569.742981 1508.225342,572.515198 1506.620850,575.002808   C1500.243408,584.889587 1493.147705,594.356140 1487.347168,604.563232   C1474.398438,627.349670 1460.081177,649.136353 1443.343140,669.323547   C1441.891235,671.074646 1440.949463,673.293945 1439.978760,675.392090   C1427.407471,702.565063 1412.351440,728.162537 1392.162476,750.465820   C1389.276611,753.654114 1385.578491,756.102539 1382.653931,759.261597   C1378.915405,763.300171 1375.580688,767.712585 1372.071899,771.963867   C1372.448853,772.647705 1372.825928,773.331543 1373.202881,774.015442   C1375.764526,773.804077 1378.359741,773.774414 1380.874878,773.310547   C1382.291016,773.049316 1383.516724,771.805115 1384.935547,771.495667   C1386.229980,771.213440 1387.668823,771.594604 1389.043945,771.683472   C1388.891113,773.096741 1389.134277,774.731567 1388.495483,775.872925   C1387.457153,777.728394 1385.957397,779.374023 1384.452393,780.912720   C1359.971924,805.941528 1353.950073,848.922729 1370.301758,879.747253   C1376.650635,891.715515 1387.141724,897.389160 1399.614258,898.784546   C1416.105591,900.629517 1432.818237,902.299744 1449.344482,901.665771   C1488.414917,900.167053 1527.525879,898.274536 1566.442261,894.635376   C1603.690186,891.152222 1640.756714,885.572815 1677.822754,880.345093   C1714.989014,875.103271 1752.185791,870.865662 1789.753052,874.220642   C1799.793945,875.117371 1809.760864,877.462708 1819.602051,879.812134   C1831.102905,882.557800 1839.706787,889.836731 1846.686523,899.147034   C1847.480347,900.206055 1848.191528,901.353027 1848.772339,902.541626   C1853.319214,911.845825 1852.099731,916.042847 1842.207642,918.546570   C1822.721802,923.478455 1803.166626,928.496765 1783.352417,931.699219   C1734.572266,939.583130 1685.692017,946.921265 1636.728149,953.566895   C1607.385620,957.549377 1577.810425,959.815979 1547.870483,962.880249  z"
   id="path5" />
</svg>
