<?xml version="1.0" encoding="UTF-8" standalone="no"?>
<!-- Created with Inkscape (http://www.inkscape.org/) -->

<svg
   version="1.1"
   id="svg2"
   width="816"
   height="1056"
   viewBox="0 0 816 1056"
   sodipodi:docname="PersonalLogo.ai"
   xmlns:inkscape="http://www.inkscape.org/namespaces/inkscape"
   xmlns:sodipodi="http://sodipodi.sourceforge.net/DTD/sodipodi-0.dtd"
   xmlns="http://www.w3.org/2000/svg"
   xmlns:svg="http://www.w3.org/2000/svg">
  <defs
     id="defs6">
    <clipPath
       clipPathUnits="userSpaceOnUse"
       id="clipPath16">
      <path
         d="M 0,792 H 612 V 0 H 0 Z"
         id="path14" />
    </clipPath>
  </defs>
  <sodipodi:namedview
     id="namedview4"
     pagecolor="#ffffff"
     bordercolor="#000000"
     borderopacity="0.25"
     inkscape:showpageshadow="2"
     inkscape:pageopacity="0.0"
     inkscape:pagecheckerboard="0"
     inkscape:deskcolor="#d1d1d1" />
  <g
     id="g8"
     inkscape:groupmode="layer"
     inkscape:label="PersonalLogo"
     transform="matrix(1.3333333,0,0,-1.3333333,0,1056)">
    <g
       id="g10">
      <g
         id="g12"
         clip-path="url(#clipPath16)">
        <g
           id="g18"
           transform="translate(33.449,488.8168)">
          <path
             d="m 0,0 c 4.472,-1.173 9.26,-1.636 13.863,-1.111 2.7,0.308 5.394,0.689 8.015,1.419 2.604,0.724 5.1,1.766 7.569,2.856 7.809,3.448 14.663,9.26 20.174,15.717 11.613,13.608 20.014,30.018 26.047,46.779 3.223,8.956 5.615,18.197 7.168,27.588 0.451,2.73 0.44,5.231 -1.008,7.705 -1.214,2.075 -3.593,4.053 -5.977,4.596 -2.56,0.583 -5.433,0.457 -7.705,-1.008 -2.109,-1.36 -4.071,-3.435 -4.596,-5.976 -3.573,-17.289 -6.832,-34.641 -9.982,-52.012 -3.137,-17.304 -6.167,-34.627 -9.3,-51.931 -3.144,-17.368 -6.391,-34.718 -9.953,-52.005 -3.538,-17.168 -7.386,-34.275 -11.752,-51.252 -4.383,-17.048 -9.288,-33.966 -14.908,-50.648 -0.691,-2.049 -1.392,-4.095 -2.103,-6.137 -0.82,-2.354 -0.219,-5.609 1.008,-7.705 1.214,-2.075 3.592,-4.053 5.976,-4.596 5.578,-1.271 10.457,1.689 12.301,6.984 5.791,16.63 10.86,33.502 15.376,50.521 4.494,16.939 8.447,34.019 12.064,51.167 3.642,17.266 6.942,34.602 10.114,51.96 3.161,17.299 6.194,34.621 9.308,51.928 3.126,17.378 6.334,34.743 9.836,52.05 0.429,2.121 0.863,4.24 1.301,6.359 C 76.407,95.02 69.979,96.792 63.55,98.565 61.538,86.395 58.095,74.503 53.319,63.131 l 1.008,2.389 C 49.608,54.379 43.708,43.532 36.303,33.937 c 0.521,0.674 1.042,1.349 1.564,2.023 -3.371,-4.321 -7.128,-8.319 -11.468,-11.682 0.675,0.521 1.349,1.042 2.024,1.564 -2.937,-2.235 -6.084,-4.122 -9.476,-5.583 l 2.389,1.008 c -3.116,-1.302 -6.351,-2.223 -9.699,-2.682 0.886,0.119 1.772,0.238 2.658,0.357 C 11.554,18.603 8.811,18.586 6.071,18.947 6.957,18.828 7.844,18.709 8.73,18.59 7.577,18.76 6.443,18.99 5.317,19.286 0.263,20.611 -5.775,17.611 -6.984,12.301 -8.176,7.07 -5.414,1.42 0,0"
             style="fill:#231f20;fill-opacity:1;fill-rule:nonzero;stroke:none"
             id="path20" />
        </g>
        <g
           id="g22"
           transform="translate(120.3292,564.2749)">
          <path
             d="M 0,0 C 1.618,1.367 3.257,2.706 4.93,4.006 4.255,3.485 3.581,2.964 2.906,2.443 c 4.818,3.714 9.919,7.094 15.518,9.517 -0.797,-0.336 -1.593,-0.672 -2.389,-1.009 3.098,1.306 6.3,2.284 9.631,2.77 -0.886,-0.119 -1.773,-0.239 -2.659,-0.358 2.588,0.341 5.173,0.368 7.763,0.036 -0.886,0.119 -1.773,0.238 -2.659,0.357 2.265,-0.328 4.45,-0.917 6.568,-1.783 -0.796,0.336 -1.592,0.672 -2.389,1.009 2.358,-1.004 4.545,-2.306 6.58,-3.861 -0.674,0.521 -1.349,1.043 -2.024,1.564 2.35,-1.84 4.428,-3.964 6.266,-6.313 -0.521,0.675 -1.043,1.349 -1.564,2.024 2.145,-2.801 3.907,-5.849 5.287,-9.094 l -1.008,2.389 c 1.869,-4.511 3.008,-9.256 3.681,-14.083 -0.119,0.886 -0.238,1.772 -0.357,2.658 1.032,-7.787 0.902,-15.679 0.508,-23.508 -0.343,-6.822 -0.978,-13.626 -1.882,-20.396 0.119,0.886 0.238,1.772 0.357,2.658 -2.384,-17.646 -6.627,-35.025 -12.589,-51.803 -1.704,-4.796 -3.55,-9.541 -5.523,-14.233 l 1.008,2.389 c -6.989,-16.544 -15.62,-32.384 -25.763,-47.206 -2.875,-4.201 -5.872,-8.318 -8.98,-12.35 0.521,0.675 1.042,1.35 1.563,2.024 -10.483,-13.557 -22.256,-26.111 -35.197,-37.35 -3.638,-3.16 -7.368,-6.211 -11.18,-9.159 0.674,0.522 1.349,1.043 2.023,1.564 -5.518,-4.253 -11.209,-8.274 -17.065,-12.05 -2.173,-1.401 -3.898,-3.443 -4.595,-5.976 -0.66,-2.394 -0.362,-5.581 1.008,-7.705 2.83,-4.39 8.979,-6.62 13.681,-3.588 20.113,12.968 38.491,28.721 54.338,46.652 15.817,17.897 29.422,37.812 40.121,59.171 10.726,21.412 18.862,44.198 23.632,67.679 2.441,12.013 4.084,24.233 4.861,36.468 0.403,6.344 0.637,12.728 0.346,19.081 -0.352,7.666 -1.365,15.549 -4.072,22.769 -4.936,13.168 -14.72,24.885 -28.647,28.876 -14.935,4.28 -30.149,-2.125 -42.091,-10.9 -3.133,-2.302 -6.186,-4.721 -9.155,-7.231 -1.86,-1.572 -2.929,-4.722 -2.929,-7.071 0,-2.453 1.089,-5.382 2.929,-7.071 1.906,-1.749 4.408,-3.048 7.071,-2.929 C -4.296,-2.805 -2.121,-1.793 0,0"
             style="fill:#231f20;fill-opacity:1;fill-rule:nonzero;stroke:none"
             id="path24" />
        </g>
        <g
           id="g26"
           transform="translate(130.1249,385.2025)">
          <path
             d="m 0,0 c -1.688,-12.123 -2.32,-24.245 -1.218,-36.456 0.532,-5.888 1.209,-11.6 3.937,-16.931 3.16,-6.175 9.354,-9.929 16.205,-10.319 12.261,-0.697 21.53,10.727 27.421,19.981 5.408,8.497 9.154,18.13 11.875,27.798 2.908,10.334 4.648,20.948 6.317,31.538 -6.428,1.773 -12.857,3.545 -19.285,5.317 -1.72,-11.006 -2.746,-22.094 -2.702,-33.24 0.022,-5.248 0.256,-10.496 0.709,-15.725 0.439,-5.078 0.583,-10.619 2.497,-15.395 2.642,-6.591 7.604,-11.288 14.817,-12.257 6.37,-0.856 12.362,1.36 17.203,5.471 3.739,3.175 6.331,7.577 8.448,11.94 2.158,4.447 4.184,8.961 6.123,13.507 15.841,37.141 25.411,76.294 34.413,115.54 5.275,23.001 11.015,46.456 9.966,70.232 -0.221,5 -3.637,9.145 -8.671,9.821 -5.136,0.69 -9.268,-2.416 -10.972,-7.163 -4.505,-12.553 -5.949,-25.979 -7.027,-39.197 -1.089,-13.348 -2.032,-26.71 -2.973,-40.069 -1.898,-26.926 -3.604,-53.866 -5.119,-80.817 -0.875,-15.576 -1.865,-31.101 1.105,-46.533 0.67,-3.481 3.834,-5.93 6.985,-6.985 8.702,-2.914 16.03,4.033 19.273,11.383 2.802,6.349 5.375,12.798 7.566,19.384 4.173,12.545 6.853,25.396 8.6,38.486 0.301,2.249 -1.315,5.59 -2.928,7.071 -1.652,1.516 -3.51,2.45 -5.742,2.75 -4.764,0.64 -9.774,-2.303 -10.972,-7.163 -2.818,-11.423 -4.397,-23.245 -4.581,-35.012 -0.086,-5.507 0.113,-11.041 0.699,-16.519 0.555,-5.184 1.47,-10.592 4.367,-15.062 3.443,-5.315 8.94,-8.977 15.432,-8.979 6.631,-10e-4 11.932,3.888 15.612,9.096 5.898,8.35 6.27,19.864 5.917,29.7 -0.477,13.271 -3.601,25.922 -8.833,38.076 -5.757,-3.365 -11.513,-6.73 -17.27,-10.095 8.941,-19.061 19.917,-37.112 32.726,-53.822 2.525,-3.294 5.582,-5.363 9.964,-4.774 3.88,0.521 7.261,3.309 8.313,7.163 3.33,12.194 4.585,24.786 6.756,37.207 0.953,5.451 2.096,10.872 3.687,16.175 0.688,2.291 1.455,4.558 2.318,6.789 0.052,0.135 0.653,1.82 0.726,1.811 -0.167,-0.398 -0.334,-0.796 -0.5,-1.194 0.172,0.396 0.348,0.791 0.527,1.184 0.625,1.371 1.292,2.724 2.006,4.051 1.217,2.262 2.568,4.452 4.07,6.536 0.247,0.343 0.532,0.678 0.761,1.031 -1.484,-2.284 -0.385,-0.52 0.034,-0.021 0.964,1.149 1.98,2.255 3.047,3.31 0.451,0.445 0.925,0.866 1.381,1.306 1.54,1.485 -1.888,-1.176 -0.048,-0.148 -2.527,-1.412 -5.66,-1.111 -7.325,1.12 0.101,-0.094 0.201,-0.189 0.302,-0.283 0.656,-0.733 0.401,-0.395 -0.764,1.012 0.031,-0.109 0.337,-0.666 0.447,-0.793 -0.209,0.507 -0.418,1.014 -0.627,1.521 0.118,-0.304 0.223,-0.613 0.316,-0.926 0.194,-0.64 0.247,-1.332 0.448,-1.963 -0.803,2.513 -0.199,1.755 -0.141,0.658 0.025,-0.482 0.025,-0.963 0.019,-1.446 -0.02,-1.553 -0.098,-3.107 -0.164,-4.658 -0.131,-3.105 -0.307,-6.208 -0.527,-9.308 -0.439,-6.2 -1.055,-12.387 -1.846,-18.552 -0.061,-0.473 -0.325,-3.107 -0.053,-0.422 -0.104,-1.027 -0.288,-2.055 -0.439,-3.076 -0.265,-1.794 -0.544,-3.585 -0.839,-5.374 -0.546,-3.322 -1.144,-6.635 -1.793,-9.939 -1.397,-7.116 -3.038,-14.181 -4.897,-21.19 6.548,-0.887 13.095,-1.773 19.643,-2.659 0.226,3.137 0.478,6.271 0.781,9.402 0.147,1.521 0.306,3.041 0.479,4.56 0.086,0.76 0.176,1.52 0.27,2.279 0.09,0.73 0.586,3.57 0.07,0.594 1.064,6.127 1.979,12.218 3.581,18.241 0.8,3.006 1.717,5.983 2.774,8.909 0.407,1.126 1.579,2.993 1.62,4.167 0.001,0.013 -0.843,-1.909 -0.38,-0.925 0.18,0.384 0.344,0.776 0.52,1.162 0.352,0.77 0.716,1.535 1.093,2.295 1.362,2.749 2.884,5.421 4.578,7.98 0.82,1.239 1.778,2.395 2.583,3.639 0.012,0.02 -1.286,-1.595 -0.578,-0.761 0.208,0.245 0.403,0.501 0.607,0.748 0.541,0.657 1.085,1.32 1.672,1.936 -0.069,-0.073 0.901,0.916 0.921,0.896 0.068,-0.07 -1.69,-1.115 -0.749,-0.594 1.138,0.631 -1.978,-0.451 -0.742,-0.231 1.46,0.26 -3.713,0.166 -3.327,0.083 -0.82,0.177 -1.913,0.819 -2.487,1.348 -0.138,0.127 -0.974,1.649 -0.742,0.812 0.056,-0.204 0.272,-0.63 0.4,-0.798 -0.544,1.315 -0.674,1.608 -0.389,0.879 0.084,-0.214 0.165,-0.43 0.242,-0.647 0.547,-1.497 1.006,-3.025 1.381,-4.574 0.186,-0.768 0.352,-1.539 0.498,-2.315 0.062,-0.332 0.119,-0.665 0.174,-0.998 0.258,-1.558 -0.084,-0.643 -0.026,0.319 -0.092,-1.517 0.3,-3.192 0.352,-4.725 0.058,-1.707 0.048,-3.415 -0.015,-5.122 -0.123,-3.36 -0.449,-6.709 -0.864,-10.044 -0.044,-0.35 -0.091,-0.698 -0.134,-1.048 -0.143,-1.152 0.123,0.913 0.122,0.911 -0.158,-0.806 -0.231,-1.64 -0.349,-2.453 -0.257,-1.758 -0.525,-3.515 -0.791,-5.271 -0.613,-4.051 -1.202,-8.106 -1.695,-12.172 -0.839,-6.921 -1.766,-14.719 -0.106,-21.58 1.207,-4.989 4.702,-9.059 9.647,-10.564 5.937,-1.808 11.261,1.827 15.133,5.926 4.88,5.165 8.736,11.255 11.822,17.631 6.481,13.387 11.564,27.589 16.816,41.492 10.564,27.962 20.149,56.284 29.208,84.766 9.065,28.502 17.603,57.167 26.081,85.848 1.068,3.615 2.136,7.231 3.204,10.846 -6.548,0.886 -13.096,1.773 -19.643,2.659 -0.273,-2.621 -0.586,-5.235 -0.916,-7.848 -0.301,-2.388 0.245,1.705 0.022,0.165 -0.085,-0.593 -0.166,-1.187 -0.251,-1.78 -0.205,-1.424 -0.421,-2.846 -0.644,-4.267 -0.822,-5.222 -1.767,-10.423 -2.804,-15.606 -2.084,-10.416 -4.548,-20.754 -7.18,-31.044 C 301.289,118.013 295.326,97.581 290.257,76.915 285.15,56.097 280.994,34.963 279.363,13.561 278.585,3.338 278.44,-6.94 279.118,-17.174 c 0.374,-5.644 0.686,-11.639 1.931,-17.159 1.884,-8.354 9.994,-13.487 18.323,-11.225 7.156,1.944 11.564,8.374 15.166,14.351 2.941,4.882 5.539,9.963 7.805,15.191 4.995,11.526 8.602,23.448 10.293,35.914 -6.548,0.886 -13.095,1.772 -19.643,2.658 -0.048,-11.654 -0.096,-23.308 -0.145,-34.962 -0.024,-5.906 -0.33,-11.891 0.935,-17.706 1.354,-6.221 5.45,-12.14 11.271,-14.923 6.99,-3.342 15.287,-2.221 20.7,3.538 3.859,4.106 5.86,9.419 7.375,14.752 2.908,10.243 4.078,21.204 3.337,31.829 -0.888,12.733 -4.131,24.865 -9.679,36.353 -2.281,4.722 -9.391,6.354 -13.682,3.587 -2.136,-1.377 -4.015,-3.426 -4.596,-5.976 -0.635,-2.787 -0.136,-5.111 1.008,-7.706 3.963,-8.983 9.893,-18.341 19.151,-22.562 5.851,-2.668 11.94,-3.383 18.248,-2.072 5.563,1.156 10.388,4.285 14.733,7.795 7.885,6.371 13.25,15.464 17.849,24.34 5.329,10.283 9.926,20.99 13.759,31.919 4.038,11.511 7.136,23.334 9.305,35.337 0.488,2.699 0.42,5.265 -1.008,7.706 -1.214,2.074 -3.592,4.053 -5.976,4.596 -4.889,1.113 -11.307,-1.48 -12.302,-6.985 -1.778,-9.842 -4.175,-19.564 -7.214,-29.094 -1.556,-4.879 -3.274,-9.707 -5.154,-14.471 -0.448,-1.134 -0.911,-2.262 -1.369,-3.392 -0.68,-1.676 0.051,0.093 0.161,0.364 -0.274,-0.677 -0.575,-1.346 -0.867,-2.016 -1.023,-2.348 -2.085,-4.678 -3.186,-6.99 -2.128,-4.47 -4.381,-8.894 -6.824,-13.201 -1.007,-1.777 -2.082,-3.516 -3.236,-5.202 -0.382,-0.559 -1.811,-1.961 -1.824,-2.538 0.003,0.148 1.538,1.888 0.406,0.545 -0.469,-0.557 -0.926,-1.123 -1.407,-1.671 -1.282,-1.462 -2.645,-2.855 -4.107,-4.138 -0.405,-0.355 -1.059,-0.73 -1.381,-1.154 1.031,1.359 1.388,1.009 0.606,0.497 -0.971,-0.636 -1.916,-1.283 -2.941,-1.834 -0.417,-0.224 -0.847,-0.417 -1.266,-0.633 -1.195,-0.615 2.458,0.879 0.58,0.26 -0.879,-0.29 -1.764,-0.506 -2.654,-0.755 -1.525,-0.427 0.835,0.114 1.028,0.094 -0.515,0.052 -1.133,-0.101 -1.657,-0.11 -0.372,-0.006 -0.746,-0.001 -1.118,0.016 -0.378,0.018 -0.754,0.048 -1.13,0.09 1.61,-0.237 2.021,-0.282 1.233,-0.133 -0.934,0.251 -2.111,0.805 -3.056,0.891 0.449,-0.187 0.898,-0.373 1.347,-0.559 -0.341,0.16 -0.677,0.33 -1.007,0.511 -0.495,0.27 -0.978,0.563 -1.447,0.875 -0.234,0.155 -1.827,1.207 -0.357,0.219 1.475,-0.991 -0.434,0.443 -0.712,0.708 -0.768,0.733 -1.487,1.516 -2.168,2.33 -0.819,0.98 -0.171,1.114 0.294,-0.406 -0.147,0.481 -0.73,1.019 -1.023,1.456 -0.667,0.994 -1.29,2.018 -1.879,3.059 -1.172,2.074 -2.199,4.224 -3.16,6.403 -5.757,-3.365 -11.513,-6.73 -17.27,-10.095 0.416,-0.861 1.326,-2.199 1.455,-3.148 -0.028,0.209 -0.874,2.163 -0.2,0.473 0.171,-0.43 0.345,-0.858 0.512,-1.289 0.835,-2.155 1.579,-4.344 2.234,-6.56 0.588,-1.995 1.104,-4.012 1.545,-6.044 0.245,-1.13 0.468,-2.264 0.668,-3.403 0.079,-0.455 0.156,-0.911 0.228,-1.368 0.073,-0.456 0.142,-0.914 0.207,-1.371 -0.058,0.428 -0.115,0.855 -0.173,1.283 0.397,-0.778 0.291,-2.578 0.366,-3.448 0.079,-0.922 0.143,-1.844 0.193,-2.768 0.124,-2.308 0.155,-4.622 0.094,-6.933 -0.054,-2.08 -0.184,-4.157 -0.39,-6.227 -0.057,-0.575 -0.132,-1.148 -0.189,-1.723 -0.151,-1.516 0.413,2.561 0.035,0.253 -0.187,-1.14 -0.364,-2.281 -0.581,-3.417 -0.795,-4.171 -2.017,-8.154 -3.35,-12.173 0.981,2.958 -0.03,0.095 -0.488,-0.66 -0.186,-0.308 -0.447,-0.616 -0.608,-0.931 1.012,1.986 1.136,1.295 0.537,0.757 -0.231,-0.208 -1.56,-1.445 -0.174,-0.275 1.521,1.283 -0.25,0.03 -0.318,-0.058 0.121,0.157 2.405,0.841 0.875,0.473 1.596,0.146 1.998,0.209 1.206,0.187 -0.798,0.005 -0.39,-0.074 1.223,-0.236 0.04,-0.017 -1.056,0.326 -1.119,0.298 0.437,-0.185 0.873,-0.369 1.31,-0.554 -0.355,0.178 -0.697,0.377 -1.028,0.596 0.172,0.084 1.822,-1.708 0.608,-0.443 0.049,-0.051 -0.803,0.88 -0.842,0.875 0.505,0.069 1.292,-1.942 0.334,-0.3 -0.84,1.438 -0.468,-0.092 0.045,-0.321 -0.681,0.304 -0.529,2.693 -0.86,3.336 0.663,-1.288 0.15,-1.662 0.101,-0.587 -0.026,0.582 -0.082,1.164 -0.106,1.748 -0.043,1.051 -0.048,2.103 -0.047,3.155 0,2.616 0.021,5.233 0.031,7.849 0.048,11.389 0.095,22.779 0.142,34.168 0.021,4.988 -3.821,9.17 -8.671,9.822 -4.378,0.588 -10.303,-2.233 -10.972,-7.163 -1.341,-9.888 -3.807,-19.599 -7.4,-28.91 -0.424,-1.101 -0.832,-2.233 -1.328,-3.304 1.028,2.219 0.272,0.661 0.024,0.099 -0.24,-0.543 -0.483,-1.085 -0.73,-1.624 -1.088,-2.374 -2.248,-4.715 -3.481,-7.017 -1.121,-2.092 -2.299,-4.154 -3.536,-6.18 -0.618,-1.013 -1.247,-2.021 -1.898,-3.013 -0.134,-0.205 -1.455,-1.853 -0.284,-0.518 1.194,1.362 -0.564,-0.569 -0.79,-0.79 10e-4,0 -0.877,-0.716 -0.89,-0.816 l 1.087,0.838 c -0.313,-0.221 -0.637,-0.425 -0.971,-0.612 -1.268,-0.879 0.685,0.285 0.902,0.36 -0.166,-0.044 -0.331,-0.088 -0.497,-0.132 1.125,0.325 2.248,0.316 3.369,-0.026 1.067,-0.327 1.829,-0.907 2.614,-1.644 -0.134,0.133 -0.267,0.265 -0.4,0.398 0.75,-0.665 1.249,-1.484 1.496,-2.456 -0.022,0.323 -0.226,0.779 -0.302,1.116 -0.081,0.379 -0.15,0.761 -0.207,1.145 0.211,-1.614 0.241,-1.836 0.088,-0.665 -0.59,4.837 -1.04,9.684 -1.283,14.552 -0.486,9.767 -0.239,19.562 0.571,29.306 0.195,2.348 0.423,4.694 0.681,7.036 0.129,1.173 0.266,2.345 0.41,3.516 0.086,0.703 0.178,1.405 0.267,2.108 0.263,2.081 -0.305,-2.101 0.022,0.152 0.715,4.928 1.497,9.842 2.401,14.738 1.823,9.876 4.028,19.677 6.43,29.427 4.8,19.486 10.379,38.769 15.408,58.197 5.837,22.549 10.798,45.314 13.211,68.51 0.513,4.929 -4.201,9.221 -8.671,9.821 -4.928,0.662 -9.55,-2.347 -10.972,-7.163 -8.507,-28.807 -17.015,-57.616 -25.997,-86.279 C 283.717,86.738 274.264,58.233 263.878,30.063 258.734,16.11 253.067,2.38 247.705,-11.485 c -0.002,-0.007 0.8,1.859 0.348,0.831 -0.182,-0.413 -0.357,-0.829 -0.538,-1.242 -0.316,-0.724 -0.637,-1.446 -0.965,-2.165 -0.702,-1.537 -1.433,-3.061 -2.207,-4.564 -1.481,-2.881 -3.118,-5.689 -4.994,-8.332 -0.193,-0.271 -0.4,-0.535 -0.588,-0.809 -0.615,-0.901 0.545,0.691 0.554,0.7 -0.548,-0.507 -0.996,-1.226 -1.491,-1.793 -1.097,-1.254 -2.44,-2.314 -3.516,-3.569 0.907,0.526 1.813,1.052 2.72,1.578 1.928,-0.27 3.856,-0.541 5.784,-0.811 0.724,-0.437 1.33,-1.021 1.843,-1.68 1.44,-1.849 -0.33,1.142 0.587,-0.953 0.662,-1.513 0.216,-0.58 0.169,-0.237 -0.036,0.264 -0.281,0.767 -0.213,1.004 0.05,0.175 0.184,-2.661 0.224,-1.323 0.028,0.918 -0.092,1.865 -0.109,2.787 -0.063,3.395 0.12,6.791 0.438,10.17 0.155,1.648 0.356,3.289 0.552,4.932 0.068,0.564 0.351,1.907 -0.077,-0.544 0.061,0.35 0.098,0.706 0.147,1.058 0.133,0.94 0.27,1.88 0.409,2.819 1.097,7.391 2.355,14.784 2.908,22.242 0.526,7.1 0.202,14.321 -1.425,21.273 -0.846,3.618 -2.078,7.595 -4.033,10.755 -3.368,5.447 -9.756,8.247 -16.008,6.358 -4.29,-1.295 -7.53,-4.411 -10.253,-7.816 -2.326,-2.908 -4.553,-5.89 -6.496,-9.07 -3.541,-5.793 -6.291,-12.115 -8.511,-18.52 -4.313,-12.441 -6.198,-25.634 -7.461,-38.692 -0.303,-3.131 -0.555,-6.265 -0.781,-9.402 -0.358,-4.952 4.081,-9.205 8.671,-9.821 4.827,-0.649 9.687,2.319 10.972,7.163 3.519,13.271 6.222,26.745 8.073,40.349 1.011,7.432 1.867,14.877 2.424,22.359 0.51,6.849 1.294,13.909 0.258,20.731 -1.153,7.591 -6.729,14.446 -14.833,14.669 -8.418,0.23 -14.438,-7.452 -19.009,-13.525 -7.244,-9.625 -11.455,-21.524 -14.049,-33.189 -3.327,-14.961 -4.272,-30.363 -8.317,-45.178 l 18.277,2.388 c -12.809,16.71 -23.784,34.761 -32.725,53.823 -2.228,4.75 -9.426,6.331 -13.682,3.587 -2.135,-1.376 -4.015,-3.426 -4.596,-5.976 -0.637,-2.798 -0.115,-5.095 1.008,-7.706 -1.112,2.585 0.433,-1.119 0.63,-1.638 0.342,-0.904 0.669,-1.813 0.982,-2.727 0.782,-2.286 1.471,-4.603 2.068,-6.943 0.538,-2.107 1,-4.233 1.385,-6.372 0.172,-0.952 0.315,-1.907 0.469,-2.861 0.386,-2.386 -0.173,1.694 -0.021,0.144 0.07,-0.721 0.163,-1.44 0.232,-2.161 0.426,-4.449 0.527,-8.928 0.294,-13.391 -0.063,-1.206 -0.15,-2.411 -0.262,-3.613 -0.045,-0.482 -0.099,-0.962 -0.146,-1.442 -0.199,-2.04 0.153,0.753 0.134,0.915 0.18,-1.546 -0.878,-3.774 -1.387,-5.205 -0.54,-1.518 0.296,0.795 0.378,0.887 -0.259,-0.289 -0.41,-0.846 -0.6,-1.196 -0.364,-0.671 -0.916,-1.3 -1.24,-1.983 0.921,1.94 1.24,1.457 0.621,0.86 -0.27,-0.26 -0.627,-0.554 -0.856,-0.849 -0.698,-0.9 2.229,1.333 0.725,0.579 -0.131,-0.077 -0.262,-0.155 -0.393,-0.232 -0.909,-0.456 -0.525,-0.302 1.152,0.462 -0.117,-0.005 -0.848,-0.306 -0.872,-0.233 -0.036,0.107 2.856,0.227 1.281,0.222 -1.622,-0.004 1.291,-0.148 1.199,-0.21 -0.187,-0.127 -2.172,0.771 -0.221,-0.061 1.915,-0.817 0.079,0.136 -0.078,0.157 0.213,-0.028 1.833,-1.745 0.912,-0.673 -0.132,0.154 -0.467,0.565 -0.661,0.699 1.038,-1.401 1.267,-1.681 0.686,-0.839 -0.088,0.142 -0.176,0.285 -0.263,0.427 -0.215,0.361 -0.367,0.782 -0.598,1.129 -0.69,1.039 0.849,-2.5 0.305,-0.694 -0.207,0.686 -0.446,1.358 -0.624,2.053 -0.224,0.871 -0.378,1.75 -0.543,2.634 -0.134,0.722 -0.01,1.739 0.142,-1.093 -0.036,0.679 -0.14,1.367 -0.201,2.044 -0.437,4.853 -0.622,9.729 -0.559,14.602 0.068,5.272 0.516,10.49 1.071,15.729 0.17,1.6 -0.38,-2.495 -0.002,0.011 0.114,0.76 0.223,1.522 0.344,2.282 0.202,1.266 0.421,2.53 0.657,3.79 0.518,2.774 1.127,5.529 1.802,8.268 -6.547,0.887 -13.095,1.773 -19.643,2.659 0.369,2.763 0.014,0.171 -0.053,-0.288 -0.09,-0.614 -0.184,-1.226 -0.281,-1.839 -0.211,-1.347 -0.437,-2.692 -0.677,-4.034 -0.481,-2.685 -1.019,-5.359 -1.613,-8.021 -1.159,-5.203 -2.536,-10.358 -4.121,-15.447 -1.586,-5.09 -3.381,-10.113 -5.381,-15.055 -0.232,-0.574 -0.472,-1.146 -0.706,-1.72 -0.471,-1.157 0.763,1.737 -0.008,-0.008 -0.557,-1.26 -1.064,-2.554 -1.718,-3.767 -0.24,-0.445 -0.536,-0.856 -0.786,-1.293 -0.582,-1.015 1.493,1.556 0.249,0.391 -0.605,-0.551 -0.554,-0.534 0.153,0.051 0.561,0.532 1.235,0.865 2.023,0.998 -2.353,-0.679 5.297,-0.772 2.797,0.065 2.328,-2.328 4.656,-4.657 6.984,-6.985 -0.148,0.769 -0.292,1.537 -0.421,2.309 -0.076,0.46 -0.527,3.094 -0.099,0.433 -0.247,1.536 -0.359,3.109 -0.482,4.659 -0.27,3.38 -0.371,6.772 -0.369,10.161 0.003,6.558 0.394,13.107 0.757,19.652 0.74,13.343 1.527,26.683 2.362,40.02 1.652,26.407 3.487,52.803 5.508,79.184 0.27,3.527 0.541,7.053 0.869,10.575 0.164,1.754 0.342,3.507 0.542,5.258 0.085,0.749 0.181,1.498 0.268,2.247 0.147,1.137 0.126,0.998 -0.062,-0.416 0.069,0.498 0.14,0.995 0.213,1.492 1.027,6.942 2.555,13.797 4.928,20.409 -6.548,0.886 -13.095,1.772 -19.643,2.659 0.217,-4.93 0.153,-9.862 -0.169,-14.785 -0.152,-2.33 -0.36,-4.657 -0.612,-6.978 -0.112,-1.033 -0.243,-2.064 -0.364,-3.096 -0.299,-2.545 0.235,1.558 -0.003,-0.048 -0.115,-0.772 -0.221,-1.545 -0.337,-2.317 C 113.799,124.23 111.74,114.791 109.6,105.38 105.464,87.188 101.312,68.991 96.58,50.944 91.906,33.118 86.638,15.429 80.163,-1.832 78.547,-6.14 76.834,-10.406 75.085,-14.66 c -0.594,-1.444 0.966,2.24 -0.008,-0.017 -0.197,-0.457 -0.391,-0.915 -0.588,-1.371 -0.444,-1.028 -0.893,-2.054 -1.347,-3.077 -0.959,-2.162 -1.941,-4.314 -2.948,-6.454 -0.866,-1.843 -1.728,-3.692 -2.701,-5.482 -0.461,-0.849 -0.947,-1.684 -1.476,-2.493 -0.088,-0.135 -0.916,-1.309 -0.912,-1.313 -0.14,0.133 1.642,1.858 -0.073,0.084 -0.295,-0.304 -0.609,-0.585 -0.914,-0.879 -1.317,-1.268 0.417,0.479 0.56,0.415 -0.077,0.034 -1.123,-0.652 -1.275,-0.747 -1.068,-0.666 2.403,0.622 0.464,0.22 -0.304,-0.063 -0.905,-0.178 -1.148,-0.297 1.471,0.722 1.974,0.132 0.912,0.135 -0.083,10e-4 -1.015,0.084 -1.158,0.012 1.703,-0.28 2.027,-0.307 0.97,-0.082 -0.181,0.054 -0.362,0.109 -0.542,0.163 0.448,-0.189 0.897,-0.379 1.346,-0.568 -0.682,0.419 -0.666,0.364 0.049,-0.165 0.69,-0.58 0.726,-0.593 0.108,-0.041 -0.547,0.61 -0.537,0.572 0.029,-0.115 1.446,-1.515 -0.328,0.52 -0.15,0.471 0.489,-0.136 0.803,-2.361 0.153,-0.165 -0.29,0.978 -0.468,1.978 -0.643,2.98 -0.309,1.771 0.071,-0.796 0.112,-0.856 -0.317,0.461 -0.202,1.741 -0.267,2.347 -0.587,5.48 -0.938,10.985 -1.05,16.495 -0.111,5.509 0.015,11.024 0.379,16.523 0.174,2.619 0.401,5.234 0.682,7.843 0.14,1.296 0.223,2.627 0.463,3.909 -0.437,-2.339 -0.072,-0.532 0.015,0.072 0.13,0.909 0.269,1.817 0.41,2.724 0.43,2.749 0.452,5.211 -1.008,7.706 -1.214,2.074 -3.592,4.053 -5.976,4.596 -4.79,1.091 -11.43,-1.459 -12.301,-6.985 -1.33,-8.437 -2.706,-16.877 -4.679,-25.192 -1.005,-4.238 -2.164,-8.443 -3.557,-12.571 -0.62,-1.839 -1.287,-3.662 -2.007,-5.465 0.018,0.046 -0.524,-1.129 -0.486,-1.193 0.169,0.401 0.337,0.802 0.506,1.203 -0.169,-0.394 -0.342,-0.786 -0.517,-1.178 -0.438,-0.976 -0.893,-1.944 -1.366,-2.904 -1.842,-3.736 -3.97,-7.335 -6.416,-10.71 -0.162,-0.224 -0.726,-1.257 -0.959,-1.293 0.295,0.045 1.298,1.6 0.366,0.5 -0.694,-0.819 -1.36,-1.656 -2.097,-2.438 -0.67,-0.711 -1.373,-1.388 -2.113,-2.026 l -0.249,-0.214 c -0.832,-0.677 -0.675,-0.557 0.471,0.36 -0.454,-0.126 -1.213,-0.807 -1.632,-1.047 0.078,0.044 -1.123,-0.565 -1.123,-0.592 0.415,0.172 0.831,0.344 1.246,0.516 -0.38,-0.145 -0.766,-0.272 -1.158,-0.38 -0.772,-0.311 -1.464,0.153 0.905,0.022 -0.328,0.018 -0.825,-0.018 -1.171,-0.048 -1.996,-0.173 2.251,-0.654 0.336,0.02 0.293,-0.103 1.885,-1.175 0.76,-0.304 -1.319,1.021 0.695,-0.63 0.702,-0.644 -0.091,0.194 -1.943,2.056 -0.661,0.541 1.145,-1.353 -0.332,0.876 -0.605,1.313 1.261,-2.017 0.594,-1.462 0.294,-0.561 -0.15,0.451 -0.285,0.907 -0.406,1.367 -0.22,0.835 -0.394,1.681 -0.54,2.532 -0.177,1.029 0.236,1.649 0.069,-0.689 0.048,0.675 -0.165,1.453 -0.233,2.122 -0.58,5.75 -0.822,11.533 -0.721,17.311 0.048,2.758 0.174,5.514 0.377,8.264 0.107,1.441 0.234,2.88 0.383,4.317 0.054,0.523 0.111,1.045 0.171,1.567 0.058,0.511 0.527,4.006 0.144,1.249 0.387,2.784 0.473,5.173 -1.009,7.706 C 17.064,4.463 14.685,6.441 12.301,6.984 7.59,8.057 0.772,5.541 0,0"
             style="fill:#231f20;fill-opacity:1;fill-rule:nonzero;stroke:none"
             id="path28" />
        </g>
        <g
           id="g30"
           transform="translate(400.1171,472.4225)">
          <path
             d="m 0,0 c 19.823,-0.922 39.695,-0.699 59.491,0.692 5.608,0.394 11.209,0.884 16.802,1.461 2.721,0.281 5.07,0.928 7.071,2.929 1.734,1.735 3.04,4.58 2.929,7.071 -0.116,2.587 -0.966,5.269 -2.929,7.071 -1.838,1.688 -4.479,3.197 -7.071,2.929 C 56.553,20.115 36.701,19.216 16.858,19.488 11.236,19.566 5.616,19.739 0,20 -5.233,20.243 -10.234,15.227 -10,10 -9.748,4.374 -5.606,0.261 0,0"
             style="fill:#231f20;fill-opacity:1;fill-rule:nonzero;stroke:none"
             id="path32" />
        </g>
      </g>
    </g>
  </g>
</svg>
