<?xml version="1.0" encoding="UTF-8" standalone="no"?>
<!-- Created with Inkscape (http://www.inkscape.org/) -->

<svg
   version="1.1"
   id="svg2"
   width="1893.3333"
   height="1024"
   viewBox="0 0 1893.3333 1024"
   sodipodi:docname="PersonalLogo4.ai"
   xmlns:inkscape="http://www.inkscape.org/namespaces/inkscape"
   xmlns:sodipodi="http://sodipodi.sourceforge.net/DTD/sodipodi-0.dtd"
   xmlns="http://www.w3.org/2000/svg"
   xmlns:svg="http://www.w3.org/2000/svg">
  <defs
     id="defs6">
    <clipPath
       clipPathUnits="userSpaceOnUse"
       id="clipPath16">
      <path
         d="M 0,768 H 1420 V 0 H 0 Z"
         id="path14" />
    </clipPath>
  </defs>
  <sodipodi:namedview
     id="namedview4"
     pagecolor="#ffffff"
     bordercolor="#000000"
     borderopacity="0.25"
     inkscape:showpageshadow="2"
     inkscape:pageopacity="0.0"
     inkscape:pagecheckerboard="0"
     inkscape:deskcolor="#d1d1d1" />
  <g
     id="g8"
     inkscape:groupmode="layer"
     inkscape:label="PersonalLogo4"
     transform="matrix(1.3333333,0,0,-1.3333333,0,1024)">
    <g
       id="g10">
      <g
         id="g12"
         clip-path="url(#clipPath16)">
        <g
           id="g18"
           transform="translate(270,520.5)">
          <path
             d="M 0,0 C 1.93,0 1.934,3 0,3 -1.93,3 -1.934,0 0,0"
             style="fill:#fcee21;fill-opacity:1;fill-rule:nonzero;stroke:none"
             id="path20" />
        </g>
        <g
           id="g22"
           transform="translate(36.7913,521.8751)">
          <path
             d="m 0,0 c 27.015,4.443 53.815,10.544 79.616,19.798 13.423,4.815 26.605,10.415 39.329,16.856 6.102,3.088 12.166,6.31 17.921,10.012 6.196,3.986 12.068,8.472 17.796,13.099 5.728,4.628 11.262,9.489 16.833,14.303 2.842,2.455 5.694,4.899 8.587,7.294 1.362,1.129 2.734,2.246 4.117,3.349 0.741,0.591 1.487,1.173 2.231,1.758 0.915,0.719 -0.714,-0.553 -0.716,-0.555 0.586,0.374 1.15,0.873 1.706,1.291 -4.241,5.497 -8.483,10.994 -12.724,16.492 C 156.294,85.417 146.708,60.718 137.861,36.863 127.634,9.285 117.103,-18.182 106.516,-45.624 95.59,-73.945 84.55,-102.222 73.481,-130.487 62.642,-158.165 52.66,-186.172 43.368,-214.406 c -9.243,-28.085 -17.817,-56.386 -25.949,-84.811 -1.019,-3.561 -2.031,-7.124 -3.036,-10.689 6.75,-1.861 13.5,-3.722 20.249,-5.583 l 0.702,3.823 c 0.518,2.827 0.437,5.534 -1.059,8.09 -1.274,2.179 -3.772,4.256 -6.275,4.826 -5.145,1.172 -11.857,-1.557 -12.916,-7.334 -0.234,-1.274 -0.468,-2.548 -0.701,-3.822 -0.519,-2.828 -0.438,-5.535 1.058,-8.091 1.275,-2.178 3.772,-4.255 6.275,-4.825 5.579,-1.271 11.32,1.675 12.916,7.333 7.997,28.339 16.395,56.566 25.432,84.591 9.035,28.019 18.708,55.836 29.219,83.336 10.755,28.141 21.921,56.127 32.794,84.223 10.847,28.027 21.611,56.088 32.174,84.224 2.095,5.58 4.129,11.183 6.24,16.757 1.081,2.854 2.181,5.701 3.318,8.533 0.53,1.322 1.072,2.639 1.616,3.955 0.685,1.655 -0.208,-0.503 -0.292,-0.689 0.135,0.299 0.258,0.606 0.388,0.908 0.346,0.806 0.697,1.611 1.052,2.413 2.43,5.495 5.07,10.903 8.05,16.122 1.501,2.628 3.089,5.207 4.778,7.718 0.84,1.248 1.704,2.479 2.596,3.69 0.381,0.517 0.781,1.022 1.158,1.542 -1.801,-2.483 -0.122,-0.189 0.353,0.388 1.898,2.312 3.915,4.518 6.037,6.625 3.723,3.699 3.976,9.704 0.821,13.787 -2.896,3.748 -9.349,5.855 -13.545,2.704 -11.066,-8.31 -21.297,-17.576 -31.873,-26.481 -2.504,-2.109 -5.033,-4.188 -7.605,-6.213 -0.276,-0.217 -0.554,-0.432 -0.83,-0.649 -1.11,-0.876 1.586,1.201 0.454,0.353 -0.563,-0.423 -1.121,-0.852 -1.686,-1.273 -1.415,-1.057 -2.845,-2.093 -4.293,-3.105 -5.559,-3.887 -11.397,-7.279 -17.385,-10.458 -6.066,-3.22 -12.24,-6.235 -18.507,-9.044 -1.442,-0.646 -2.889,-1.282 -4.34,-1.907 C 90.31,46.369 89.863,46.18 89.417,45.988 88.33,45.521 90.242,46.337 90.249,46.34 89.34,46.02 88.456,45.594 87.563,45.229 84.431,43.951 81.279,42.721 78.11,41.539 65.47,36.826 52.555,32.868 39.486,29.531 24.618,25.734 9.557,22.74 -5.583,20.25 c -2.439,-0.401 -5.078,-2.781 -6.275,-4.826 -1.317,-2.25 -1.875,-5.567 -1.058,-8.09 C -11.012,1.451 -5.824,-0.958 0,0"
             style="fill:#fcee21;fill-opacity:1;fill-rule:nonzero;stroke:none"
             id="path24" />
        </g>
        <g
           id="g26"
           transform="translate(206.3678,570.6209)">
          <path
             d="M 0,0 C 1.807,1.91 3.697,3.736 5.684,5.459 6.469,6.14 8.225,7.069 8.711,7.958 8.348,7.677 7.984,7.397 7.621,7.116 7.967,7.38 8.316,7.642 8.667,7.901 c 0.702,0.518 1.412,1.025 2.128,1.522 4.503,3.124 9.282,5.838 14.211,8.228 1.192,0.577 2.393,1.136 3.601,1.677 0.606,0.271 1.215,0.533 1.822,0.8 2.175,0.957 -2.267,-0.909 -0.059,-0.029 2.681,1.068 5.366,2.112 8.088,3.069 5.081,1.788 10.236,3.359 15.423,4.808 12.428,3.469 25.048,6.25 37.782,8.327 3.051,0.497 6.116,1.02 9.188,1.374 -2.929,-0.338 -0.266,-0.041 0.279,0.028 0.768,0.098 1.536,0.193 2.305,0.285 1.537,0.185 3.075,0.36 4.615,0.524 6.223,0.665 12.467,1.187 18.719,1.469 6.023,0.272 12.063,0.305 18.082,-0.077 1.438,-0.091 2.874,-0.206 4.308,-0.347 0.715,-0.07 1.43,-0.147 2.144,-0.231 l 0.713,-0.086 c 1.168,-0.15 0.949,-0.12 -0.659,0.089 0.702,0.374 3.43,-0.552 4.238,-0.704 1.638,-0.309 3.268,-0.66 4.887,-1.058 2.542,-0.625 5.057,-1.364 7.527,-2.23 1.312,-0.459 2.794,-0.864 4.014,-1.535 -2.416,1.328 -0.614,0.241 -0.044,-0.022 0.76,-0.352 1.514,-0.719 2.26,-1.101 2.24,-1.147 4.412,-2.433 6.473,-3.879 0.497,-0.348 0.991,-0.817 1.52,-1.11 -2.372,1.314 -0.857,0.652 -0.178,0.071 1.106,-0.944 2.164,-1.944 3.161,-3.003 0.427,-0.452 0.842,-0.915 1.245,-1.388 0.133,-0.159 0.266,-0.317 0.399,-0.476 0.69,-0.86 0.525,-0.642 -0.495,0.653 0.268,-0.997 1.529,-2.229 2.061,-3.155 0.322,-0.561 0.629,-1.131 0.918,-1.71 0.094,-0.192 0.188,-0.385 0.282,-0.577 0.465,-1.022 0.371,-0.77 -0.283,0.755 0.227,-1.38 1.047,-2.828 1.418,-4.201 0.331,-1.225 0.559,-2.463 0.805,-3.707 0.449,-2.269 -0.216,2.585 -0.033,0.274 0.05,-0.637 0.12,-1.271 0.16,-1.908 0.163,-2.584 0.108,-5.179 -0.109,-7.758 -0.055,-0.654 -0.133,-1.306 -0.197,-1.96 -0.233,-2.371 0.431,2.529 0.019,0.174 -0.229,-1.312 -0.444,-2.624 -0.716,-3.928 -0.594,-2.845 -1.335,-5.657 -2.181,-8.436 -1.632,-5.364 -3.668,-10.595 -5.809,-15.774 -0.087,-0.211 -0.175,-0.421 -0.262,-0.632 -0.439,-1.048 -0.351,-0.843 0.262,0.615 0.042,-0.425 -0.635,-1.486 -0.809,-1.886 -0.543,-1.255 -1.095,-2.506 -1.656,-3.753 -1.214,-2.7 -2.468,-5.382 -3.76,-8.045 -2.384,-4.912 -4.898,-9.762 -7.529,-14.546 -5.488,-9.98 -11.485,-19.676 -17.875,-29.102 -3.078,-4.539 -6.246,-9.015 -9.495,-13.432 -1.627,-2.212 -3.274,-4.41 -4.94,-6.594 -0.406,-0.532 -0.792,-1.15 -1.253,-1.635 1.951,2.053 0.364,0.472 -0.041,-0.049 -0.986,-1.266 -1.978,-2.527 -2.975,-3.784 -6.996,-8.811 -14.277,-17.392 -21.764,-25.789 -32.144,-36.05 -67.543,-69.276 -103.812,-101.119 -37.374,-32.813 -76.123,-64.018 -115.284,-94.661 -4.746,-3.714 -9.499,-7.42 -14.257,-11.12 -1.969,-1.532 -3.075,-5.065 -3.075,-7.425 0,-2.575 1.144,-5.651 3.075,-7.424 2.001,-1.837 4.628,-3.201 7.425,-3.076 2.971,0.133 5.099,1.267 7.424,3.076 20.026,15.575 39.97,31.257 59.71,47.194 19.834,16.012 39.464,32.281 58.756,48.943 19.182,16.568 38.031,33.527 56.398,50.997 17.7,16.836 35.032,34.098 51.552,52.099 16.109,17.553 31.393,35.908 45.215,55.324 13.404,18.829 25.317,38.772 34.778,59.88 9.99,22.289 20.334,48.2 9.65,72.139 -4.858,10.885 -14.941,19.161 -25.579,24.082 -12.376,5.724 -25.589,8.364 -39.168,9.075 -12.43,0.651 -24.934,-0.298 -37.284,-1.687 C 92.499,57.771 78.943,55.585 65.563,52.575 53.779,49.923 42.033,46.785 30.682,42.631 19.634,38.588 8.728,33.672 -0.874,26.803 -5.871,23.227 -10.623,19.316 -14.849,14.849 -18.626,10.857 -19.107,3.909 -14.849,0 -10.753,-3.76 -4.032,-4.262 0,0"
             style="fill:#fcee21;fill-opacity:1;fill-rule:nonzero;stroke:none"
             id="path28" />
        </g>
        <g
           id="g30"
           transform="translate(233.9378,323.7801)">
          <path
             d="m 0,0 c -5.852,-15.037 -10.971,-30.354 -15.298,-45.9 -2.372,-8.526 -5.061,-17.247 -3.385,-26.158 1.65,-8.781 8.833,-15.284 16.709,-18.729 15.303,-6.693 32.174,-5.788 47.86,-0.749 14.2,4.563 27.649,11.789 39.961,20.143 12.299,8.346 23.772,17.911 34.677,27.993 5.339,4.936 10.554,10.004 15.713,15.127 2.531,2.515 5.049,5.043 7.561,7.577 2.845,2.869 6.013,5.698 8.073,9.216 2.926,4.996 3.345,11.567 -0.02,16.48 -2.898,4.231 -7.808,6.871 -13.011,6.467 C 130.758,10.839 124.733,6.2 119.788,0.136 110.387,-11.39 102.278,-23.867 95.982,-37.356 89.694,-50.83 84.85,-64.952 82.058,-79.569 c -1.487,-7.789 -2.599,-16.535 2.019,-23.578 5.749,-8.768 16.411,-10.408 25.87,-7.501 14.67,4.509 27.907,13.833 39.472,23.66 11.157,9.48 21.163,20.298 30.838,31.259 21.579,24.448 41.13,50.635 60.73,76.669 19.683,26.143 39.12,52.472 58.307,78.981 19.109,26.4 37.969,52.979 56.58,79.732 9.343,13.432 18.624,26.908 27.841,40.427 9.045,13.268 18.445,26.406 26.913,40.052 4.121,6.641 7.735,13.895 9.333,21.589 0.919,4.424 -0.564,9.607 -4.825,11.858 -4.088,2.16 -9.395,1.806 -12.724,-1.642 C 374.58,263.113 347.844,233.198 322.987,201.761 297.79,169.894 274.355,136.604 254.018,101.411 233.953,66.687 216.871,30.117 204.008,-7.891 c -6.286,-18.574 -11.786,-37.592 -15.605,-56.838 -1.194,-6.015 -1.782,-11.896 -0.597,-17.955 1.19,-6.084 5.149,-11.569 10.42,-14.779 10.06,-6.125 22.713,-2.242 31.925,3.572 4.717,2.976 9.009,6.682 13.294,10.242 3.853,3.201 7.639,6.483 11.355,9.843 7.61,6.879 14.926,14.082 21.924,21.581 14.431,15.464 27.588,32.203 39.233,49.86 2.758,4.182 5.424,8.423 8.009,12.715 2.71,4.499 1.347,10.415 -2.704,13.545 -4.339,3.352 -9.745,2.61 -13.787,-0.821 -16.154,-13.712 -29.198,-31.405 -37.559,-50.871 -4.538,-10.565 -8.633,-21.833 -9.576,-33.38 -0.573,-7.025 1.38,-13.903 5.95,-19.292 4.064,-4.793 9.993,-7.047 16.104,-7.588 10.027,-0.886 20.3,3.958 28.351,9.481 9.233,6.333 18.089,13.287 26.405,20.785 16.307,14.703 30.612,31.752 42.428,50.253 3.604,5.642 7.193,11.372 9.576,17.655 2.693,7.098 1.978,15.553 -2.475,21.792 -4.234,5.932 -10.681,10.347 -17.893,11.759 -8.316,1.628 -16.405,0.383 -24.631,-1.186 -5.406,-1.031 -8.982,-7.821 -7.333,-12.916 1.867,-5.77 7.123,-8.439 12.916,-7.334 1.316,0.251 2.633,0.503 3.953,0.73 0.77,0.132 1.608,0.355 2.389,0.383 -2.404,-0.086 -0.968,-0.114 -0.398,-0.068 1.33,0.109 2.653,0.242 3.988,0.267 0.795,0.015 1.59,0.008 2.384,-0.033 0.396,-0.018 0.792,-0.046 1.187,-0.085 0.802,-0.077 0.528,-0.034 -0.822,0.132 0.884,0.115 2.417,-0.498 3.276,-0.778 0.29,-0.094 2.18,-0.794 0.418,-0.107 -1.738,0.678 0.074,-0.082 0.367,-0.239 0.439,-0.236 0.868,-0.489 1.288,-0.757 1,-0.637 0.797,-1.179 -0.433,0.432 0.533,-0.698 1.806,-1.96 2.496,-2.468 -1.58,1.164 -1.082,1.582 -0.629,0.722 0.218,-0.413 0.52,-1.168 0.828,-1.506 -1.237,1.355 -0.661,1.939 -0.437,0.908 0.276,-1.265 -0.086,-1.856 0.096,0.523 -0.027,-0.352 0.021,-1.048 0.072,-1.437 0.301,-2.282 0.611,2.201 0.068,-0.042 -0.113,-0.467 -0.213,-0.931 -0.345,-1.393 -0.135,-0.464 -0.285,-0.922 -0.45,-1.376 -0.415,-1.07 -0.341,-0.91 0.223,0.48 0.05,-0.869 -1.264,-2.532 -1.676,-3.276 -0.517,-0.932 -1.056,-1.853 -1.596,-2.772 -1.232,-2.099 -2.497,-4.178 -3.795,-6.237 -2.595,-4.118 -5.32,-8.153 -8.167,-12.101 -1.356,-1.879 -2.803,-3.695 -4.151,-5.578 1.798,2.512 -0.463,-0.579 -0.927,-1.162 -0.866,-1.088 -1.741,-2.169 -2.627,-3.241 -6.049,-7.329 -12.539,-14.294 -19.426,-20.843 -3.527,-3.354 -7.158,-6.598 -10.886,-9.728 -1.775,-1.49 -3.573,-2.953 -5.392,-4.39 -0.538,-0.425 -1.071,-0.906 -1.642,-1.285 0.201,0.134 1.925,1.463 0.471,0.371 -1.112,-0.836 -2.221,-1.675 -3.342,-2.497 -3.635,-2.665 -7.305,-5.39 -11.262,-7.563 -0.854,-0.469 -1.721,-0.913 -2.602,-1.33 -0.352,-0.167 -0.724,-0.312 -1.069,-0.49 2.753,1.422 1.069,0.443 0.336,0.166 -1.885,-0.714 -3.808,-1.262 -5.783,-1.659 -0.985,-0.198 -1.891,0.116 0.884,0.087 -0.441,0.004 -0.899,-0.087 -1.342,-0.109 -0.874,-0.044 -1.746,0.067 -2.613,0.038 -1.327,-0.043 2.871,-0.606 1.035,-0.127 -0.321,0.083 -0.648,0.141 -0.969,0.23 -1.114,0.309 -1.589,1.044 0.655,-0.392 -0.406,0.26 -0.889,0.435 -1.305,0.689 -1.302,0.797 -0.421,1.058 0.516,-0.454 -0.125,0.201 -0.597,0.585 -0.744,0.715 -1.452,1.281 1.303,-2.302 0.248,-0.375 -0.197,0.362 -0.427,0.724 -0.633,1.079 -1.079,1.851 0.541,-2.312 0.13,-0.218 -0.078,0.394 -0.21,0.817 -0.31,1.201 -0.563,2.165 0.056,-2.563 0.027,-0.304 -0.009,0.639 -0.062,1.275 -0.055,1.917 0.012,1.004 0.346,2.259 0.229,3.24 0.261,-2.182 -0.236,-1.677 -0.031,-0.529 0.095,0.533 0.199,1.065 0.31,1.595 0.5,2.389 1.114,4.759 1.775,7.108 1.242,4.416 2.722,8.765 4.425,13.024 0.145,0.362 0.68,1.195 0.633,1.554 -0.627,-1.475 -0.718,-1.693 -0.272,-0.654 0.089,0.206 0.179,0.411 0.268,0.616 0.54,1.229 1.099,2.45 1.676,3.663 1.154,2.425 2.383,4.815 3.683,7.165 2.491,4.505 5.245,8.865 8.242,13.05 0.201,0.28 2.372,3.256 2.396,3.239 0.035,-0.027 -1.411,-1.784 -0.408,-0.534 0.56,0.698 1.115,1.401 1.683,2.093 1.563,1.902 3.179,3.76 4.846,5.571 3.64,3.953 7.528,7.665 11.624,11.142 -5.497,4.241 -10.994,8.483 -16.491,12.724 -5.17,-8.583 -10.682,-16.957 -16.542,-25.085 -1.395,-1.935 -2.809,-3.856 -4.243,-5.763 -0.716,-0.954 -1.44,-1.901 -2.163,-2.85 -1.454,-1.909 1.07,1.364 0.11,0.143 -0.516,-0.657 -1.027,-1.317 -1.545,-1.972 -3.104,-3.932 -6.288,-7.801 -9.552,-11.601 -12.898,-15.022 -27.025,-28.99 -42.203,-41.704 -1.829,-1.532 -3.673,-3.045 -5.532,-4.54 -0.465,-0.374 -0.931,-0.746 -1.397,-1.118 -0.714,-0.568 -2.026,-1.078 0.339,0.244 -1.049,-0.586 -2.013,-1.466 -3.025,-2.123 -1.77,-1.148 -3.611,-2.119 -5.494,-3.062 -1.565,-0.784 0.606,0.307 0.797,0.32 -0.507,-0.033 -1.232,-0.469 -1.722,-0.631 -0.927,-0.306 -2.485,-1.041 -3.435,-0.881 0.019,-0.003 2.858,0.213 1.099,0.152 -0.556,-0.019 -1.104,-0.069 -1.662,-0.059 -0.333,0.007 -0.77,0.099 -1.086,0.059 2.288,0.288 2.031,-0.364 0.686,-0.003 -0.302,0.081 -0.723,0.296 -1.013,0.321 0.508,-0.214 1.017,-0.428 1.525,-0.642 -0.325,0.157 -0.641,0.329 -0.949,0.516 -0.936,0.46 -0.169,0.854 0.77,-0.671 -0.179,0.291 -1.735,2.249 -0.82,0.629 1.255,-2.223 -1.62,3.065 -0.415,0.709 0.823,-1.611 0.068,0.009 -0.04,0.406 -0.13,0.48 -0.208,0.967 -0.317,1.45 -0.313,1.388 0.148,-2.834 0.122,-0.69 -0.006,0.514 -0.05,1.027 -0.052,1.541 -0.007,1.157 0.099,2.298 0.178,3.45 0.158,2.31 -0.433,-2.56 -0.044,-0.278 0.07,0.415 0.137,0.83 0.211,1.244 0.188,1.043 0.407,2.079 0.629,3.115 0.534,2.489 1.091,4.973 1.666,7.453 1.095,4.724 2.262,9.431 3.498,14.12 2.464,9.349 5.202,18.625 8.198,27.817 2.919,8.955 6.082,17.829 9.471,26.616 1.736,4.5 3.531,8.976 5.383,13.429 0.246,0.591 0.447,1.373 0.798,1.907 -0.119,-0.181 -0.977,-2.298 -0.254,-0.604 0.45,1.056 0.9,2.113 1.356,3.167 1.001,2.321 2.018,4.634 3.05,6.941 7.803,17.447 16.461,34.506 25.821,51.168 9.469,16.855 19.659,33.301 30.428,49.355 5.375,8.014 10.895,15.929 16.545,23.752 2.863,3.965 5.76,7.906 8.689,11.824 1.395,1.867 2.798,3.728 4.208,5.585 0.704,0.928 1.411,1.855 2.12,2.781 0.354,0.463 0.709,0.925 1.064,1.388 0.386,0.503 2.095,2.69 0.28,0.368 23.928,30.6 49.313,59.944 76.031,88.141 3.271,3.451 6.559,6.885 9.861,10.305 -5.85,3.405 -11.7,6.811 -17.55,10.216 -0.347,-1.674 -0.774,-3.323 -1.314,-4.946 -0.268,-0.808 -0.595,-1.595 -0.872,-2.4 -0.388,-1.128 0.363,0.827 0.362,0.82 -0.122,-0.562 -0.514,-1.151 -0.757,-1.666 -1.468,-3.113 -3.197,-6.096 -5.027,-9.009 -3.963,-6.309 -8.237,-12.432 -12.403,-18.607 -8.623,-12.779 -17.301,-25.52 -26.036,-38.222 C 336.27,187.981 318.653,162.842 300.816,137.86 282.9,112.768 264.762,87.835 246.404,63.065 237.225,50.68 227.991,38.335 218.703,26.032 214.118,19.96 209.525,13.895 204.907,7.848 c -1.037,-1.357 -2.075,-2.714 -3.115,-4.07 -0.56,-0.729 -1.12,-1.459 -1.682,-2.188 -0.32,-0.417 -0.641,-0.833 -0.962,-1.249 -0.75,-0.974 -0.273,-0.361 0.196,0.253 -2.314,-3.029 -4.676,-6.021 -7.034,-9.015 -9.183,-11.659 -18.6,-23.14 -28.47,-34.227 -9.202,-10.337 -18.712,-20.516 -29.271,-29.491 -1.246,-1.059 -2.507,-2.1 -3.785,-3.12 -0.273,-0.218 -0.551,-0.432 -0.823,-0.652 -1.097,-0.887 1.595,1.204 0.468,0.357 -0.745,-0.56 -1.486,-1.123 -2.237,-1.673 -2.622,-1.92 -5.313,-3.744 -8.081,-5.448 -2.859,-1.76 -5.798,-3.391 -8.816,-4.864 -0.626,-0.305 -1.254,-0.603 -1.886,-0.894 -0.303,-0.14 -2.84,-1.228 -1.295,-0.596 1.565,0.64 -0.952,-0.379 -1.332,-0.524 -0.797,-0.306 -1.601,-0.594 -2.417,-0.845 -0.726,-0.224 -1.459,-0.42 -2.201,-0.582 -0.298,-0.065 -0.668,-0.083 -0.953,-0.191 1.906,0.72 1.868,0.168 0.888,0.137 -0.627,-0.019 -1.245,-0.024 -1.871,-0.018 -1.757,0.016 0.818,-0.007 0.984,-0.132 -0.179,0.135 -0.921,0.309 -1.151,0.329 1.796,-0.158 1.747,-0.891 0.883,-0.287 -0.042,0.03 1.607,-1.505 0.914,-0.732 -1.559,1.737 0.75,-1.693 0.054,-0.217 -0.107,0.227 -0.374,0.823 -0.511,0.964 0.047,-0.048 0.717,-2.161 0.571,-1.221 -0.082,0.531 -0.624,3.006 -0.32,1.096 0.297,-1.865 0.05,0.395 0.051,0.937 0.002,0.695 0.037,1.389 0.092,2.082 0.071,0.886 0.627,3.04 -0.06,-0.14 0.156,0.719 0.245,1.46 0.379,2.184 0.616,3.343 1.335,6.667 2.156,9.965 1.613,6.484 3.612,12.87 5.981,19.117 0.54,1.425 1.108,2.839 1.677,4.253 0.686,1.703 -0.141,-0.334 -0.246,-0.561 0.147,0.319 0.277,0.647 0.416,0.969 0.372,0.861 0.751,1.719 1.137,2.573 1.399,3.098 2.891,6.155 4.473,9.164 3.109,5.913 6.566,11.644 10.35,17.15 0.863,1.256 1.743,2.499 2.64,3.731 0.483,0.664 0.971,1.323 1.464,1.979 0.211,0.281 0.424,0.561 0.636,0.842 1.426,1.892 -1.009,-1.261 -0.137,-0.178 1.954,2.429 3.849,4.906 6.07,7.096 1.186,1.169 -1.95,-1.248 -0.493,-0.387 0.521,0.308 1.039,0.626 1.559,0.936 1.932,1.151 -1.923,-0.546 -0.429,-0.143 0.227,0.061 0.471,0.134 0.691,0.214 1.749,0.637 -0.905,-0.328 -1.219,-0.064 0.028,-0.024 3.094,-0.206 0.256,0.14 -1.75,0.213 -1.096,0.153 -0.64,0.012 -1.215,0.375 -2.503,0.972 -3.36,1.934 0.175,-0.196 -1.529,2.244 -1.032,1.357 0.494,-0.881 -0.685,1.759 -0.609,1.511 -0.309,1.014 -0.165,2.173 0.069,3.19 -0.336,-1.46 0.09,0.635 0.378,0.785 0.107,0.056 -0.715,-1.066 -0.693,-1.096 -0.07,0.097 1.409,1.589 0.606,0.835 -0.562,-0.527 -1.068,-1.144 -1.612,-1.695 -1.249,-1.267 -2.502,-2.53 -3.756,-3.793 -2.346,-2.364 -4.697,-4.723 -7.06,-7.071 -9.625,-9.56 -19.456,-18.937 -29.903,-27.601 -1.276,-1.058 -2.561,-2.106 -3.856,-3.141 -0.647,-0.517 -1.296,-1.032 -1.947,-1.542 -0.279,-0.219 -0.56,-0.436 -0.839,-0.655 -1.101,-0.864 2.062,1.564 0.159,0.129 -2.635,-1.989 -5.293,-3.945 -8.006,-5.827 -5.506,-3.821 -11.199,-7.375 -17.091,-10.57 -2.899,-1.573 -5.845,-3.058 -8.837,-4.446 -0.75,-0.347 -1.503,-0.689 -2.259,-1.025 -0.433,-0.192 -0.867,-0.38 -1.301,-0.569 -0.262,-0.115 -1.407,-0.612 -0.054,-0.026 1.352,0.586 0.206,0.091 -0.061,-0.015 -0.444,-0.174 -0.885,-0.354 -1.329,-0.527 -0.892,-0.346 -1.788,-0.682 -2.689,-1.004 -3.17,-1.134 -6.395,-2.114 -9.671,-2.892 -1.631,-0.388 -3.275,-0.727 -4.928,-1.006 -0.353,-0.06 -0.708,-0.107 -1.06,-0.17 -1.438,-0.261 2.121,0.233 0.67,0.082 -0.943,-0.098 -1.882,-0.209 -2.827,-0.281 -3.296,-0.253 -6.522,-0.117 -9.811,0.103 -1.44,0.096 2.144,-0.357 0.723,-0.111 -0.342,0.059 -0.686,0.106 -1.028,0.166 -0.798,0.138 -1.591,0.301 -2.379,0.484 -1.694,0.393 -3.364,0.887 -4.995,1.491 -0.328,0.121 -0.651,0.257 -0.978,0.379 -1.084,0.401 0.884,-0.364 0.892,-0.371 -0.466,0.449 -1.555,0.741 -2.15,1.06 -0.677,0.364 -1.342,0.75 -1.986,1.168 -0.336,0.218 -0.736,0.593 -1.084,0.747 0.48,-0.212 1.55,-1.39 0.6,-0.405 -0.361,0.374 -1.879,2.132 -0.952,0.827 1.163,-1.638 -0.662,1.077 -0.606,1.097 0.089,0.033 0.668,-2.028 0.373,-0.916 -0.117,0.44 -0.284,0.868 -0.395,1.312 -0.067,0.269 -0.077,0.769 -0.215,1.003 0.249,-0.423 0.158,-2.241 0.146,-0.741 -0.006,0.818 -0.03,1.624 0.019,2.442 0.026,0.427 0.276,1.951 -0.016,0.367 -0.282,-1.532 -0.046,-0.286 0.012,0.017 0.335,1.758 0.709,3.495 1.156,5.229 0.961,3.729 1.986,7.442 3.046,11.144 2.056,7.179 4.279,14.309 6.666,21.384 2.388,7.076 4.945,14.092 7.654,21.051 0.929,2.388 0.183,5.969 -1.059,8.091 C 17.917,4.686 15.419,6.763 12.916,7.334 6.893,8.706 2.138,5.493 0,0"
             style="fill:#fcee21;fill-opacity:1;fill-rule:nonzero;stroke:none"
             id="path32" />
        </g>
        <g
           id="g34"
           transform="translate(592.8621,337.796)">
          <path
             d="m 0,0 c -7.978,-23.524 -13.691,-47.764 -17.054,-72.375 -1.545,-11.309 -4.056,-23.497 -1.249,-34.805 1.308,-5.271 4.054,-10.171 8.373,-13.508 5.84,-4.512 13.479,-5.162 20.223,-2.316 6.004,2.534 10.998,6.952 15.739,11.351 4.158,3.859 8.042,8.003 11.753,12.292 8.276,9.564 15.841,19.752 23.544,29.776 15.598,20.297 31.009,40.738 46.231,61.318 17.024,23.018 33.809,46.213 50.359,69.575 -6.044,3.533 -12.088,7.066 -18.133,10.599 -27.043,-43.8 -52.373,-88.654 -75.879,-134.45 -6.63,-12.917 -13.113,-25.908 -19.456,-38.968 -2.396,-4.932 -1.508,-11.579 3.767,-14.366 5.225,-2.76 11.174,-1.163 14.366,3.767 7.261,11.215 14.67,22.336 22.389,33.242 3.787,5.352 7.648,10.652 11.599,15.885 1.03,1.364 2.068,2.722 3.109,4.077 -1.524,-1.984 0.227,0.288 0.451,0.575 0.35,0.449 0.701,0.897 1.052,1.345 2.107,2.683 4.242,5.345 6.405,7.983 8.427,10.275 17.299,20.195 26.738,29.552 4.587,4.548 9.308,8.963 14.172,13.215 2.321,2.028 4.674,4.02 7.06,5.972 1.301,1.064 2.612,2.116 3.932,3.155 0.304,0.239 2.549,1.959 0.529,0.42 0.668,0.509 1.336,1.019 2.008,1.524 5.831,4.38 11.849,8.512 18.049,12.352 3.235,2.002 6.516,3.939 9.853,5.765 0.558,0.306 1.13,0.586 1.689,0.888 1.051,0.484 0.917,0.432 -0.402,-0.156 0.476,0.176 0.959,0.331 1.448,0.466 2.205,0.895 -2.2,0.036 0.082,0.059 1.181,-0.053 0.925,-0.014 -0.769,0.117 -0.884,0.241 -1.65,0.685 -2.297,1.332 -0.9,3.406 -1.8,6.811 -2.7,10.216 -1.064,-4.627 -2.432,-9.172 -4.086,-13.624 -0.366,-0.985 -0.745,-1.966 -1.136,-2.942 -0.04,-0.1 -1.027,-2.503 -0.373,-0.935 0.562,1.346 -0.105,-0.233 -0.248,-0.559 -1.006,-2.296 -2.072,-4.564 -3.185,-6.809 -4.201,-8.477 -9.072,-16.6 -14.033,-24.649 -10.316,-16.734 -20.947,-33.33 -27.686,-51.916 -3.349,-9.237 -6.543,-19.804 -4.104,-29.631 1.671,-6.733 6.566,-12.071 13.113,-14.306 6.015,-2.053 12.703,-0.619 18.446,1.604 20.642,7.991 38.573,20.847 54.964,35.553 16.664,14.951 32.04,31.395 47.393,47.667 16.505,17.493 32.714,35.263 48.868,53.079 32.846,36.226 65.646,72.492 98.468,108.739 16.392,18.104 32.785,36.207 49.178,54.311 15.756,17.4 32.72,34.324 46.063,53.715 3.034,4.409 5.794,8.991 8.224,13.76 2.055,4.033 1.903,9.47 -1.642,12.725 -3.268,3 -8.805,4.338 -12.724,1.641 C 467.903,249.506 435,223.222 404.221,194.685 373.879,166.553 345.581,136.22 319.615,104.005 293.355,71.426 269.335,37.059 248.046,1.029 c -5.558,-9.405 -11.098,-18.868 -15.884,-28.695 -5.329,-10.94 -10.754,-23.044 -11.449,-35.368 -0.75,-13.316 7.468,-23.813 19.473,-28.482 11.414,-4.439 23.672,-1.347 34.341,3.589 10.213,4.726 19.875,10.994 29.301,17.109 9.402,6.099 18.573,12.55 27.565,19.239 18.749,13.948 36.768,28.836 54.58,43.953 4.342,3.685 8.673,7.382 13.004,11.08 -4.95,4.949 -9.899,9.899 -14.849,14.849 -10.542,-11.14 -20.33,-22.955 -29.44,-35.292 -4.474,-6.058 -8.753,-12.26 -12.829,-18.593 -4.121,-6.403 -8.137,-12.838 -10.758,-20.029 -2.93,-8.04 -2.978,-17.418 1.52,-24.913 3.614,-6.021 9.515,-10.027 16.149,-12.057 12.074,-3.696 25.414,-0.777 37.041,3.133 25.163,8.461 47.064,24.379 63.182,45.415 3.635,4.743 6.948,9.718 9.833,14.954 3.708,6.726 7.118,14.042 8.364,21.671 1.379,8.439 0.618,16.605 -3.26,24.3 -3.06,6.071 -8.219,10.957 -13.808,14.688 -11.814,7.886 -27.267,10.343 -41.171,8.567 -16.115,-2.06 -30.454,-9.168 -40.122,-22.484 -3.239,-4.46 -0.909,-11.896 3.766,-14.366 5.449,-2.879 10.91,-0.994 14.366,3.767 1.509,2.077 -1.507,-1.678 0.186,0.234 0.328,0.371 0.644,0.75 0.978,1.115 0.913,0.999 1.882,1.945 2.897,2.84 0.412,0.364 0.911,0.958 1.408,1.185 -2.023,-0.925 -0.755,-0.583 -0.062,-0.097 1.109,0.778 2.254,1.502 3.432,2.171 1.079,0.613 2.198,1.134 3.3,1.699 2.27,1.162 -2.165,-0.759 0.238,0.116 0.587,0.213 1.168,0.443 1.758,0.649 2.495,0.873 5.055,1.553 7.65,2.051 0.614,0.118 1.626,0.475 2.245,0.386 -1.739,0.252 -1.492,-0.165 -0.531,-0.078 1.389,0.127 2.773,0.26 4.168,0.319 2.645,0.111 5.297,0.051 7.934,-0.186 0.727,-0.065 2.952,-0.639 0.103,0.04 0.46,-0.11 0.965,-0.146 1.435,-0.227 1.323,-0.229 2.637,-0.509 3.938,-0.838 1.189,-0.301 2.367,-0.644 3.531,-1.03 0.582,-0.193 1.16,-0.395 1.734,-0.61 0.459,-0.171 0.914,-0.35 1.367,-0.535 -0.388,0.161 -0.775,0.321 -1.163,0.482 0.905,0.016 2.445,-1.174 3.253,-1.622 1.152,-0.637 2.272,-1.331 3.352,-2.083 1.205,-0.838 1.192,-0.052 -0.138,0.156 0.374,-0.059 1.039,-0.875 1.335,-1.142 0.954,-0.86 1.795,-1.806 2.676,-2.735 1.638,-1.727 -1.246,1.932 0.046,-0.063 0.25,-0.386 0.513,-0.763 0.754,-1.156 0.363,-0.591 0.661,-1.215 1.012,-1.812 1.165,-1.979 -0.538,1.678 -0.074,0.275 0.399,-1.207 0.655,-2.5 1.079,-3.686 0.54,-1.511 -0.041,2.373 0.077,-0.326 0.039,-0.897 0.1,-1.788 0.086,-2.687 -0.014,-0.903 -0.113,-1.793 -0.164,-2.693 0.117,2.08 0.103,0.619 -0.014,0.104 -0.371,-1.644 -0.718,-3.272 -1.217,-4.885 -0.228,-0.736 -0.472,-1.466 -0.732,-2.191 0.026,0.074 -1.038,-2.768 -0.481,-1.335 0.554,1.424 -0.608,-1.356 -0.58,-1.294 -0.385,-0.837 -0.787,-1.666 -1.201,-2.489 -2.468,-4.911 -5.323,-9.634 -8.481,-14.133 -0.746,-1.062 -1.522,-2.102 -2.29,-3.149 -1.571,-2.143 1.417,1.719 -0.264,-0.339 -0.411,-0.503 -0.812,-1.012 -1.224,-1.514 -1.732,-2.106 -3.534,-4.154 -5.405,-6.138 -3.743,-3.969 -7.754,-7.685 -11.994,-11.118 -0.605,-0.489 -1.207,-0.99 -1.832,-1.454 1.945,1.442 0.44,0.352 -0.046,-0.009 -1.043,-0.775 -2.098,-1.533 -3.165,-2.275 -2.24,-1.557 -4.531,-3.039 -6.87,-4.443 -4.609,-2.765 -9.507,-5.557 -14.556,-7.441 2.59,0.967 0.09,0.055 -0.372,-0.129 -0.603,-0.239 -1.208,-0.473 -1.815,-0.702 -1.215,-0.459 -2.436,-0.897 -3.665,-1.315 -2.582,-0.878 -5.194,-1.665 -7.831,-2.357 -2.467,-0.647 -4.953,-1.061 -7.435,-1.611 -1.496,-0.331 2.742,0.242 0.397,0.067 -0.577,-0.043 -1.152,-0.108 -1.73,-0.147 -1.27,-0.087 -2.543,-0.124 -3.816,-0.099 -0.688,0.013 -1.376,0.043 -2.062,0.093 -0.283,0.021 -2.492,0.35 -0.632,0.026 1.871,-0.326 -0.33,0.081 -0.59,0.133 -0.539,0.108 -1.073,0.231 -1.605,0.372 -0.523,0.138 -1.042,0.289 -1.556,0.462 -0.308,0.103 -2.281,0.58 -0.526,0.164 1.609,-0.381 -0.022,0.065 -0.438,0.297 -0.333,0.187 -1.18,0.978 -1.57,0.991 1.121,-0.036 1.627,-1.431 0.235,-0.066 -0.336,0.33 -1.201,1.757 -0.415,0.331 1.133,-2.056 -1.347,2.779 -0.693,1.174 0.603,-1.481 -0.26,1.099 -0.273,1.14 -0.785,2.32 -0.13,-1.335 -0.024,0.076 0.05,0.666 0.014,1.41 0.005,2.079 -0.032,2.313 -0.509,-1.521 0.089,0.564 0.487,1.695 0.921,3.364 1.539,5.021 -0.849,-2.277 0.23,0.455 0.385,0.774 0.392,0.809 0.804,1.608 1.231,2.399 1.74,3.229 3.728,6.33 5.695,9.423 3.958,6.223 8.112,12.32 12.452,18.281 1.016,1.395 2.042,2.783 3.079,4.163 0.565,0.753 1.135,1.502 1.704,2.251 1.883,2.481 -1.262,-1.595 0.66,0.856 2.323,2.964 4.681,5.899 7.092,8.792 4.823,5.785 9.836,11.407 15.013,16.878 3.778,3.991 4.258,10.941 0,14.849 -4.463,4.097 -10.377,3.818 -14.849,0 -16.73,-14.282 -33.47,-28.564 -50.773,-42.152 -1.119,-0.879 -2.243,-1.753 -3.365,-2.628 -0.269,-0.21 -1.575,-1.213 -0.126,-0.099 -0.502,-0.386 -1.003,-0.772 -1.505,-1.156 -2.257,-1.73 -4.526,-3.447 -6.805,-5.148 -4.303,-3.211 -8.646,-6.368 -13.037,-9.458 -9.033,-6.358 -18.265,-12.437 -27.735,-18.125 -4.568,-2.744 -9.17,-5.476 -13.917,-7.899 -1.249,-0.637 -2.526,-1.204 -3.785,-1.818 -1.456,-0.709 1.465,0.503 -0.061,-0.023 -0.583,-0.2 -1.153,-0.442 -1.735,-0.647 -1.303,-0.459 -2.625,-0.866 -3.966,-1.201 -0.595,-0.148 -1.197,-0.26 -1.793,-0.4 -1.98,-0.468 0.857,-0.034 -0.393,-0.097 -1.171,-0.059 -2.322,-0.17 -3.497,-0.136 -0.473,0.014 -0.943,0.054 -1.416,0.082 -1.691,0.099 0.709,-0.019 0.673,-0.104 -0.063,-0.152 -2.459,0.54 -2.777,0.632 -0.456,0.132 -0.899,0.298 -1.354,0.432 -2.227,0.655 1.924,-1.088 -0.094,0.032 -0.815,0.452 -1.615,0.92 -2.419,1.389 -1.779,1.039 0.577,-0.347 0.463,-0.406 -0.059,-0.031 -0.89,0.786 -1.023,0.914 -0.396,0.382 -0.744,0.904 -1.168,1.246 -0.992,0.801 0.888,-1.668 0.413,-0.485 -0.165,0.409 -0.49,0.787 -0.703,1.181 -0.723,1.341 -0.639,0.466 0.004,-0.079 -0.404,0.343 -0.422,1.676 -0.571,2.187 -0.423,1.453 -0.078,-1.614 0.043,-0.103 0.094,1.164 0.058,2.474 0.075,3.648 0.023,1.7 -0.572,-2.374 0.072,0.415 0.139,0.604 0.242,1.217 0.381,1.821 0.31,1.357 0.685,2.697 1.084,4.03 0.765,2.556 1.632,5.081 2.577,7.577 0.445,1.174 0.919,2.335 1.387,3.5 -0.712,-1.771 -0.105,-0.247 0.045,0.093 0.382,0.861 0.761,1.723 1.154,2.58 4.48,9.793 9.876,19.149 15.297,28.443 9.989,17.125 20.585,33.896 31.755,50.275 5.666,8.308 11.479,16.515 17.436,24.617 2.893,3.935 5.82,7.846 8.781,11.731 0.697,0.914 1.395,1.827 2.095,2.738 0.35,0.456 0.701,0.911 1.052,1.366 -1.335,-1.729 -0.131,-0.172 0.206,0.26 1.587,2.042 3.183,4.076 4.788,6.104 24.706,31.197 51.589,60.672 80.388,88.136 14.451,13.782 29.383,27.058 44.765,39.793 3.873,3.206 7.774,6.378 11.703,9.515 1.797,1.435 3.599,2.861 5.407,4.281 0.904,0.709 1.809,1.417 2.716,2.123 0.567,0.442 1.135,0.881 1.702,1.322 0.989,0.768 -1.314,-1.008 0.263,0.201 7.983,6.118 16.054,12.115 24.242,17.956 3.976,2.837 7.979,5.637 12.003,8.405 -4.788,4.789 -9.577,9.578 -14.366,14.366 -2.43,-4.769 -5.189,-9.351 -8.224,-13.76 -1.474,-2.143 -3.014,-4.237 -4.582,-6.311 1.283,1.697 -0.895,-1.128 -1.19,-1.496 -0.959,-1.199 -1.932,-2.386 -2.914,-3.565 -6.942,-8.336 -14.346,-16.285 -21.626,-24.324 C 444.247,202.48 428.316,184.887 412.385,167.293 380.408,131.979 348.431,96.664 316.454,61.349 285.45,27.111 254.579,-7.314 221.994,-40.069 c -7.166,-7.204 -14.475,-14.279 -22.167,-20.924 -1.889,-1.633 -3.801,-3.239 -5.739,-4.814 -0.91,-0.739 -1.826,-1.472 -2.748,-2.196 -0.422,-0.332 -2.01,-1.53 -0.304,-0.241 -0.584,-0.441 -1.165,-0.883 -1.752,-1.32 -4.088,-3.047 -8.298,-5.933 -12.644,-8.6 -4.21,-2.583 -8.547,-4.961 -13.011,-7.076 -1.052,-0.499 -2.115,-0.974 -3.177,-1.452 -1.811,-0.815 -0.263,-0.118 0.095,0.028 -0.541,-0.221 -1.081,-0.443 -1.624,-0.659 -1.941,-0.769 -5.139,-2.516 -7.285,-2.279 2.218,-0.245 0.904,0.081 0.328,0.125 -2.566,0.195 1.488,-0.665 0.005,-0.101 -0.129,0.029 -0.258,0.059 -0.387,0.088 -0.933,0.305 -1.011,0.325 -0.233,0.062 0.175,-0.061 0.35,-0.121 0.525,-0.181 -0.753,0.502 -0.756,0.491 -0.009,-0.034 l 0.557,-0.402 c -0.591,0.649 -0.596,0.619 -0.014,-0.091 1.325,-1.625 -0.347,0.564 -0.206,0.56 0.296,-0.011 0.713,-2.526 0.351,-0.678 -0.106,0.539 -0.228,1.118 -0.381,1.642 -0.389,1.335 0.091,-2.137 0.135,-0.725 0.014,0.469 -0.042,0.945 -0.042,1.416 0.002,1.05 0.262,2.177 0.2,3.216 0.017,-0.289 -0.461,-2.475 -0.055,-0.685 0.103,0.45 0.18,0.909 0.278,1.36 0.281,1.292 0.605,2.576 0.946,3.854 1.151,4.322 2.593,8.565 4.252,12.717 0.187,0.468 0.362,1.008 0.594,1.462 -1.051,-2.056 -0.352,-0.822 -0.135,-0.328 0.424,0.964 0.849,1.928 1.289,2.885 0.992,2.16 2.034,4.297 3.116,6.413 4.249,8.313 9.099,16.3 14.006,24.236 9.991,16.156 20.124,32.258 26.659,50.199 1.536,4.214 2.808,8.513 3.813,12.884 0.804,3.496 0.155,7.727 -2.7,10.216 -8.141,7.095 -17.703,4.774 -26.311,-0.04 C 172.082,37.036 166.107,33.314 160.306,29.34 148.477,21.238 137.269,12.175 126.775,2.41 105.987,-16.932 87.957,-39.056 71.322,-62.01 61.975,-74.907 53.107,-88.142 44.451,-101.511 c 6.044,-3.533 12.089,-7.066 18.133,-10.599 22.49,46.303 46.789,91.724 72.859,136.11 7.354,12.519 14.849,24.954 22.476,37.308 2.89,4.679 1.164,11.761 -3.767,14.366 -5.399,2.852 -10.966,1.031 -14.366,-3.767 C 111.943,32.605 83.429,-6.221 54.247,-44.54 c -3.673,-4.824 -7.357,-9.639 -11.051,-14.446 -1.642,-2.137 -3.286,-4.272 -4.932,-6.405 0.14,0.182 -1.884,-2.44 -1.032,-1.337 0.685,0.886 -0.535,-0.691 -0.697,-0.9 -0.94,-1.216 -1.881,-2.43 -2.826,-3.642 -6.701,-8.59 -13.604,-17.08 -21.521,-24.591 -2.004,-1.901 -4.089,-3.696 -6.196,-5.48 -0.354,-0.3 -1.669,-1.218 0.073,0.02 -0.466,-0.332 -0.921,-0.677 -1.397,-0.994 -0.473,-0.316 -0.957,-0.625 -1.452,-0.908 -0.488,-0.284 -0.989,-0.545 -1.5,-0.785 l 0.963,0.437 c -10e-4,-0.003 -1.385,-0.469 -1.584,-0.421 l 1.173,0.193 c -1.046,0.046 -1.092,0.019 -0.138,-0.08 1.519,-0.332 0.183,0.017 -0.175,0.14 -1.326,0.451 2.434,-1.268 0.694,-0.258 -1.456,0.846 1.925,-1.691 -0.013,0.105 -0.901,0.835 0.491,0.432 0.595,-0.789 -0.022,0.256 -0.742,1.279 -0.88,1.516 -0.638,1.093 0.51,0.267 0.335,-0.841 0.03,0.191 -0.323,0.929 -0.401,1.181 -0.285,0.927 -0.47,1.868 -0.676,2.814 -0.091,0.414 -0.42,1.876 -0.06,0.232 0.397,-1.817 0.008,0.252 -0.015,0.586 -0.078,1.1 -0.107,2.205 -0.092,3.307 0.066,5.124 0.827,10.293 1.443,15.374 0.098,0.811 0.199,1.621 0.302,2.431 0.032,0.249 0.383,2.854 0.198,1.519 -0.215,-1.551 0.233,1.628 0.217,1.516 0.116,0.808 0.235,1.616 0.356,2.424 0.484,3.23 1.009,6.454 1.575,9.671 1.132,6.434 2.427,12.839 3.885,19.207 C 12.37,-30.846 16,-18.113 20.25,-5.583 22.016,-0.376 18.224,6.125 12.916,7.334 7.097,8.659 1.891,5.574 0,0"
             style="fill:#fcee21;fill-opacity:1;fill-rule:nonzero;stroke:none"
             id="path36" />
        </g>
        <g
           id="g38"
           transform="translate(1026.1072,355.1827)">
          <path
             d="m 0,0 c 22.111,1.805 44.154,4.382 66.099,7.633 21.209,3.141 42.314,6.984 63.269,11.518 20.956,4.535 41.762,9.76 62.374,15.664 20.611,5.904 41.029,12.487 61.206,19.738 20.848,7.493 41.425,15.721 61.735,24.568 2.423,1.055 4.842,2.122 7.257,3.197 2.251,1.001 4.201,4.006 4.825,6.275 0.693,2.513 0.38,5.86 -1.058,8.091 -1.446,2.242 -3.598,4.215 -6.275,4.825 -2.922,0.665 -5.373,0.151 -8.091,-1.059 -5.725,-2.547 -11.473,-5.041 -17.245,-7.48 0.836,0.353 1.673,0.706 2.509,1.058 C 265.574,80.936 233.871,69.451 201.651,59.641 169.433,49.833 136.706,41.693 103.647,35.266 85.003,31.64 66.253,28.567 47.429,26.035 48.36,26.16 49.29,26.285 50.221,26.41 33.53,24.175 16.784,22.37 0,21 -2.825,20.769 -5.365,19.984 -7.425,17.925 -9.246,16.103 -10.617,13.116 -10.5,10.5 -10.262,5.194 -5.863,-0.479 0,0"
             style="fill:#fcee21;fill-opacity:1;fill-rule:nonzero;stroke:none"
             id="path40" />
        </g>
        <g
           id="g42"
           transform="translate(810.5054,411.4705)">
          <path
             d="M 0,0 C 0.386,0.307 0.773,0.613 1.16,0.919 1.364,1.08 2.373,1.87 1.266,1.005 0.159,0.14 1.168,0.926 1.377,1.082 c 0.394,0.295 0.786,0.593 1.182,0.887 1.48,1.1 2.979,2.177 4.494,3.23 2.926,2.034 5.913,3.981 8.949,5.846 6.083,3.735 12.366,7.14 18.779,10.27 3.217,1.57 6.467,3.072 9.743,4.514 0.792,0.348 1.586,0.693 2.38,1.035 0.341,0.146 0.683,0.29 1.024,0.437 1.34,0.576 -1.808,-0.747 -0.457,-0.195 1.718,0.703 3.432,1.414 5.156,2.099 6.671,2.652 13.422,5.097 20.22,7.403 14.309,4.855 28.808,9.241 43.564,12.525 3.766,0.838 7.548,1.603 11.345,2.28 1.829,0.326 3.661,0.631 5.497,0.915 0.916,0.142 1.833,0.278 2.751,0.408 0.37,0.053 0.825,0.053 1.18,0.165 -2.23,-0.707 -0.804,-0.111 -0.036,-0.016 7.579,0.938 15.213,1.473 22.852,1.485 3.806,0.005 7.613,-0.117 11.409,-0.386 1.835,-0.129 3.667,-0.291 5.495,-0.488 0.915,-0.099 1.828,-0.216 2.743,-0.323 1.224,-0.144 -0.797,0.111 -0.835,0.112 0.649,-0.027 1.316,-0.191 1.956,-0.291 7.077,-1.103 14.046,-2.792 20.899,-4.866 13.39,-4.054 26.299,-9.494 39.285,-14.655 13.002,-5.167 26.178,-10.112 39.898,-13.016 15.599,-3.301 31.124,-3.639 46.882,-1.466 29.859,4.117 57.703,17.53 84.145,31.359 3.281,1.715 6.551,3.449 9.82,5.187 4.856,2.583 6.754,9.732 3.766,14.366 -3.182,4.937 -9.171,6.53 -14.366,3.767 -13.151,-6.995 -26.36,-13.918 -40.005,-19.912 -0.823,-0.361 -1.648,-0.719 -2.474,-1.074 -0.335,-0.144 -1.88,-0.809 -0.518,-0.223 1.283,0.552 0.068,0.03 -0.165,-0.066 -1.777,-0.728 -3.555,-1.454 -5.344,-2.152 -3.441,-1.342 -6.912,-2.609 -10.414,-3.783 -6.93,-2.322 -13.986,-4.282 -21.153,-5.721 -1.717,-0.345 -3.44,-0.66 -5.169,-0.943 -0.863,-0.141 -1.729,-0.261 -2.593,-0.399 -1.474,-0.235 2.047,0.247 0.564,0.072 -0.496,-0.058 -0.991,-0.123 -1.487,-0.181 -3.6,-0.417 -7.217,-0.687 -10.839,-0.791 -3.773,-0.108 -7.551,-0.037 -11.316,0.225 -1.603,0.112 -3.203,0.259 -4.8,0.439 -0.479,0.055 -0.957,0.118 -1.437,0.172 -1.206,0.136 1.016,-0.139 1.001,-0.135 -0.925,0.215 -1.914,0.283 -2.853,0.439 -13.815,2.292 -27.111,6.897 -40.128,11.95 -13.264,5.148 -26.342,10.811 -39.868,15.258 -14.582,4.794 -29.658,7.733 -45.014,8.382 C 135.659,76.555 104.358,68.941 74.674,59.315 46.948,50.324 19.175,39.418 -4.754,22.484 c -3.444,-2.437 -6.794,-5.007 -10.095,-7.635 -1.966,-1.564 -3.076,-5.035 -3.076,-7.424 0,-2.576 1.144,-5.652 3.076,-7.425 2.001,-1.837 4.628,-3.201 7.424,-3.075 C -4.468,-2.943 -2.299,-1.83 0,0"
             style="fill:#fcee21;fill-opacity:1;fill-rule:nonzero;stroke:none"
             id="path44" />
        </g>
        <g
           id="g46"
           transform="translate(54.473,75.9108)">
          <path
             d="m 0,0 c 3.077,27.608 26.948,47.108 50.175,58.794 30.662,15.426 66.624,20.092 100.503,21.826 39.051,1.998 78.348,-0.089 117.328,-2.606 39.735,-2.565 79.385,-6.265 119.009,-10.145 78.743,-7.71 157.54,-16.18 236.705,-17.815 75.525,-1.559 151.68,3.052 225.501,19.844 74.884,17.035 144.124,49.208 211.53,85.285 8.411,4.502 16.798,9.049 25.178,13.609 11.875,6.462 1.287,24.601 -10.599,18.133 C 1007.691,150.119 939.133,114.769 864.245,95.183 790.157,75.806 713.317,70.016 636.948,70.845 557.302,71.709 477.995,79.903 398.8,87.711 358.105,91.723 317.393,95.644 276.593,98.442 237.14,101.148 197.39,103.408 157.838,101.935 121.323,100.575 83.554,96.005 49.685,81.581 21.966,69.775 -4.218,50.269 -15.868,21.63 -18.711,14.642 -20.166,7.479 -21,0 c -0.629,-5.645 5.276,-10.5 10.5,-10.5 6.199,0 9.869,4.839 10.5,10.5"
             style="fill:#fcee21;fill-opacity:1;fill-rule:nonzero;stroke:none"
             id="path48" />
        </g>
      </g>
    </g>
  </g>
</svg>
