<?xml version="1.0" encoding="UTF-8" standalone="no"?>
<!-- Created with Inkscape (http://www.inkscape.org/) -->

<svg
   version="1.1"
   id="svg2"
   width="816"
   height="1056"
   viewBox="0 0 816 1056"
   sodipodi:docname="PersonalLogo3.ai"
   xmlns:inkscape="http://www.inkscape.org/namespaces/inkscape"
   xmlns:sodipodi="http://sodipodi.sourceforge.net/DTD/sodipodi-0.dtd"
   xmlns="http://www.w3.org/2000/svg"
   xmlns:svg="http://www.w3.org/2000/svg">
  <defs
     id="defs6">
    <clipPath
       clipPathUnits="userSpaceOnUse"
       id="clipPath16">
      <path
         d="M 0,792 H 612 V 0 H 0 Z"
         id="path14" />
    </clipPath>
  </defs>
  <sodipodi:namedview
     id="namedview4"
     pagecolor="#ffffff"
     bordercolor="#000000"
     borderopacity="0.25"
     inkscape:showpageshadow="2"
     inkscape:pageopacity="0.0"
     inkscape:pagecheckerboard="0"
     inkscape:deskcolor="#d1d1d1" />
  <g
     id="g8"
     inkscape:groupmode="layer"
     inkscape:label="PersonalLogo3"
     transform="matrix(1.3333333,0,0,-1.3333333,0,1056)">
    <g
       id="g10">
      <g
         id="g12"
         clip-path="url(#clipPath16)">
        <g
           id="g18"
           transform="translate(432.5789,453.7281)">
          <path
             d="M 0,0 C 3.217,0 3.223,5 0,5 -3.217,5 -3.223,0 0,0"
             style="fill:#ffde17;fill-opacity:1;fill-rule:nonzero;stroke:none"
             id="path20" />
        </g>
        <g
           id="g22"
           transform="translate(14.1579,558.5088)">
          <path
             d="M 0,0 C 5.231,0 10.242,4.6 10,10 9.757,15.418 5.606,20 0,20 -5.231,20 -10.242,15.4 -10,10 -9.757,4.582 -5.606,0 0,0"
             style="fill:#ffde17;fill-opacity:1;fill-rule:nonzero;stroke:none"
             id="path24" />
        </g>
        <g
           id="g26"
           transform="translate(36.6355,571.4657)">
          <path
             d="m 0,0 c 22.019,13.22 43.468,27.38 64.263,42.453 21.386,15.502 42.134,31.909 62.105,49.198 10.932,9.464 21.629,19.199 32.089,29.184 -5.235,4.039 -10.47,8.078 -15.705,12.118 C 131.138,107.876 118.76,83.165 106.219,58.541 93.677,33.914 80.977,9.367 68.729,-15.409 56.447,-40.254 44.68,-65.344 33.908,-90.884 23.599,-115.328 14.253,-140.192 6.515,-165.575 c -7.711,-25.297 -13.821,-51.108 -17.673,-77.282 -0.578,-3.926 -1.107,-7.859 -1.607,-11.795 -0.3,-2.355 1.333,-5.476 2.929,-7.071 1.734,-1.735 4.58,-3.041 7.071,-2.929 2.586,0.115 5.268,0.965 7.071,2.929 1.917,2.088 2.574,4.282 2.929,7.071 0.104,0.821 0.213,1.642 0.318,2.463 0.148,1.155 -0.122,-0.901 -0.122,-0.9 0.043,0.467 0.129,0.942 0.194,1.405 0.228,1.639 0.465,3.277 0.711,4.913 0.491,3.271 1.018,6.536 1.578,9.796 1.101,6.398 2.331,12.774 3.683,19.123 2.729,12.819 5.95,25.531 9.582,38.122 7.319,25.371 16.299,50.242 26.323,74.664 0.585,1.426 1.174,2.85 1.766,4.273 0.319,0.766 0.639,1.532 0.96,2.298 0.138,0.328 0.276,0.655 0.413,0.983 0.917,2.185 -0.584,-1.372 -0.039,-0.095 1.301,3.053 2.604,6.106 3.929,9.149 2.6,5.975 5.256,11.925 7.959,17.853 5.63,12.35 11.466,24.605 17.427,36.799 12.083,24.718 24.685,49.178 37.199,73.68 12.457,24.389 24.83,48.827 36.518,73.597 1.473,3.124 2.936,6.253 4.387,9.387 2.119,4.575 1.609,9.667 -2.575,12.901 -3.965,3.063 -9.494,2.689 -13.131,-0.782 -18.494,-17.653 -37.738,-34.515 -57.682,-50.512 -2.436,-1.955 -4.883,-3.896 -7.34,-5.824 -1.274,-1 -2.55,-1.997 -3.83,-2.99 -0.274,-0.213 -0.549,-0.425 -0.823,-0.638 -0.879,-0.683 0.638,0.493 0.651,0.503 C 74.569,74.938 73.824,74.387 73.09,73.824 68.039,69.955 62.947,66.139 57.815,62.379 47.55,54.859 37.123,47.559 26.545,40.487 14.523,32.45 2.303,24.713 -10.094,17.269 -14.579,14.577 -16.632,8.164 -13.682,3.588 -10.775,-0.921 -4.799,-2.881 0,0"
             style="fill:#ffde17;fill-opacity:1;fill-rule:nonzero;stroke:none"
             id="path28" />
        </g>
        <g
           id="g30"
           transform="translate(130.2739,576.9031)">
          <path
             d="m 0,0 c 7.142,7.9 14.715,15.405 22.695,22.459 4.063,3.591 8.229,7.067 12.489,10.422 0.465,0.366 0.933,0.729 1.398,1.094 0.856,0.673 -0.921,-0.708 -0.854,-0.659 0.316,0.236 0.626,0.481 0.939,0.72 1.098,0.837 2.201,1.667 3.311,2.488 2.14,1.584 4.302,3.138 6.485,4.662 8.731,6.097 17.801,11.708 27.155,16.799 4.676,2.545 9.424,4.96 14.235,7.24 2.406,1.14 4.828,2.246 7.265,3.318 0.631,0.278 1.264,0.553 1.898,0.826 0.641,0.277 2.841,1.173 0.061,0.035 1.277,0.523 2.549,1.06 3.829,1.575 12.215,4.921 24.821,9.27 37.917,11.047 -0.886,-0.119 -1.772,-0.238 -2.658,-0.357 5.226,0.67 10.52,1.012 15.765,0.359 -0.886,0.119 -1.772,0.238 -2.658,0.357 2.229,-0.315 4.362,-0.84 6.492,-1.566 2.009,-0.685 -2.02,1.073 -0.149,0.052 0.386,-0.21 0.783,-0.4 1.166,-0.618 0.384,-0.219 0.762,-0.449 1.131,-0.693 0.222,-0.145 0.441,-0.296 0.656,-0.453 0.619,-0.447 0.297,-0.195 -0.967,0.756 0.527,-0.662 1.354,-1.185 1.941,-1.813 0.719,-0.77 0.9,-1.679 -0.207,0.405 0.241,-0.454 0.614,-0.863 0.885,-1.302 0.228,-0.37 0.44,-0.75 0.638,-1.137 0.925,-1.801 -0.332,0.704 -0.27,0.73 0.114,0.046 0.742,-2.813 0.773,-3.005 -0.119,0.886 -0.238,1.772 -0.357,2.658 0.168,-1.363 0.147,-2.679 -0.018,-4.042 0.119,0.886 0.238,1.772 0.357,2.658 -0.162,-1.028 -0.382,-2.037 -0.681,-3.034 -0.188,-0.629 -1.212,-2.451 -1.061,-2.959 -0.034,0.113 1.006,2.282 0.264,0.649 -0.173,-0.382 -0.342,-0.764 -0.516,-1.146 -0.435,-0.957 -0.878,-1.912 -1.324,-2.865 -1.411,-3.01 -2.869,-5.997 -4.374,-8.961 -3.076,-6.059 -6.345,-12.02 -9.781,-17.882 -6.862,-11.705 -14.394,-23.009 -22.401,-33.96 -2.058,-2.815 -4.148,-5.606 -6.266,-8.376 -0.28,-0.366 -1.955,-2.541 -0.814,-1.063 1.109,1.435 0.013,0.018 -0.18,-0.23 -0.215,-0.276 -0.429,-0.552 -0.644,-0.827 -1.129,-1.446 -2.266,-2.887 -3.409,-4.321 -4.259,-5.343 -8.614,-10.608 -13.046,-15.808 C 88.194,-36.23 78.971,-46.428 69.591,-56.476 50.709,-76.701 31.194,-96.321 12.09,-116.333 c -19.028,-19.931 -37.686,-40.271 -54.743,-61.932 -17.24,-21.892 -33.015,-44.958 -45.502,-69.916 -1.489,-2.977 -2.929,-5.977 -4.325,-8.998 -1.155,-2.5 -1.765,-4.956 -1.008,-7.706 0.639,-2.32 2.432,-4.833 4.595,-5.976 4.41,-2.33 11.34,-1.482 13.682,3.587 8.377,18.127 18.486,35.402 29.786,51.855 2.81,4.091 5.692,8.133 8.636,12.129 1.5,2.036 3.017,4.059 4.548,6.072 0.688,0.903 1.38,1.801 2.071,2.701 -1.906,-2.483 -0.566,-0.734 -0.119,-0.16 0.43,0.551 0.86,1.102 1.292,1.651 6.223,7.927 12.667,15.679 19.264,23.297 13.187,15.227 26.979,29.916 40.932,44.44 14.075,14.651 28.323,29.137 42.331,43.854 13.921,14.625 27.614,29.483 40.614,44.94 13.286,15.797 25.921,32.21 37.232,49.487 5.431,8.294 10.551,16.794 15.285,25.506 2.375,4.372 4.653,8.797 6.824,13.274 1.116,2.301 2.208,4.615 3.263,6.945 1.506,3.324 3.125,6.75 3.784,10.369 0.73,4.007 0.844,8.044 -0.329,11.995 -1.143,3.852 -3.123,7.045 -5.65,10.114 -4.189,5.085 -10.61,8.488 -16.965,9.941 -6.495,1.485 -13.188,1.482 -19.774,0.735 -6.968,-0.792 -13.819,-2.1 -20.565,-4.019 C 105.191,94.422 93.457,89.658 82.052,84.485 71.816,79.842 61.856,74.591 52.236,68.776 32.385,56.775 13.836,42.388 -2.69,26.108 -6.624,22.232 -10.439,18.238 -14.142,14.142 -17.65,10.262 -18.259,3.779 -14.142,0 -10.316,-3.513 -3.747,-4.144 0,0"
             style="fill:#ffde17;fill-opacity:1;fill-rule:nonzero;stroke:none"
             id="path32" />
        </g>
        <g
           id="g34"
           transform="translate(108.1855,415.8834)">
          <path
             d="m 0,0 c -5.015,-20.062 -8.993,-40.444 -10.608,-61.085 -0.385,-4.917 -0.62,-9.846 -0.686,-14.777 -0.064,-4.869 -0.284,-9.929 0.881,-14.688 1.929,-7.875 6.765,-16.469 15.242,-18.454 5.49,-1.286 10.388,1 15.172,3.444 3.139,1.604 6.163,3.433 9.042,5.467 6.21,4.386 11.903,9.417 16.891,15.157 9.691,11.152 17.092,23.928 23.774,37.04 3.736,7.329 7.286,14.751 11.003,22.089 1.826,3.603 3.691,7.187 5.638,10.727 0.994,1.807 2.01,3.603 3.053,5.382 0.169,0.29 0.379,0.582 0.522,0.885 0.492,1.048 -1.295,-1.475 -0.049,-0.128 1.226,1.325 2.378,2.807 3.277,4.369 -5.756,3.365 -11.513,6.729 -17.269,10.094 -1.626,-3.615 -3.27,-7.229 -5.07,-10.762 -0.444,-0.871 -0.889,-1.747 -1.387,-2.588 -0.137,-0.232 -0.348,-0.481 -0.448,-0.73 -0.111,-0.275 -1.291,-1.695 0.586,0.741 0.757,0.982 1.203,1.788 2.606,2.386 2.568,0.336 5.137,0.672 7.706,1.008 -0.009,0.002 -0.017,0.004 -0.026,0.005 1.992,-1.532 3.985,-3.064 5.977,-4.596 2.311,-3.444 0.101,-10.37 1.497,-6.044 0.408,1.264 -1.21,-2.689 -0.568,-1.351 0.095,0.197 0.176,0.401 0.269,0.598 0.296,0.633 0.591,1.266 0.899,1.893 1.576,3.205 3.344,6.313 5.228,9.346 C 87.396,-1.207 81.639,2.157 75.883,5.522 60.619,-27.209 53.004,-62.542 50.76,-98.486 c -0.216,-3.454 2.057,-6.941 4.952,-8.635 3.331,-1.949 6.744,-1.519 10.095,0 4.545,2.061 9.808,4.428 12.543,8.846 4.491,7.255 -1.313,15.985 -9.375,16.066 -3.447,0.035 -7.204,-1.279 -10.088,-3.079 -4.86,-3.031 -7.626,-7.513 -8.127,-13.198 -0.302,-3.422 2.117,-6.976 4.952,-8.635 3.298,-1.93 6.779,-1.561 10.095,0 11.348,5.34 21.55,13.087 30.232,22.107 4.615,4.794 8.613,10.195 12.756,15.396 4.206,5.281 8.385,10.585 12.536,15.91 16.424,21.066 32.456,42.432 48.131,64.061 31.102,42.915 60.854,86.784 90.496,130.713 4.319,6.402 8.713,12.76 12.958,19.212 1.337,2.034 2.286,4.154 3.122,6.453 0.295,0.811 0.569,1.635 0.838,2.454 -0.616,-1.874 0.337,0.509 0.573,0.884 1.966,3.123 4.228,6.076 6.239,9.174 4.125,6.355 7.646,12.954 10.51,19.972 0.269,0.659 0.512,1.877 0.956,2.422 -0.177,-0.39 -0.353,-0.78 -0.53,-1.17 0.455,0.916 0.84,1.859 1.157,2.827 0.45,1.696 0.692,3.504 0.604,5.261 -0.285,5.705 -3.055,9.831 -7.523,13.196 -3.587,2.701 -9.13,1.211 -12.119,-1.563 -0.344,-0.32 2.03,1.699 2.413,1.571 -0.931,0.311 -4.137,-2.296 -4.413,-2.571 -1.684,-1.685 -2.732,-3.863 -3.463,-6.092 -0.211,-0.643 -0.773,-1.489 0.273,0.552 0.977,1.907 0.06,0.409 -0.476,-0.127 -1.221,-1.221 -2.475,-2.417 -3.667,-3.667 -4.365,-4.579 -6.527,-10.639 -10.23,-15.69 -6.969,-9.506 -13.959,-18.94 -20.446,-28.79 -12.646,-19.202 -23.962,-39.243 -34.448,-59.696 -5.164,-10.07 -10.133,-20.239 -14.996,-30.457 -2.524,-5.302 -5.018,-10.618 -7.497,-15.942 -1.125,-2.416 -2.246,-4.833 -3.366,-7.252 -1.758,-3.799 -3.915,-7.478 -4.092,-11.757 -0.03,-0.733 -0.306,-2.135 0.154,0.307 0.29,1.534 0.174,0.42 -0.061,-0.103 -0.628,-1.399 -1.23,-2.812 -1.831,-4.223 -1.415,-3.319 -2.807,-6.647 -4.144,-9.998 -2.238,-5.609 -4.341,-11.271 -6.336,-16.971 -3.887,-11.106 -7.367,-22.348 -10.707,-33.629 -3.943,-13.316 -8.294,-26.622 -10.509,-40.36 -2.287,-14.186 -2.969,-28.462 -2.655,-42.814 0.092,-4.237 3.024,-8.659 7.341,-9.643 4.552,-1.036 8.693,0.781 11.293,4.596 2.526,3.706 6.013,8.044 7.139,12.512 1.073,4.26 -0.04,8.432 -3.561,11.152 -4.261,3.293 -9.764,2.48 -13.598,-0.973 -4.559,-4.105 -8.801,-11.39 -8.614,-17.644 0.126,-4.241 2.999,-8.654 7.341,-9.643 4.558,-1.038 8.686,0.785 11.293,4.596 18.248,26.676 35.835,53.8 52.744,81.344 2.74,4.464 1.117,11.197 -3.587,13.682 -4.973,2.627 -10.646,1.111 -13.682,-3.587 -4.794,-7.418 -8.481,-15.756 -11.446,-24.046 -3.33,-9.31 -6.208,-20.74 -3.03,-30.476 1.778,-5.443 5.288,-10.286 10.476,-12.929 7.075,-3.603 15.146,-3.415 22.453,-0.494 4.537,1.813 8.347,4.108 12.081,7.279 3.45,2.931 6.071,6.905 8.724,10.542 4.702,6.445 8.898,13.266 12.441,20.417 8.402,16.956 13.502,35.532 13.204,54.55 -0.055,3.541 -1.874,6.833 -4.952,8.634 -2.83,1.656 -7.309,2.066 -10.095,0 -14.024,-10.399 -24.366,-24.174 -30.117,-40.699 -3.315,-9.526 10.053,-16.776 16.714,-9.73 7.743,8.193 15.486,16.385 23.23,24.577 -5.571,3.243 -11.143,6.486 -16.714,9.729 -3.241,-16.062 -6.253,-32.169 -9.387,-48.253 -1.542,-7.914 -3.115,-15.822 -4.761,-23.716 -1.558,-7.474 -3.511,-14.919 -4.682,-22.464 -0.7,-4.511 -1.124,-8.72 -0.216,-13.239 1.041,-5.177 4.312,-9.07 8.489,-12.071 4.323,-3.105 11.25,-0.801 13.682,3.587 10.765,19.422 19.569,39.518 27.696,60.156 0.461,1.17 0.931,2.337 1.408,3.501 0.238,0.579 0.479,1.157 0.719,1.736 0.117,0.283 0.755,1.764 0.083,0.201 1.105,2.572 2.219,5.139 3.344,7.702 2.35,5.348 4.695,10.697 6.944,16.089 4.18,10.023 7.534,20.395 11.206,30.613 4.165,11.59 8.362,23.168 12.478,34.775 -6.548,0.886 -13.095,1.773 -19.643,2.659 -0.025,-0.196 -0.456,-3.325 -0.132,-1.021 -0.118,-0.837 -0.232,-1.674 -0.352,-2.511 -0.178,-1.243 -0.363,-2.485 -0.556,-3.726 -0.339,-2.18 -0.7,-4.357 -1.123,-6.522 -0.248,-1.272 -0.502,-2.55 -0.848,-3.8 -0.096,-0.345 -0.289,-0.74 -0.333,-1.093 0.276,2.207 3.584,5.688 6.548,6.244 h 5.317 c -0.01,0.002 -0.021,0.005 -0.031,0.008 l 4.413,-2.572 c 1.185,-1.203 2.009,-2.617 2.471,-4.241 -0.015,0.055 -0.026,0.11 -0.035,0.166 1.198,-4.494 0.232,-2.936 0.313,-2.02 0.048,0.538 0.026,1.089 0.066,1.63 0.049,0.659 0.138,1.312 0.201,1.969 0.147,1.518 -0.481,-3.184 -0.126,-0.982 0.079,0.494 0.154,0.989 0.238,1.483 0.827,4.861 2.053,9.653 3.612,14.329 -6.548,0.886 -13.095,1.773 -19.643,2.659 -0.151,-1.257 -0.308,-2.513 -0.466,-3.768 -0.013,-0.102 -0.214,-1.657 -0.069,-0.55 0.159,1.212 -0.103,-0.748 -0.14,-1.016 -0.325,-2.338 -0.671,-4.673 -1.035,-7.005 -0.75,-4.797 -1.58,-9.581 -2.481,-14.352 -1.759,-9.326 -3.788,-18.599 -6.006,-27.827 -4.374,-18.2 -9.483,-36.213 -14.683,-54.191 -2.964,-10.244 -5.955,-20.48 -8.863,-30.74 -1.426,-5.03 1.746,-11.109 6.984,-12.302 5.586,-1.272 10.448,1.692 12.301,6.985 1.068,3.047 2.139,6.094 3.147,9.162 0.805,2.452 1.455,4.855 0.662,7.507 -2.114,7.067 -11.372,9.944 -16.714,4.412 -2.001,-2.071 -2.819,-4.884 -3.739,-7.542 -0.941,-2.721 -1.817,-5.464 -2.641,-8.222 -1.498,-5.011 1.797,-11.12 6.984,-12.302 5.497,-1.252 10.556,1.659 12.301,6.985 2.962,9.038 6.251,17.965 9.886,26.754 0.215,0.522 0.434,1.042 0.65,1.564 0.582,1.403 -0.625,-1.442 -0.019,-0.05 0.451,1.034 0.89,2.073 1.342,3.107 0.96,2.194 1.94,4.379 2.941,6.555 1.942,4.22 3.96,8.405 6.051,12.553 8.488,16.835 18.186,33.046 28.815,48.612 2.761,4.043 5.584,8.044 8.464,12.003 1.365,1.876 2.743,3.743 4.133,5.6 0.697,0.932 1.398,1.862 2.102,2.789 0.352,0.465 0.705,0.929 1.059,1.392 0.141,0.185 1.582,2.064 0.82,1.073 -0.732,-0.952 0.394,0.508 0.561,0.723 0.36,0.462 0.72,0.924 1.082,1.386 0.633,0.808 1.268,1.616 1.906,2.421 0.731,0.923 1.464,1.843 2.201,2.761 0.352,0.44 0.792,0.904 1.109,1.379 0.733,0.799 0.757,0.903 0.072,0.312 -2.418,-2.066 -5.464,-1.794 -9.137,0.819 -0.416,0.443 -0.777,1.59 -0.281,0.213 0.407,-1.129 0.759,-0.155 -0.111,0.396 0.155,-0.098 0.392,-1.369 0.406,-1.415 0.266,-0.905 0.691,-0.879 -0.001,0.429 0.368,-0.696 0.101,-2.342 0.072,-3.126 -0.02,-0.537 -0.073,-1.071 -0.106,-1.608 -0.122,-1.951 0.267,1.028 -0.006,-0.193 -2.207,-9.863 -4.537,-19.576 -7.659,-29.204 -3.028,-9.336 -6.463,-18.533 -9.932,-27.712 -3.927,-10.391 -8.399,-20.81 -11.474,-31.493 -3.23,-11.218 -4.994,-23.052 -6.56,-34.598 -0.584,-4.31 0.347,-9.048 4.596,-11.293 4.078,-2.155 8.705,-1.533 12.118,1.563 2.807,2.546 6.717,5.387 8.598,8.801 2.56,4.647 1.557,11.252 -3.484,13.916 -3.279,1.732 -7.367,1.845 -10.551,-0.211 -4.016,-2.593 -10.5,-7.78 -11.277,-12.776 -0.666,-4.285 0.4,-9.076 4.596,-11.293 4.274,-2.259 8.46,-1.312 12.118,1.563 8.652,6.8 14.444,16.426 20.58,25.39 6.516,9.521 11.494,19.797 16.719,30.051 2.701,5.3 5.532,10.539 8.753,15.545 1.407,2.187 2.799,4.243 3.84,6.639 0.666,1.532 1.305,3.076 1.902,4.636 0.236,0.618 0.464,1.24 0.699,1.86 0.114,0.301 1.177,2.603 0.507,1.321 -0.804,-1.536 0.692,1.135 0.629,1.025 0.323,0.567 0.671,1.124 1.005,1.685 0.746,1.257 1.489,2.516 2.227,3.777 1.539,2.628 3.061,5.267 4.565,7.915 2.952,5.195 5.839,10.428 8.669,15.69 5.554,10.33 10.603,20.933 16.195,31.236 5.792,10.67 11.516,21.377 17.164,32.123 11.132,21.179 21.966,42.515 32.436,64.029 11.603,23.844 22.75,47.909 33.382,72.201 2.091,4.779 1.564,10.96 -3.588,13.682 -4.678,2.472 -11.003,1.315 -13.682,-3.587 -1.611,-2.948 -3.223,-5.895 -4.819,-8.852 -0.737,-1.366 -1.896,-3.157 -2.193,-4.627 -0.853,-4.221 0.522,-9.141 4.595,-11.293 3.63,-1.918 9.31,-1.956 12.119,1.564 3.084,3.864 5.484,8.641 7.568,13.113 2.205,4.732 1.488,11 -3.588,13.682 -4.632,2.447 -11.06,1.345 -13.682,-3.587 C 443.077,173.566 423.692,135 405.674,95.793 387.402,56.035 370.437,15.629 355.347,-25.447 c -8.446,-22.992 -14.363,-46.788 -19.175,-70.778 -0.849,-4.232 0.521,-9.129 4.595,-11.293 8.876,-4.715 18.042,-0.172 22.593,8.148 0.759,1.387 1.554,2.972 1.974,4.479 -0.799,-2.867 0.196,0.091 0.574,0.817 0.491,0.943 0.989,1.883 1.494,2.819 1.857,3.443 3.801,6.838 5.787,10.208 7.933,13.463 16.527,26.586 22.704,40.992 1.104,2.573 1.785,4.883 1.008,7.705 -0.639,2.32 -2.432,4.834 -4.595,5.977 -4.479,2.366 -11.253,1.441 -13.682,-3.588 -0.747,-1.546 -1.493,-3.093 -2.254,-4.632 -0.707,-1.43 -1.869,-2.511 0.788,0.503 5.571,-3.243 11.142,-6.486 16.714,-9.729 -0.733,-2.726 -1.243,-2.813 -0.643,-1.57 0.275,0.573 0.544,1.148 0.822,1.72 0.592,1.215 1.191,2.428 1.842,3.614 -5.756,3.365 -11.513,6.729 -17.269,10.094 -8.55,-19.568 -12.865,-40.29 -9.452,-61.581 0.483,-3.014 3.928,-6.556 6.984,-6.984 6.545,-0.917 12.843,-0.211 18.372,3.749 5.277,3.779 8.787,8.922 12.442,14.192 6.09,8.784 11.714,17.907 16.545,27.447 4.908,9.691 9.117,19.825 12.203,30.247 1.45,4.895 2.648,9.865 3.572,14.886 0.252,1.372 0.485,2.748 0.696,4.127 0.085,0.555 0.166,1.109 0.245,1.664 0.113,0.786 0.704,5.19 0.389,2.857 -0.296,-2.19 0.294,1.601 0.289,2.55 -0.004,0.91 -0.373,3.05 -0.401,3.169 -0.349,1.477 -0.929,2.92 -1.72,4.218 -3.885,6.372 -12.264,9.019 -19.31,7.131 -4.747,-1.272 -7.548,-4.178 -10.385,-7.953 -0.796,-1.06 -1.551,-2.146 -2.299,-3.241 -0.367,-0.537 -0.73,-1.076 -1.103,-1.609 -1.489,-2.128 0.758,0.822 -0.481,-0.669 -2.764,-3.328 -4.107,-8.173 -1.563,-12.119 2.56,-3.971 6.735,-5.424 11.293,-4.595 3.544,0.644 7.014,1.827 9.669,4.357 4.765,4.54 3.829,13.246 -2.012,16.457 -6.809,3.743 -15.27,0.426 -18.95,-6.124 -1.987,-3.537 -1.692,-7.905 0.782,-11.106 2.656,-3.439 6.387,-4.185 10.511,-3.584 -2.929,-0.427 0.127,-0.182 0.785,-0.167 1.117,-0.098 0.897,-0.057 -0.659,0.124 0.44,-0.077 0.877,-0.17 1.31,-0.278 0.654,-0.16 1.299,-0.355 1.936,-0.572 0.428,-0.147 0.853,-0.303 1.274,-0.47 -1.334,0.578 -1.5,0.644 -0.497,0.198 3.137,-1.537 6.189,-3.266 9.363,-4.726 8.496,-3.907 17.197,-5.003 26.266,-2.172 8.072,2.52 15.145,7.133 21.962,12.003 7.924,5.662 15.751,11.427 23.343,17.531 4.095,3.293 3.686,10.759 0,14.142 -4.348,3.991 -9.774,3.513 -14.142,0 -0.996,-0.8 -1.993,-1.598 -2.996,-2.389 -0.502,-0.395 -1.004,-0.789 -1.508,-1.182 -0.841,-0.653 -1.008,-0.784 -0.503,-0.391 0.506,0.392 0.337,0.264 -0.507,-0.385 -0.508,-0.387 -1.017,-0.773 -1.527,-1.158 -0.892,-0.673 -1.788,-1.341 -2.686,-2.006 -3.372,-2.492 -6.794,-4.919 -10.209,-7.35 -3.073,-2.188 -6.181,-4.338 -9.449,-6.227 -1.508,-0.871 -3.342,-2.182 -5.029,-2.601 2.23,0.554 -0.025,0 -0.566,-0.196 -0.99,-0.357 -1.994,-0.675 -3.012,-0.94 -0.888,-0.232 -1.783,-0.387 -2.68,-0.569 -0.754,-0.123 -0.513,-0.087 0.722,0.107 -0.521,-0.047 -1.042,-0.078 -1.564,-0.092 -0.909,-0.025 -1.803,0.057 -2.708,0.081 -0.779,0.074 -0.456,0.033 0.971,-0.125 -0.445,0.084 -0.887,0.182 -1.326,0.295 -0.887,0.227 -1.733,0.544 -2.601,0.829 -1.904,0.625 1.801,-0.91 -0.157,0.065 -1.464,0.729 -2.93,1.445 -4.378,2.206 -3.415,1.796 -6.876,3.563 -10.539,4.808 -4.632,1.574 -9.226,1.589 -14.006,0.892 3.764,-4.896 7.529,-9.793 11.293,-14.69 0.524,0.883 0.252,0.579 -0.817,-0.911 0.705,0.714 0.325,0.46 -1.141,-0.76 0.828,0.526 1.791,0.601 -1.133,-0.362 1.033,0.34 1.533,-0.067 -1.483,-0.125 0.999,-0.003 0.352,0.099 -1.941,0.307 3.129,-0.899 1.026,1.25 -6.308,6.447 v 5.317 c 0.281,1.917 3.345,4.817 3.878,5.159 -1.004,-0.644 -0.264,0.586 1.055,0.423 -0.895,0.11 -2.489,-0.638 -3.403,-0.805 l 9.73,-16.713 c 1.682,2.026 3.227,4.152 4.71,6.326 0.521,0.764 1.079,1.509 1.586,2.281 0.788,1.199 -1.093,-1.167 -0.1,-0.132 0.569,0.592 1.645,1.264 -0.124,0.219 -0.281,-0.166 -2.175,-0.664 -0.631,-0.366 0.087,0.017 -2.276,-0.179 -1.161,-0.134 0.621,0.025 1.513,-0.308 0.143,0.133 -1.609,0.518 -0.258,0.066 0.082,-0.078 1.169,-0.492 -1.966,0.96 -0.857,0.393 0.192,-0.098 0.477,-0.369 0.681,-0.412 -0.835,0.176 -1.731,1.445 -2.163,2.158 0.372,-0.662 0.347,-0.558 -0.073,0.314 -0.294,0.48 -0.438,1.002 -0.431,1.565 -0.122,0.856 0.41,4.299 -0.022,1.082 -0.059,-0.443 -0.119,-0.886 -0.179,-1.329 0.154,1.125 0.178,1.315 0.072,0.57 -0.156,-0.967 -0.29,-1.938 -0.45,-2.904 -0.386,-2.33 -0.831,-4.651 -1.333,-6.958 -0.907,-4.168 -1.999,-8.295 -3.267,-12.368 -1.303,-4.185 -2.788,-8.313 -4.434,-12.375 -0.205,-0.509 -0.416,-1.015 -0.625,-1.522 0.138,0.334 0.801,1.844 0.041,0.116 -0.387,-0.88 -0.773,-1.761 -1.171,-2.636 -0.911,-2.008 -1.86,-3.999 -2.843,-5.972 -3.934,-7.895 -8.417,-15.51 -13.264,-22.877 -1.415,-2.15 -2.86,-4.279 -4.332,-6.389 -0.742,-1.063 -1.491,-2.122 -2.246,-3.176 -0.337,-0.469 -0.692,-0.929 -1.015,-1.408 -0.837,-1.24 1.464,1.508 -0.224,-0.238 -0.142,-0.146 -2.047,-2.234 -2.167,-2.136 -0.067,0.055 1.619,1.064 0.289,0.232 -0.483,-0.303 -1.053,-0.58 -1.518,-0.911 -1.078,-0.766 1.753,0.507 0.483,0.167 -0.115,-0.03 -1.604,-0.583 -1.659,-0.476 -0.14,0.271 2.259,0.024 0.58,0.085 -0.639,0.023 -2.861,0.183 -0.258,-0.182 2.328,-2.328 4.656,-4.656 6.984,-6.984 -0.096,0.581 -0.186,1.162 -0.268,1.745 0.163,-1.2 0.175,-1.211 0.034,-0.031 -0.088,1.174 -0.217,2.344 -0.283,3.52 -0.117,2.061 -0.153,4.126 -0.111,6.189 0.043,2.072 0.163,4.141 0.355,6.204 0.039,0.414 0.501,4.143 0.164,1.767 0.147,1.033 0.312,2.062 0.492,3.089 0.749,4.272 1.78,8.493 3.047,12.64 0.613,2.005 1.281,3.993 2.001,5.962 0.411,1.123 0.838,2.24 1.281,3.351 0.222,0.554 0.447,1.107 0.676,1.658 -0.428,-1.015 -0.412,-0.99 0.048,0.076 2.089,4.78 1.566,10.959 -3.587,13.682 -4.686,2.475 -10.994,1.309 -13.682,-3.588 -1.427,-2.598 -3.266,-5.67 -4.038,-8.541 -1.108,-4.122 0.694,-9.232 4.596,-11.294 3.766,-1.989 9.119,-1.838 12.118,1.564 2.091,2.372 3.232,5.36 4.593,8.177 -5.756,3.365 -11.513,6.729 -17.269,10.094 -5.469,-12.754 -12.832,-24.516 -19.959,-36.382 -3.561,-5.928 -7.057,-11.899 -10.238,-18.042 -0.42,-0.813 -0.858,-1.623 -1.247,-2.451 -0.408,-0.835 -0.765,-1.689 -1.07,-2.564 -0.26,-0.723 -0.05,-0.245 0.628,1.435 -0.594,-0.505 -1.06,-1.98 -1.484,-2.686 -0.902,-1.5 1.607,1.497 0.182,0.286 -0.602,-0.511 -2.02,-1.449 0.374,0.187 -1.258,-0.86 1.271,0.404 1.833,0.472 0.825,0.174 1.644,0.113 2.457,-0.183 -0.974,0.278 -0.72,0.159 0.762,-0.36 1.532,-3.764 3.063,-7.528 4.595,-11.293 4.256,21.215 9.356,42.28 16.343,62.775 6.956,20.405 15.071,40.478 23.246,60.42 2.061,5.028 4.146,10.046 6.258,15.054 -0.162,-0.384 -0.691,-1.631 0.078,0.182 0.242,0.571 0.484,1.142 0.727,1.713 0.485,1.141 0.97,2.281 1.458,3.422 1.095,2.563 2.197,5.124 3.306,7.682 4.302,9.931 8.698,19.822 13.18,29.673 8.823,19.391 17.984,38.627 27.425,57.724 10.708,21.658 21.78,43.134 33.12,64.467 l -17.27,10.095 c -0.959,-2.059 -2.105,-4.042 -3.193,-6.034 -0.618,-1.134 -1.24,-2.267 -1.868,-3.396 -0.664,-1.194 -2.301,-3.297 0.621,0.364 5.571,-3.243 11.142,-6.486 16.713,-9.729 -0.609,-3.014 -1.337,-2.936 -0.658,-1.708 0.351,0.634 0.685,1.278 1.029,1.915 1.533,2.836 3.08,5.665 4.626,8.493 l -17.27,10.095 C 444.391,168.395 423.794,125.869 401.981,83.979 396.391,73.244 390.723,62.55 384.986,51.894 379.358,41.439 374.043,30.836 368.529,20.322 c -5.41,-10.317 -11.014,-20.531 -16.878,-30.597 -1.467,-2.518 -3.123,-4.98 -4.471,-7.561 -1.415,-2.709 -2.392,-5.666 -3.49,-8.514 -0.203,-0.528 -0.997,-2.161 -0.066,-0.227 -0.236,-0.49 -0.455,-0.983 -0.708,-1.466 -0.588,-1.126 -1.298,-2.151 -2.007,-3.202 -1.696,-2.516 -3.251,-5.135 -4.748,-7.773 -6.417,-11.304 -11.429,-23.361 -18.388,-34.364 -3.267,-5.165 -6.769,-10.255 -10.335,-15.219 -0.315,-0.439 -0.632,-0.876 -0.953,-1.31 -0.208,-0.281 -1.915,-2.317 -0.382,-0.519 -0.856,-1.003 -1.667,-2.04 -2.549,-3.021 -1.953,-2.171 -4.075,-4.156 -6.37,-5.96 5.571,-3.243 11.143,-6.486 16.714,-9.729 0.173,1.114 -1.404,-2.841 -0.609,-1.504 0.35,0.588 -2.071,-2.357 -0.697,-0.936 0.698,0.721 1.383,1.443 2.123,2.124 0.678,0.623 1.402,1.19 2.088,1.802 0.579,0.516 -2.53,-1.502 -0.954,-0.753 1.366,0.65 -2.099,-0.753 -1.827,-0.698 h -5.317 c 0.01,-0.003 0.019,-0.006 0.029,-0.009 -2.328,2.328 -4.656,4.656 -6.984,6.985 0.002,-0.01 0.005,-0.019 0.008,-0.028 v 5.317 c 0.599,2.065 0.661,1.876 1.58,3.071 1.349,1.756 0.718,0.851 0.377,0.547 -0.451,-0.403 -0.855,-0.883 -1.288,-1.308 -1.704,-1.672 -3.475,-3.277 -5.243,-4.881 5.571,-3.243 11.143,-6.486 16.714,-9.729 1.492,11.001 3.469,21.922 6.094,32.712 1.261,5.185 3.321,10.24 5.15,15.25 1.854,5.08 3.767,10.139 5.681,15.197 3.737,9.877 7.479,19.757 10.764,29.796 3.281,10.027 6.509,20.41 8.058,30.87 0.965,6.517 1.01,12.678 -1.755,18.8 -1.325,2.937 -3.646,6.023 -6.512,7.578 -4.216,2.287 -9.189,1.652 -13.127,-0.889 -2.562,-1.653 -4.238,-4.122 -6.1,-6.47 -2.078,-2.62 -4.129,-5.261 -6.17,-7.91 -3.193,-4.146 -6.333,-8.332 -9.404,-12.568 -11.866,-16.369 -22.746,-33.462 -32.288,-51.29 -10.939,-20.436 -20.13,-41.857 -27.348,-63.884 6.428,-1.773 12.857,-3.545 19.285,-5.317 0.754,2.522 1.552,5.03 2.402,7.522 0.278,0.816 0.559,1.631 0.855,2.44 0.107,0.293 0.236,0.583 0.328,0.881 0.126,0.406 0.527,1.262 -0.382,-0.894 -0.615,-1.456 -0.483,-1.474 -1.966,-3.01 l -16.713,4.413 c 0.001,-0.004 0.002,-0.008 0.003,-0.013 v 5.317 c -0.124,-0.927 -0.566,-1.88 -0.859,-2.761 -0.954,-2.87 -1.954,-5.725 -2.953,-8.578 6.428,-1.773 12.857,-3.545 19.285,-5.317 10.383,36.63 21.869,73.029 29.114,110.458 2.2,11.368 3.963,22.811 5.344,34.308 0.59,4.916 -4.261,9.229 -8.671,9.821 -5.053,0.679 -9.38,-2.387 -10.972,-7.163 -2.412,-7.237 -4.299,-15.053 -4.678,-22.7 -0.348,-7.013 5.173,-13.806 12.875,-11.667 5.144,1.429 7.164,6.077 8.193,10.783 1.507,6.888 2.344,13.942 3.253,20.926 0.639,4.908 -4.299,9.234 -8.671,9.821 -5.122,0.688 -9.287,-2.411 -10.972,-7.163 -3.586,-10.113 -7.233,-20.205 -10.868,-30.301 -3.681,-10.225 -7.019,-20.633 -11.037,-30.729 -0.465,-1.167 -0.939,-2.33 -1.419,-3.491 -0.239,-0.578 -0.479,-1.155 -0.722,-1.732 0.163,0.386 0.691,1.615 -0.089,-0.196 -1.106,-2.569 -2.225,-5.133 -3.351,-7.694 -2.353,-5.35 -4.695,-10.704 -6.929,-16.104 -1.962,-4.743 -3.701,-9.57 -5.599,-14.339 -0.516,-1.296 -1.039,-2.589 -1.57,-3.879 -0.237,-0.575 -0.476,-1.149 -0.715,-1.723 0.161,0.386 0.695,1.622 -0.081,-0.192 -1.044,-2.441 -2.109,-4.873 -3.201,-7.293 -4.963,-11.001 -10.43,-21.767 -16.28,-32.322 4.56,1.196 9.121,2.391 13.682,3.587 1.1,-0.905 1.266,-1.004 0.498,-0.295 0.875,-1.244 1.022,-1.432 0.439,-0.564 -0.816,1.582 0.813,-2.271 -0.109,0.384 -0.211,1.07 -0.19,0.789 0.061,-0.845 -0.039,0.416 -0.063,0.833 -0.071,1.251 -0.02,0.854 0.022,1.709 0.094,2.56 0.038,0.431 0.084,0.861 0.137,1.29 -0.219,-1.586 -0.246,-1.833 -0.082,-0.739 0.114,0.623 0.21,1.249 0.318,1.872 0.383,2.208 0.894,4.384 1.377,6.572 2.102,9.517 4.071,19.063 5.97,28.623 3.774,19.003 7.284,38.057 11.116,57.049 0.851,4.221 -0.522,9.14 -4.596,11.293 -3.864,2.041 -8.987,1.748 -12.118,-1.564 -7.744,-8.192 -15.487,-16.384 -23.231,-24.576 5.572,-3.244 11.143,-6.487 16.714,-9.73 0.3,0.862 0.608,1.72 0.937,2.571 0.943,2.446 -0.504,-0.984 0.338,0.86 0.649,1.423 1.314,2.835 2.041,4.22 1.634,3.113 3.495,6.106 5.563,8.95 1.515,2.086 -0.704,-0.761 0.57,0.77 0.5,0.6 0.988,1.21 1.497,1.803 1.103,1.284 2.249,2.53 3.439,3.735 1.189,1.205 2.42,2.368 3.692,3.486 0.587,0.516 1.183,1.022 1.786,1.518 0.403,0.331 0.809,0.658 1.219,0.98 -0.994,-0.766 -1.046,-0.814 -0.155,-0.146 -5.016,2.878 -10.032,5.756 -15.048,8.635 0.056,-3.545 -0.064,-7.087 -0.395,-10.618 -0.076,-0.813 -0.169,-1.624 -0.26,-2.435 -0.224,-2 0.24,1.408 -0.083,-0.579 -0.307,-1.884 -0.631,-3.762 -1.025,-5.63 -0.734,-3.48 -1.647,-6.923 -2.72,-10.314 -0.497,-1.573 -1.029,-3.135 -1.594,-4.685 -0.283,-0.777 -0.574,-1.552 -0.873,-2.323 -0.15,-0.386 -0.303,-0.771 -0.456,-1.155 -0.08,-0.198 -0.752,-1.856 -0.285,-0.723 0.458,1.109 -0.076,-0.176 -0.146,-0.333 -0.225,-0.507 -0.446,-1.015 -0.675,-1.52 -0.342,-0.759 -0.693,-1.514 -1.05,-2.266 -0.777,-1.633 -1.589,-3.25 -2.433,-4.85 -1.696,-3.215 -3.523,-6.361 -5.468,-9.432 -1.953,-3.086 -4.025,-6.097 -6.203,-9.029 -0.251,-0.339 -0.505,-0.676 -0.758,-1.013 -0.09,-0.12 -0.95,-1.235 -0.246,-0.328 0.704,0.907 -0.164,-0.204 -0.257,-0.32 -0.263,-0.33 -0.525,-0.661 -0.79,-0.989 -0.517,-0.643 -1.038,-1.234 -1.641,-1.797 -0.376,-0.35 -0.791,-0.666 -1.153,-1.028 -0.974,-0.971 1.358,0.907 0.229,0.149 -1.253,-0.841 -2.482,-1.671 -3.831,-2.357 -0.075,-0.039 -0.978,-0.527 -1.009,-0.491 -0.046,0.053 1.801,0.642 0.654,0.288 -0.847,-0.261 -1.67,-0.585 -2.529,-0.817 -0.88,-0.237 -1.771,-0.38 -2.658,-0.577 -1.195,-0.266 0.673,0.152 0.682,0.087 0.006,-0.04 -0.965,-0.047 -1.064,-0.051 -0.251,-0.012 -0.502,0.075 -0.752,0.074 -0.074,-0.001 2.34,-0.499 1.469,-0.18 -0.481,0.176 -1.05,0.212 -1.547,0.351 -0.462,0.13 -2.219,0.842 -0.398,0.047 1.756,-0.766 0.313,-0.141 -0.064,0.09 -0.279,0.172 -0.666,0.504 -0.972,0.598 -0.614,0.188 1.237,-0.947 1.282,-1.01 -0.131,0.185 -0.39,0.311 -0.547,0.48 -0.238,0.256 -0.488,0.545 -0.748,0.778 -0.918,0.821 1.388,-2.288 0.602,-0.734 -0.157,0.311 -0.353,0.644 -0.54,0.938 -0.93,1.459 0.662,-2.11 0.342,-0.876 -0.192,0.74 -0.468,1.449 -0.629,2.202 -0.1,0.469 -0.368,2.299 -0.084,0.245 0.28,-2.021 0.053,-0.178 0.025,0.315 -0.109,1.885 0.43,3.938 0.226,5.77 0.095,-0.856 -0.389,-2.471 -0.092,-0.784 0.084,0.476 0.162,0.953 0.253,1.427 0.2,1.053 0.433,2.1 0.69,3.141 0.528,2.145 1.161,4.264 1.867,6.357 0.79,2.346 1.745,4.617 2.618,6.931 0.067,0.179 -0.958,-2.212 -0.521,-1.238 0.135,0.301 0.261,0.607 0.394,0.909 0.26,0.595 0.526,1.188 0.796,1.779 0.456,0.996 0.924,1.986 1.405,2.97 1.609,3.29 3.339,6.54 5.328,9.618 -5.756,3.365 -11.513,6.73 -17.269,10.095 -16.909,-27.545 -34.496,-54.668 -52.744,-81.345 6.212,-1.682 12.423,-3.364 18.635,-5.047 -0.008,0.253 -0.01,0.504 0.02,0.756 0.008,0.068 -0.669,-2.832 -0.219,-1.845 0.213,0.468 0.93,2.532 0.07,0.55 -0.853,-1.963 0.02,-0.025 0.274,0.454 0.29,0.547 0.604,1.082 0.935,1.605 0.289,0.457 0.611,0.891 0.907,1.343 1.074,1.642 -1.755,-1.95 -0.507,-0.659 0.281,0.29 0.59,0.605 0.844,0.919 0.026,0.032 0.31,0.297 0.319,0.289 -0.603,-0.467 -1.205,-0.933 -1.807,-1.4 2.229,1.35 -0.218,1.053 -7.341,-0.89 -1.471,0.857 -2.942,1.714 -4.413,2.571 -9.946,8.012 -1.448,12.5 -2.595,9.089 -0.34,-1.012 1.355,2.702 0.65,1.536 -0.397,-0.657 -0.714,-1.371 -1.101,-2.037 -1.442,-2.481 -3.056,-4.864 -4.671,-7.234 6.212,-1.682 12.423,-3.364 18.635,-5.047 -0.132,6.009 -0.13,12.02 0.121,18.026 0.123,2.915 0.301,5.829 0.547,8.737 0.103,1.228 0.219,2.456 0.346,3.683 0.081,0.769 0.166,1.537 0.256,2.305 0.049,0.418 0.489,3.649 0.179,1.501 1.715,11.901 5.07,23.29 8.421,34.807 3.259,11.199 6.583,22.383 10.24,33.459 1.839,5.572 3.763,11.117 5.801,16.619 0.945,2.552 1.914,5.095 2.911,7.628 0.5,1.271 1.008,2.54 1.522,3.807 0.287,0.705 0.575,1.41 0.866,2.113 0.158,0.383 1.199,2.838 0.41,0.992 1.275,2.985 2.979,6.002 3.909,9.104 0.355,1.183 0.468,2.479 0.519,3.704 0.029,0.688 0.228,2.22 -0.155,-0.308 -0.052,-0.347 -0.816,-1.804 0.06,0.037 0.383,0.806 0.749,1.621 1.123,2.431 2.357,5.094 4.722,10.183 7.108,15.264 4.827,10.281 9.736,20.524 14.816,30.683 9.921,19.84 20.519,39.356 32.302,58.158 6.819,10.882 14.028,21.521 21.651,31.856 1.893,2.565 3.903,5.056 5.741,7.66 1.805,2.556 3.208,5.361 4.768,8.065 0.689,1.194 1.354,2.535 2.25,3.584 -1.446,-1.693 0.789,0.513 0.928,0.652 0.666,0.666 1.333,1.333 2,2 1.405,1.405 2.872,2.812 3.936,4.507 0.628,1 1.008,2.17 1.411,3.273 0.867,2.375 -0.894,-1.197 0.216,0.243 -1.992,-1.531 -3.984,-3.063 -5.976,-4.595 2.414,0.424 4.65,1.935 6.413,3.572 -4.04,-0.522 -8.079,-1.043 -12.119,-1.564 -1.204,0.907 -1.965,1.562 -2.38,3.093 0.441,-1.627 -0.065,0.829 -0.002,0.98 0.009,-0.185 0.018,-0.37 0.027,-0.556 -0.048,-1.09 0.02,-0.728 0.204,1.086 -0.506,-2.131 1.679,3.72 0.06,-0.116 -0.396,-0.938 -0.751,-1.881 -1.119,-2.829 0.016,0.041 -1.073,-2.578 -0.477,-1.205 0.594,1.366 -0.548,-1.188 -0.532,-1.155 -0.415,-0.9 -0.847,-1.793 -1.291,-2.679 -2.689,-5.359 -5.894,-10.437 -9.252,-15.398 -1.762,-2.601 -3.826,-5.108 -5.096,-7.994 -0.817,-1.855 -1.524,-3.737 -2.157,-5.661 0.547,1.66 0.193,0.333 -0.073,-0.066 -0.708,-1.057 -1.387,-2.135 -2.099,-3.19 -3.701,-5.488 -7.402,-10.977 -11.104,-16.465 C 229.092,131.008 214.684,109.704 200.113,88.511 185.826,67.732 171.378,47.062 156.639,26.601 149.227,16.311 141.742,6.075 134.171,-4.098 c -3.767,-5.061 -7.554,-10.107 -11.364,-15.135 -1.824,-2.406 -3.652,-4.809 -5.486,-7.207 -0.92,-1.203 -1.84,-2.405 -2.763,-3.605 -0.554,-0.722 -1.108,-1.443 -1.664,-2.164 -0.245,-0.318 -1.86,-2.412 -0.662,-0.861 -8.833,-11.433 -17.694,-22.88 -26.9,-34.015 -4.195,-5.074 -9.18,-9.6 -14.331,-13.681 1.582,1.253 0.438,0.337 0.093,0.091 -0.878,-0.627 -1.742,-1.271 -2.631,-1.883 -1.336,-0.919 -2.695,-1.803 -4.078,-2.648 -2.803,-1.712 -5.701,-3.247 -8.673,-4.646 5.016,-2.878 10.032,-5.756 15.048,-8.634 -0.359,-2.102 -0.425,-2.666 -0.198,-1.695 0.207,0.612 0.115,0.414 -0.276,-0.595 -0.451,-0.984 -0.523,-1.19 -0.216,-0.62 0.526,0.8 0.197,0.389 -0.989,-1.232 0.233,0.165 0.526,0.499 0.702,0.715 0.796,0.976 -2.089,-1.291 -0.946,-0.736 0.295,0.143 0.596,0.348 0.876,0.524 1.659,1.038 -1.706,-0.569 -1.041,-0.386 0.564,0.156 1.289,0.317 1.828,0.544 1.068,0.45 -2.741,-0.271 -1.725,-0.243 1.443,0.038 -2.061,0.319 -1.959,0.296 -6.143,1.374 -8.02,11.673 -4.377,15.509 -0.872,-0.918 -0.88,-0.01 0.972,0.658 -0.88,-0.318 -1.771,-1.151 -2.611,-1.614 -1.654,-0.912 -3.368,-1.711 -5.088,-2.491 5.016,-2.878 10.032,-5.756 15.048,-8.634 0.26,4.173 0.585,8.341 0.996,12.502 0.206,2.087 0.432,4.171 0.679,6.254 0.124,1.042 0.264,2.083 0.387,3.125 0.096,0.738 0.075,0.596 -0.062,-0.426 0.081,0.595 0.164,1.19 0.248,1.785 1.165,8.2 2.664,16.354 4.531,24.424 1.876,8.109 4.124,16.134 6.777,24.025 1.356,4.035 2.818,8.036 4.39,11.993 0.338,0.85 0.685,1.696 1.027,2.545 0.45,1.079 0.467,1.127 0.051,0.145 0.239,0.563 0.48,1.124 0.724,1.684 0.853,1.965 1.739,3.916 2.644,5.858 2.207,4.731 1.488,11 -3.587,13.682 C 84.663,11.699 78.834,10.271 75.883,5.522 73.822,2.206 71.895,-1.2 70.217,-4.727 c -1.776,-3.73 -3.859,-7.675 -2.687,-11.947 1.96,-7.144 11.539,-9.953 16.793,-4.448 0.97,1.018 1.806,2.214 2.51,3.438 2.41,4.196 4.338,8.706 6.319,13.112 C 95.293,0.187 94.684,6.405 89.565,9.11 84.797,11.629 78.672,10.365 75.883,5.522 75.102,4.166 75.91,5.817 76.206,5.732 76.157,5.747 75.55,5.011 75.487,4.945 74.496,3.899 73.602,2.794 72.829,1.576 71.911,0.131 71.091,-1.388 70.252,-2.879 68.557,-5.89 66.929,-8.938 65.34,-12.005 c -3.092,-5.97 -6.034,-12.016 -9.016,-18.042 -5.9,-11.92 -11.957,-23.869 -19.736,-34.699 -0.454,-0.631 -0.913,-1.258 -1.378,-1.88 -1.492,-1.996 0.857,1.04 -0.255,-0.346 -1.036,-1.291 -2.078,-2.573 -3.163,-3.822 -2.092,-2.407 -4.299,-4.713 -6.633,-6.886 -1.21,-1.127 -2.454,-2.217 -3.731,-3.268 -0.551,-0.453 -2.533,-1.671 -0.322,-0.294 -0.749,-0.467 -1.435,-1.072 -2.157,-1.582 -2.691,-1.899 -5.506,-3.621 -8.425,-5.148 -0.722,-0.377 -1.45,-0.743 -2.184,-1.097 -0.448,-0.216 -2.668,-1.361 -1.326,-0.637 1.453,0.784 -1.138,0.025 0.876,0.192 1.686,0.14 0.662,0.067 0.317,0.083 0.074,-0.004 2.672,-0.592 1.244,-0.134 0.185,-0.06 2.233,-1.11 1.086,-0.433 -1.281,0.755 0.791,-0.574 0.833,-0.687 -0.071,0.19 -0.528,0.331 -0.551,0.54 -0.018,0.154 -1.246,1.471 -0.073,0.012 0.963,-1.199 0.302,-0.411 0.144,-0.115 -0.314,0.585 -0.665,1.158 -0.984,1.742 -0.193,0.353 -0.705,1.592 -0.102,0.133 0.673,-1.626 -0.052,0.209 -0.131,0.438 -0.428,1.223 -0.745,2.47 -1.033,3.732 -0.286,1.251 0.064,-1.996 0.116,0.229 0.033,1.426 -0.059,2.868 -0.066,4.295 -0.023,4.613 0.109,9.226 0.377,13.83 0.305,5.247 0.787,10.483 1.415,15.701 0.058,0.475 0.116,0.95 0.175,1.424 -0.008,-0.067 0.357,2.685 0.195,1.518 -0.151,-1.091 0.07,0.475 0.084,0.567 0.115,0.79 0.228,1.58 0.347,2.369 0.403,2.685 0.842,5.365 1.312,8.039 1.827,10.388 4.133,20.684 6.691,30.914 C 20.552,-0.25 17.653,5.766 12.301,6.984 7.121,8.164 1.357,5.429 0,0"
             style="fill:#ffde17;fill-opacity:1;fill-rule:nonzero;stroke:none"
             id="path36" />
        </g>
        <g
           id="g38"
           transform="translate(434.1691,487.9025)">
          <path
             d="m 0,0 c 9.252,6.505 18.635,12.991 29.091,17.433 l -2.389,-1.008 c 5.303,2.22 10.816,3.858 16.52,4.635 -0.886,-0.119 -1.772,-0.238 -2.658,-0.357 2.865,0.367 5.844,0.292 8.657,0.97 1.875,0.453 3.546,1.458 5.473,1.735 -0.886,-0.119 -1.772,-0.238 -2.658,-0.357 6.589,0.581 13.153,0.53 19.716,-0.35 -0.886,0.119 -1.772,0.238 -2.658,0.357 2.88,-0.403 5.74,-0.939 8.563,-1.64 2.912,-0.724 5.664,-1.769 8.461,-2.845 5.4,-2.078 10.783,-4.205 16.225,-6.177 11.396,-4.129 23.049,-7.36 35.186,-8.275 7.2,-0.543 14.425,0.054 21.505,1.444 2.354,0.463 4.799,2.585 5.976,4.596 1.254,2.143 1.786,5.302 1.008,7.705 -0.783,2.42 -2.282,4.755 -4.595,5.977 -2.48,1.31 -4.947,1.55 -7.706,1.008 -1.363,-0.268 -2.732,-0.498 -4.108,-0.689 0.886,0.119 1.772,0.238 2.658,0.357 -6.505,-0.859 -13.059,-0.751 -19.557,0.112 0.886,-0.119 1.772,-0.238 2.659,-0.357 -11.851,1.637 -23.186,5.625 -34.315,9.873 -5.669,2.164 -11.318,4.798 -17.195,6.331 -6.603,1.722 -13.497,2.684 -20.315,2.937 -3.281,0.122 -6.57,0.051 -9.841,-0.236 -2.189,-0.191 -4.42,-0.29 -6.503,-1.04 -1.41,-0.507 -2.734,-1.137 -4.233,-1.352 0.887,0.119 1.773,0.238 2.659,0.357 C 41.149,40.749 36.688,40.345 32.3,39.315 28.699,38.469 25.187,37.286 21.771,35.872 14.192,32.735 7.1,28.861 0.246,24.363 c -3.495,-2.294 -6.921,-4.69 -10.34,-7.094 -2.171,-1.526 -3.871,-3.342 -4.596,-5.976 -0.659,-2.394 -0.362,-5.581 1.008,-7.705 1.377,-2.136 3.427,-4.015 5.976,-4.596 C -5.208,-1.577 -2.179,-1.532 0,0"
             style="fill:#ffde17;fill-opacity:1;fill-rule:nonzero;stroke:none"
             id="path40" />
        </g>
        <g
           id="g42"
           transform="translate(43.013,193.3629)">
          <path
             d="m 0,0 c 3.17,2.781 6.362,5.537 9.598,8.24 1.504,1.256 3.017,2.502 4.541,3.734 0.82,0.664 1.643,1.324 2.469,1.98 0.354,0.281 0.709,0.561 1.065,0.841 0.276,0.217 1.916,1.495 0.472,0.379 6.538,5.054 13.323,9.809 20.385,14.103 3.589,2.182 7.252,4.243 10.993,6.153 1.739,0.888 3.495,1.744 5.267,2.564 0.956,0.443 1.926,0.855 2.884,1.294 1.048,0.479 -0.149,-0.058 -0.307,-0.123 0.697,0.288 1.396,0.572 2.098,0.849 7.722,3.052 15.738,5.383 23.923,6.795 0.594,0.102 1.188,0.194 1.782,0.292 0.14,0.023 1.626,0.252 0.457,0.079 -1.167,-0.173 0.315,0.04 0.458,0.057 0.597,0.068 1.193,0.138 1.791,0.2 2.087,0.214 4.181,0.366 6.278,0.448 4.182,0.165 8.378,0.061 12.544,-0.348 0.679,-0.066 2.681,-0.301 0.905,-0.065 1.039,-0.138 2.074,-0.312 3.106,-0.496 2.037,-0.363 4.06,-0.804 6.065,-1.318 3.886,-0.998 7.699,-2.265 11.443,-3.706 0.936,-0.36 1.867,-0.736 2.798,-1.113 1.789,-0.724 -0.983,0.446 0.785,-0.336 1.975,-0.873 3.943,-1.762 5.896,-2.684 3.658,-1.727 7.277,-3.535 10.897,-5.34 7.617,-3.799 15.265,-7.506 23.175,-10.666 16.832,-6.725 34.713,-8.354 52.703,-7.615 18.073,0.742 36.152,2.52 54.133,4.434 36.632,3.899 73.105,9.405 109.241,16.575 35.581,7.06 70.843,15.734 105.638,25.991 4.388,1.293 8.769,2.614 13.143,3.956 4.995,1.533 8.681,7.058 6.984,12.301 -1.629,5.034 -6.945,8.628 -12.301,6.985 -34.993,-10.738 -70.466,-19.895 -106.293,-27.4 -17.912,-3.752 -35.91,-7.096 -53.975,-10.026 -8.871,-1.439 -17.759,-2.779 -26.66,-4.018 -1.133,-0.158 -2.266,-0.313 -3.399,-0.469 -0.3,-0.041 -1.965,-0.266 -0.257,-0.036 -0.485,-0.066 -0.971,-0.13 -1.457,-0.194 -2.268,-0.301 -4.537,-0.595 -6.806,-0.883 -4.539,-0.575 -9.081,-1.125 -13.626,-1.648 -18.169,-2.093 -36.39,-3.798 -54.639,-5.025 -9.055,-0.609 -18.148,-1.021 -27.219,-0.501 -2.093,0.121 -4.184,0.289 -6.269,0.519 -0.64,0.07 -1.282,0.141 -1.92,0.228 0.198,-0.027 1.434,-0.239 0.265,-0.021 -1.267,0.237 -2.546,0.413 -3.812,0.658 -4.107,0.796 -8.145,1.893 -12.106,3.235 -1.765,0.598 -3.515,1.242 -5.251,1.922 -0.534,0.21 -1.066,0.427 -1.599,0.639 -0.136,0.054 -1.466,0.597 -0.398,0.157 1.068,-0.441 -0.259,0.111 -0.393,0.17 -0.659,0.287 -1.319,0.575 -1.975,0.868 -3.69,1.648 -7.327,3.41 -10.948,5.201 -7.243,3.583 -14.432,7.29 -21.866,10.469 -7.986,3.414 -16.1,6.446 -24.68,7.977 -8.708,1.553 -17.54,2.093 -26.358,1.343 C 53.502,64.528 22.676,45.115 -4.544,22.382 -7.781,19.679 -10.973,16.923 -14.142,14.142 -18.087,10.681 -17.945,3.491 -14.142,0 -9.936,-3.861 -4.208,-3.692 0,0"
             style="fill:#ffde17;fill-opacity:1;fill-rule:nonzero;stroke:none"
             id="path44" />
        </g>
        <g
           id="g46"
           transform="translate(599.1151,503.2706)">
          <path
             d="m 0,0 c 4.011,10.174 6.144,21.032 6.706,31.944 0.269,5.232 -4.792,10.233 -10,10 -5.649,-0.253 -9.712,-4.395 -10,-10 -0.135,-2.623 -0.377,-5.234 -0.725,-7.837 0.12,0.886 0.239,1.772 0.358,2.658 -1.02,-7.351 -2.903,-14.544 -5.625,-21.448 -0.892,-2.264 -0.169,-5.694 1.009,-7.706 1.213,-2.074 3.592,-4.052 5.976,-4.595 2.56,-0.583 5.433,-0.457 7.705,1.008 l 2.024,1.563 C -1.332,-3.165 -0.475,-1.694 0,0"
             style="fill:#ffde17;fill-opacity:1;fill-rule:nonzero;stroke:none"
             id="path48" />
        </g>
      </g>
    </g>
  </g>
</svg>
