<?xml version="1.0" encoding="UTF-8" standalone="no"?>
<!-- Created with Inkscape (http://www.inkscape.org/) -->

<svg
   version="1.1"
   id="svg2"
   width="1893.3333"
   height="1024"
   viewBox="0 0 1893.3333 1024"
   sodipodi:docname="PersonalLogo4.ai"
   xmlns:inkscape="http://www.inkscape.org/namespaces/inkscape"
   xmlns:sodipodi="http://sodipodi.sourceforge.net/DTD/sodipodi-0.dtd"
   xmlns="http://www.w3.org/2000/svg"
   xmlns:svg="http://www.w3.org/2000/svg">
  <defs
     id="defs6">
    <clipPath
       clipPathUnits="userSpaceOnUse"
       id="clipPath16">
      <path
         d="M 0,768 H 1420 V 0 H 0 Z"
         id="path14" />
    </clipPath>
  </defs>
  <sodipodi:namedview
     id="namedview4"
     pagecolor="#ffffff"
     bordercolor="#000000"
     borderopacity="0.25"
     inkscape:showpageshadow="2"
     inkscape:pageopacity="0.0"
     inkscape:pagecheckerboard="0"
     inkscape:deskcolor="#d1d1d1" />
  <g
     id="g8"
     inkscape:groupmode="layer"
     inkscape:label="PersonalLogo4"
     transform="matrix(1.3333333,0,0,-1.3333333,0,1024)">
    <g
       id="g10">
      <g
         id="g12"
         clip-path="url(#clipPath16)">
        <g
           id="g18"
           transform="translate(270,520.5)">
          <path
             d="M 0,0 C 1.93,0 1.934,3 0,3 -1.93,3 -1.934,0 0,0"
             style="fill:#fcee21;fill-opacity:1;fill-rule:nonzero;stroke:none"
             id="path20" />
        </g>
        <g
           id="g22"
           transform="translate(79.1422,537.7956)">
          <path
             d="m 0,0 c 30.139,17.013 61.698,31.276 92.827,46.339 30.656,14.834 61.13,30.506 88.847,50.429 16.355,11.757 31.837,24.732 45.556,39.505 -8.356,4.865 -16.713,9.729 -25.07,14.594 C 187.031,113.349 173.042,75.382 159.798,37.16 146.55,-1.078 134.036,-39.565 121.813,-78.141 109.634,-116.581 97.615,-155.077 85.764,-193.62 73.932,-232.1 62.486,-270.714 52.54,-309.73 c -9.877,-38.745 -18.273,-77.902 -24.024,-117.483 -0.847,-5.832 -1.635,-11.673 -2.396,-17.516 -0.458,-3.524 2.008,-8.221 4.394,-10.607 2.602,-2.602 6.87,-4.561 10.606,-4.393 3.88,0.173 7.903,1.448 10.607,4.393 2.88,3.137 3.849,6.423 4.393,10.607 0.145,1.112 0.4,2.265 0.446,3.385 -0.018,-0.447 -0.467,-3.395 -0.078,-0.604 0.079,0.564 0.156,1.127 0.235,1.691 0.34,2.441 0.691,4.881 1.052,7.32 0.748,5.062 1.54,10.118 2.372,15.168 1.602,9.72 3.355,19.416 5.24,29.086 3.807,19.533 8.156,38.957 12.903,58.282 9.557,38.911 20.728,77.404 32.399,115.727 11.679,38.348 23.673,76.605 35.719,114.84 12.103,38.414 24.442,76.758 37.455,114.876 13.069,38.281 26.819,76.336 41.68,113.96 1.831,4.637 3.681,9.266 5.545,13.89 2.359,5.849 -1.528,14.105 -6.893,16.939 -5.759,3.043 -13.531,2.658 -18.178,-2.345 -5.749,-6.19 -11.79,-12.099 -18.107,-17.708 -3.139,-2.786 -6.342,-5.501 -9.601,-8.146 -1.566,-1.271 -3.195,-2.474 -4.74,-3.77 -0.06,-0.051 2.503,1.915 1.193,0.921 -0.371,-0.282 -0.739,-0.567 -1.11,-0.849 -0.989,-0.752 -1.983,-1.498 -2.98,-2.238 -13.53,-10.043 -27.817,-19.03 -42.468,-27.338 C 98.414,81.465 67.178,67.342 36.365,52.46 18.969,44.058 1.686,35.403 -15.142,25.904 -21.979,22.044 -24.867,12.12 -20.523,5.381 -16.066,-1.531 -7.315,-4.129 0,0"
             style="fill:#fcee21;fill-opacity:1;fill-rule:nonzero;stroke:none"
             id="path24" />
        </g>
        <g
           id="g26"
           transform="translate(285.4948,609.7479)">
          <path
             d="M 0,0 C 0.761,0.612 1.522,1.222 2.288,1.826 2.544,2.027 2.8,2.228 3.056,2.429 4.321,3.415 4.081,3.231 2.334,1.876 3.231,3.22 5.71,4.424 7.022,5.383 c 3.149,2.304 6.35,4.539 9.596,6.703 6.494,4.329 13.175,8.377 20.015,12.135 6.556,3.601 13.259,6.936 20.085,9.995 0.89,0.4 1.783,0.794 2.677,1.184 0.299,0.129 0.597,0.258 0.896,0.388 1.491,0.638 1.194,0.515 -0.89,-0.367 0.354,0.741 3.65,1.502 4.517,1.847 3.928,1.566 7.891,3.043 11.886,4.429 14.442,5.012 29.296,8.839 44.365,11.411 1.602,0.273 3.208,0.533 4.815,0.778 0.964,0.147 1.93,0.282 2.895,0.426 3.461,0.513 -3.593,-0.434 -0.12,-0.017 3.876,0.465 7.751,0.9 11.641,1.225 7.786,0.652 15.602,0.964 23.416,0.928 7.866,-0.036 15.734,-0.436 23.554,-1.299 0.833,-0.092 1.664,-0.197 2.496,-0.291 3.547,-0.4 -3.531,0.55 -0.005,0.003 1.984,-0.308 3.967,-0.608 5.943,-0.962 3.939,-0.707 7.855,-1.549 11.732,-2.542 3.54,-0.907 7.047,-1.941 10.509,-3.111 1.884,-0.636 3.755,-1.314 5.608,-2.034 0.729,-0.283 2.188,-0.591 2.767,-1.111 -2.056,0.873 -2.337,0.986 -0.844,0.337 0.606,-0.268 1.209,-0.541 1.811,-0.819 6.736,-3.118 13.089,-6.866 19.111,-11.196 2.672,-1.921 -2.632,2.236 -0.142,0.088 0.694,-0.598 1.408,-1.172 2.096,-1.778 1.257,-1.107 2.474,-2.258 3.644,-3.456 1.169,-1.195 2.245,-2.459 3.347,-3.713 2.141,-2.44 -1.935,2.861 -0.132,0.166 0.671,-1.004 1.372,-1.982 2.005,-3.013 0.791,-1.289 1.52,-2.615 2.183,-3.974 0.13,-0.275 0.26,-0.549 0.39,-0.824 0.667,-1.495 0.554,-1.226 -0.339,0.808 0.253,-0.046 0.891,-2.529 0.98,-2.813 0.588,-1.877 1.058,-3.791 1.415,-5.725 0.121,-0.654 1.105,-3.104 0.175,-0.914 -0.176,1.347 -0.192,1.362 -0.047,0.045 0.059,-0.653 0.107,-1.306 0.143,-1.961 0.057,-1.004 0.049,-11.941 -0.441,-11.909 -0.143,0.009 0.544,3.36 0.117,0.986 -0.18,-1.001 -0.335,-2.005 -0.527,-3.004 -0.451,-2.351 -0.992,-4.684 -1.599,-7 -2.009,-7.662 -4.753,-15.112 -7.737,-22.442 -0.762,-1.871 -1.544,-3.733 -2.321,-5.597 -1.365,-3.273 1.34,3.13 -0.056,-0.13 -0.396,-0.926 -0.789,-1.854 -1.187,-2.779 -1.589,-3.704 -3.205,-7.395 -4.847,-11.076 -3.284,-7.36 -6.673,-14.674 -10.164,-21.938 -6.837,-14.227 -14.068,-28.263 -21.68,-42.09 -15.225,-27.655 -31.974,-54.47 -50.144,-80.284 -4.446,-6.316 -8.977,-12.573 -13.591,-18.767 -2.408,-3.232 -4.838,-6.446 -7.291,-9.644 -0.489,-0.638 -2.695,-3.387 -0.115,-0.156 -0.419,-0.524 -0.823,-1.062 -1.236,-1.591 -1.444,-1.855 -2.895,-3.705 -4.354,-5.548 -9.798,-12.375 -19.937,-24.479 -30.405,-36.292 -22.053,-24.886 -45.768,-48.194 -69.158,-71.806 -23.412,-23.633 -46.141,-47.796 -66.901,-73.816 -18.393,-23.053 -36.352,-47.024 -59.47,-65.645 -0.675,-0.544 -1.629,-1.087 -2.195,-1.739 0.519,0.402 1.038,0.804 1.557,1.206 -0.495,-0.377 -0.993,-0.751 -1.493,-1.122 -1.25,-0.93 -2.514,-1.841 -3.791,-2.733 -3.081,-2.151 -6.243,-4.176 -9.473,-6.094 -6.746,-4.007 -9.793,-13.681 -5.381,-20.523 4.377,-6.79 13.303,-9.669 20.522,-5.381 27.247,16.183 48.312,39.974 67.913,64.444 9.948,12.419 19.695,24.995 30.076,37.06 11.181,12.995 22.898,25.518 34.829,37.825 24.136,24.894 49.17,48.919 72.691,74.408 22.731,24.632 43.967,50.637 63.769,77.678 38.293,52.293 70.671,108.921 96.236,168.482 6.934,16.153 14.284,32.568 16.743,50.12 1.401,9.999 1.61,19.689 -0.632,29.624 C 287.355,28.5 282.723,36.86 276.787,44.36 266.855,56.912 252.45,65.875 237.894,72.133 220.875,79.45 203.275,83.419 184.87,85.31 152.598,88.625 119.18,85.038 87.89,76.753 56.714,68.498 26.571,54.99 -0.143,36.902 -7.396,31.991 -14.388,26.701 -21.213,21.213 c -2.805,-2.255 -4.394,-7.175 -4.394,-10.606 0,-3.679 1.635,-8.074 4.394,-10.607 2.858,-2.624 6.611,-4.572 10.606,-4.393 C -6.393,-4.205 -3.267,-2.627 0,0"
             style="fill:#fcee21;fill-opacity:1;fill-rule:nonzero;stroke:none"
             id="path28" />
        </g>
        <g
           id="g30"
           transform="translate(375.8833,280.8828)">
          <path
             d="m 0,0 c -10.071,-23.946 -14.801,-50.496 -13.78,-76.454 0.504,-12.808 2.214,-26.416 9.183,-37.502 6.522,-10.377 16.817,-17.915 28.744,-20.855 22.174,-5.465 45.648,2.252 64.085,14.613 20.286,13.602 36.809,31.544 52.203,50.314 18.727,22.834 36.019,46.839 51.561,71.953 3.365,5.437 2.437,13.787 -2.346,18.177 -4.651,4.27 -12.603,6.224 -18.177,2.345 -38.396,-26.716 -62.254,-73.376 -59.157,-120.422 0.435,-6.602 1.023,-13.501 3.441,-19.711 2.991,-7.679 7.897,-14.526 15.394,-18.387 13.208,-6.801 27.938,-3.537 40.673,2.607 4.762,2.297 9.076,5.274 13.317,8.409 5.838,4.315 11.55,8.818 17.054,13.554 9.299,8.003 18.026,16.655 26.308,25.702 17.588,19.213 33.383,40.105 48.539,61.264 14.96,20.885 29.075,42.37 42.493,64.276 26.895,43.912 50.973,89.484 73.698,135.672 11.324,23.015 22.315,46.191 33.164,69.432 5.484,11.748 10.932,23.512 16.369,35.282 5.825,12.611 12.379,25.197 16.545,38.478 2.162,6.891 3.418,14.156 3.625,21.376 0.17,5.957 -3.91,11.467 -9.221,13.708 -5.43,2.292 -12.179,1.243 -16.386,-3.101 C 402.382,314.645 372.785,273.429 348.131,229.723 322.347,184.014 301.805,135.419 284.626,85.881 266.825,34.547 252.65,-17.975 239.619,-70.697 c -3.52,-14.244 -6.605,-28.51 -8.344,-43.094 -0.802,-6.716 -1.297,-13.537 -1.069,-20.303 0.242,-7.194 1.474,-14.896 5.525,-21.018 5.214,-7.88 13.957,-13 23.548,-12.757 7.366,0.186 14.561,2.944 20.679,6.944 5.878,3.843 11.051,8.656 16.202,13.395 4.684,4.308 9.301,8.687 13.85,13.136 17.99,17.594 34.923,36.269 50.675,55.892 8.403,10.469 16.539,21.162 24.323,32.1 3.689,5.185 7.298,10.426 10.828,15.72 3.498,5.248 7.295,10.498 10.139,16.138 3.996,7.923 6.598,17.245 3.407,25.955 -2.1,5.731 -6.195,9.901 -12.471,10.744 -5.858,0.788 -11.923,-1.93 -14.946,-7.161 -14.957,-25.884 -26.39,-54.052 -33.478,-83.103 -1.635,-6.703 -3.151,-13.477 -4.143,-20.308 -1.268,-8.723 -1.979,-17.632 0.651,-26.222 2.711,-8.851 8.124,-15.828 15.692,-21.064 6.415,-4.439 14.337,-6.374 22.011,-6.938 16.671,-1.226 31.851,7.772 44.322,17.81 11.151,8.974 20.464,19.981 28.696,31.638 7.721,10.935 14.19,22.709 19.931,34.786 6.495,13.664 13.598,28.839 11.828,44.399 -1.11,9.754 -4.82,18.83 -11.914,25.804 -5.455,5.362 -12.222,8.926 -19.428,11.323 -12.346,4.107 -26.123,4.112 -38.962,3.088 -4.031,-0.322 -7.669,-1.456 -10.606,-4.394 -2.602,-2.601 -4.561,-6.87 -4.394,-10.606 0.34,-7.592 6.624,-15.668 15,-15 8.111,0.647 16.281,0.829 24.368,-0.2 -1.329,0.179 -2.658,0.357 -3.987,0.536 4.621,-0.63 9.16,-1.666 13.489,-3.426 -1.195,0.504 -2.389,1.008 -3.584,1.512 1.57,-0.666 3.102,-1.409 4.566,-2.285 0.678,-0.406 1.326,-0.849 1.98,-1.29 0.5,-0.336 1.801,-1.352 -0.344,0.289 -2.274,1.741 -0.599,0.432 -0.167,0.044 0.583,-0.524 1.143,-1.075 1.677,-1.649 0.268,-0.289 0.517,-0.595 0.785,-0.884 1.284,-1.387 -1.245,1.502 -1.239,1.63 -0.026,-0.509 1.213,-1.805 1.493,-2.289 0.506,-0.874 0.946,-1.775 1.363,-2.695 -0.504,1.194 -1.008,2.388 -1.512,3.583 0.951,-2.29 1.585,-4.628 1.952,-7.078 -0.179,1.329 -0.358,2.658 -0.536,3.987 0.364,-3.013 0.313,-5.992 -0.037,-9.005 0.178,1.33 0.357,2.659 0.535,3.988 -0.848,-6.246 -2.871,-12.2 -5.287,-17.999 0.504,1.194 1.008,2.389 1.512,3.583 -5.445,-12.836 -11.895,-25.383 -19.385,-37.147 -1.827,-2.87 -3.728,-5.694 -5.71,-8.459 -0.99,-1.382 -1.956,-3.039 -3.15,-4.255 -0.144,-0.147 2.112,2.684 1.099,1.429 -0.255,-0.316 -0.503,-0.638 -0.756,-0.956 -0.592,-0.741 -1.19,-1.476 -1.796,-2.206 -4.403,-5.311 -9.175,-10.323 -14.339,-14.901 -1.423,-1.262 -2.887,-2.472 -4.354,-3.682 -0.374,-0.309 -1.602,-1.251 0.208,0.139 1.913,1.468 0.268,0.209 -0.144,-0.097 -0.785,-0.584 -1.578,-1.157 -2.382,-1.714 -3.44,-2.382 -7.064,-4.458 -10.899,-6.134 l 3.583,1.512 c -3.591,-1.498 -7.269,-2.569 -11.128,-3.103 1.329,0.179 2.658,0.357 3.988,0.536 -2.826,-0.326 -5.626,-0.301 -8.447,0.063 1.33,-0.178 2.659,-0.357 3.988,-0.536 -2.573,0.391 -5.044,1.049 -7.459,2.021 l 3.584,-1.512 c -1.28,0.551 -2.525,1.162 -3.714,1.89 -0.59,0.363 -1.136,0.781 -1.718,1.154 3.622,-2.317 1.892,-1.5 0.917,-0.592 -0.505,0.471 -0.958,0.987 -1.442,1.477 -1.733,1.753 1.981,-3.122 0.643,-0.851 -0.796,1.35 -1.563,2.635 -2.187,4.083 0.504,-1.195 1.008,-2.389 1.512,-3.584 -0.865,2.202 -1.429,4.451 -1.774,6.789 0.178,-1.329 0.357,-2.658 0.536,-3.988 -0.529,4.292 -0.314,8.573 0.226,12.852 -0.179,-1.329 -0.358,-2.658 -0.536,-3.987 3.103,22.764 10.392,45.398 19.247,66.529 l -1.512,-3.583 c 4.948,11.711 10.611,23.098 16.973,34.106 -9.139,1.195 -18.278,2.389 -27.417,3.584 0.384,-1.049 0.642,-2.064 0.802,-3.169 -0.178,1.33 -0.357,2.659 -0.535,3.988 0.087,-1.091 0.073,-2.136 -0.03,-3.226 0.179,1.329 0.357,2.658 0.536,3.988 -0.288,-1.968 -0.837,-3.795 -1.574,-5.64 0.504,1.194 1.008,2.389 1.512,3.583 -2.514,-5.811 -6.316,-11.067 -9.793,-16.331 -3.507,-5.309 -7.095,-10.565 -10.763,-15.765 -3.667,-5.2 -7.414,-10.344 -11.238,-15.43 -1.043,-1.387 -2.091,-2.77 -3.146,-4.148 -0.351,-0.46 -0.704,-0.918 -1.056,-1.377 -1.938,-2.525 2.184,2.797 0.222,0.29 -1.962,-2.504 -3.927,-5.006 -5.919,-7.488 -15.932,-19.849 -33.074,-38.727 -51.295,-56.498 -5.176,-5.049 -10.441,-10.007 -15.79,-14.873 -1.283,-1.167 -2.566,-2.337 -3.865,-3.487 -0.567,-0.501 -1.135,-0.998 -1.716,-1.481 -0.954,-0.794 -3.067,-1.742 0.595,0.418 -2.957,-1.744 -5.524,-3.745 -8.73,-5.103 1.195,0.504 2.389,1.008 3.584,1.512 -1.819,-0.713 -3.647,-1.239 -5.584,-1.505 1.329,0.179 2.658,0.357 3.987,0.536 -1.151,-0.109 -2.263,-0.117 -3.413,-0.006 1.329,-0.179 2.658,-0.357 3.987,-0.536 -1.141,0.171 -2.197,0.451 -3.27,0.873 l 3.583,-1.512 c -0.569,0.263 -1.264,0.851 -1.864,1.002 2.039,-1.671 2.497,-2.017 1.372,-1.039 -0.25,0.231 -0.487,0.474 -0.711,0.731 -1.082,1.029 2.279,-3.438 0.751,-0.857 -0.408,0.69 -0.742,1.406 -1.059,2.141 0.504,-1.195 1.008,-2.389 1.512,-3.583 -0.77,1.995 -1.238,4.041 -1.539,6.155 0.178,-1.329 0.357,-2.658 0.536,-3.987 -1.096,9.02 -0.096,18.456 1.091,27.415 -0.178,-1.329 -0.357,-2.658 -0.535,-3.987 2.366,17.205 6.85,34.046 11.092,50.86 4.24,16.804 8.612,33.575 13.201,50.286 9.089,33.099 19.034,65.978 30.483,98.342 6.5,18.375 13.493,36.574 21.06,54.536 -0.504,-1.194 -1.008,-2.389 -1.512,-3.583 11.867,28.086 25.178,55.572 40.292,82.06 7.582,13.289 15.612,26.324 24.125,39.038 4.172,6.231 8.459,12.384 12.866,18.452 2.243,3.089 4.517,6.157 6.823,9.2 0.597,0.789 1.197,1.576 1.799,2.362 0.257,0.336 0.506,0.682 0.775,1.009 0.106,0.129 -2.048,-2.636 -1.049,-1.358 1.218,1.56 2.435,3.122 3.665,4.672 10.637,13.411 21.916,26.305 33.824,38.601 l -25.606,10.606 c -0.06,-2.075 -0.228,-4.125 -0.497,-6.183 0.179,1.33 0.357,2.659 0.536,3.988 -1.125,-7.674 -3.673,-14.972 -6.676,-22.095 l 1.512,3.583 C 421.025,303.533 413.433,287.955 406.156,272.291 398.932,256.74 391.66,241.211 384.281,225.732 369.533,194.789 354.361,164.041 338.317,133.747 322.248,103.405 305.301,73.516 287.061,44.423 277.991,29.956 268.6,15.689 258.848,1.672 c -4.922,-7.076 -9.937,-14.087 -15.048,-21.027 -2.559,-3.473 -5.141,-6.929 -7.748,-10.366 -1.209,-1.593 -2.399,-3.205 -3.646,-4.769 -0.097,-0.122 2.033,2.621 1.034,1.339 -0.352,-0.452 -0.702,-0.904 -1.053,-1.356 -0.704,-0.903 -1.41,-1.804 -2.118,-2.704 -10.174,-12.922 -20.851,-25.475 -32.428,-37.167 -5.816,-5.874 -11.857,-11.527 -18.158,-16.878 -1.52,-1.29 -3.055,-2.563 -4.605,-3.818 -0.665,-0.537 -1.332,-1.071 -2.002,-1.602 -0.443,-0.35 -0.886,-0.724 -1.345,-1.056 0.432,0.312 2.605,1.989 1.005,0.778 -3.1,-2.346 -6.211,-4.708 -9.493,-6.798 -2.931,-1.866 -6.001,-3.487 -9.194,-4.857 l 3.584,1.513 c -3.468,-1.434 -7.031,-2.527 -10.753,-3.045 1.329,0.179 2.658,0.357 3.987,0.536 -2.171,-0.254 -4.317,-0.298 -6.49,-0.045 1.329,-0.179 2.658,-0.357 3.988,-0.536 -1.664,0.245 -3.247,0.656 -4.808,1.283 l 3.583,-1.512 c -0.865,0.386 -1.658,0.862 -2.486,1.315 -0.505,0.277 -1.882,1.372 0.222,-0.235 2.213,-1.692 0.442,-0.277 0.037,0.127 -0.107,0.106 -0.916,1.082 -0.979,1.06 0.293,0.1 2.006,-3.097 0.988,-1.202 -0.605,1.127 -1.238,2.189 -1.748,3.367 l 1.512,-3.583 c -1.151,2.906 -1.804,5.917 -2.248,9.004 0.179,-1.329 0.357,-2.658 0.536,-3.988 -1.316,10.029 -1.147,20.216 0.197,30.231 -0.179,-1.33 -0.357,-2.659 -0.536,-3.988 1.507,10.729 4.405,21.186 8.576,31.184 -0.504,-1.195 -1.008,-2.389 -1.512,-3.583 2.209,5.209 4.735,10.275 7.608,15.151 1.372,2.329 2.821,4.614 4.342,6.849 0.83,1.218 1.681,2.422 2.553,3.61 0.364,0.495 0.736,0.984 1.102,1.476 0.942,1.269 -2.512,-3.188 -0.538,-0.708 3.441,4.32 7.174,8.406 11.178,12.212 1.957,1.86 3.979,3.652 6.062,5.37 0.569,0.468 1.145,0.927 1.719,1.389 2.23,1.795 -3.015,-2.231 -0.702,-0.544 1.193,0.87 2.38,1.745 3.592,2.588 -6.841,6.841 -13.682,13.682 -20.523,20.523 -6.141,-9.922 -12.54,-19.683 -19.211,-29.257 -3.335,-4.787 -6.737,-9.527 -10.202,-14.221 -1.642,-2.223 -3.298,-4.435 -4.969,-6.637 -0.928,-1.222 -1.851,-2.45 -2.797,-3.659 0.173,0.222 2.203,2.837 0.654,0.851 -0.567,-0.727 -1.132,-1.454 -1.701,-2.179 -13.502,-17.218 -27.649,-34.385 -44.399,-48.573 -1.072,-0.907 -2.155,-1.802 -3.25,-2.682 -0.547,-0.44 -1.1,-0.872 -1.649,-1.308 -0.898,-0.701 -0.441,-0.348 1.369,1.059 -0.447,-0.34 -0.895,-0.677 -1.346,-1.011 -2.253,-1.674 -4.555,-3.282 -6.906,-4.816 -4.548,-2.967 -9.252,-5.63 -14.248,-7.765 l 3.583,1.512 c -5.956,-2.484 -12.159,-4.261 -18.557,-5.141 l 3.988,0.536 c -4.63,-0.585 -9.277,-0.682 -13.912,-0.095 l 3.988,-0.536 c -3.369,0.476 -6.634,1.309 -9.785,2.6 1.194,-0.504 2.389,-1.008 3.583,-1.512 -1.63,0.703 -3.208,1.501 -4.711,2.448 -0.617,0.39 -3.075,2.211 -0.801,0.449 2.333,-1.808 -0.387,0.397 -0.908,0.892 -0.628,0.597 -1.232,1.221 -1.807,1.869 -0.222,0.249 -0.566,0.867 -0.858,1.007 0.335,-0.161 2.045,-2.867 0.928,-1.157 -1.289,1.973 -2.428,3.967 -3.387,6.121 0.504,-1.194 1.008,-2.388 1.512,-3.583 -1.957,4.637 -3.076,9.507 -3.763,14.48 0.179,-1.329 0.357,-2.658 0.536,-3.987 -1.675,13.071 -1.187,26.503 0.519,39.542 -0.178,-1.329 -0.357,-2.658 -0.536,-3.987 2.043,14.983 6.017,29.614 11.879,43.555 1.397,3.321 0.213,8.61 -1.512,11.558 -1.821,3.112 -5.388,6.079 -8.964,6.894 -3.84,0.874 -8.15,0.685 -11.559,-1.513 C 3.38,6.7 1.605,3.816 0,0"
             style="fill:#fcee21;fill-opacity:1;fill-rule:nonzero;stroke:none"
             id="path32" />
        </g>
        <g
           id="g34"
           transform="translate(821.2494,270.9666)">
          <path
             d="m 0,0 c -2.234,-24.001 -3.837,-48.198 1.047,-72.006 2.429,-11.841 6.761,-24.205 13.595,-34.248 4.623,-6.792 10.666,-12.7 18.858,-14.834 8.543,-2.226 16.944,-0.16 24.662,3.64 6.065,2.985 11.451,7.564 16.656,11.795 4.58,3.724 8.975,7.673 13.203,11.793 8.267,8.055 15.887,16.752 23.114,25.745 16.155,20.101 30.848,41.362 45.886,62.298 17.81,24.796 35.62,49.591 53.43,74.387 -8.635,5.047 -17.27,10.094 -25.905,15.141 -31.132,-48.003 -59.471,-97.737 -87.138,-147.796 -7.743,-14.01 -15.436,-28.046 -23.129,-42.083 -3.77,-6.88 -1.914,-16.668 5.382,-20.523 7.132,-3.768 16.363,-1.895 20.523,5.381 8.067,14.113 16.4,28.08 25.306,41.683 4.448,6.794 9.037,13.496 13.799,20.073 2.425,3.349 4.909,6.654 7.414,9.944 0.999,1.313 -0.924,-1.193 -0.888,-1.149 0.304,0.367 0.587,0.753 0.881,1.128 0.588,0.751 1.178,1.5 1.772,2.247 1.285,1.617 2.584,3.225 3.895,4.822 9.876,12.024 20.506,23.44 32.024,33.91 2.828,2.57 5.708,5.082 8.64,7.533 1.353,1.13 2.717,2.248 4.092,3.351 0.687,0.552 1.38,1.096 2.07,1.644 0.364,0.29 1.64,1.267 -0.128,-0.089 -2.061,-1.581 0.312,0.235 0.578,0.436 5.954,4.519 12.108,8.775 18.456,12.722 7.073,4.397 14.388,8.41 21.922,11.961 1.849,0.872 3.716,1.703 5.585,2.53 0.438,0.194 1.921,0.817 -0.181,-0.066 -2.219,-0.933 -0.24,-0.104 0.229,0.089 0.946,0.389 1.894,0.771 2.846,1.144 4.085,1.605 8.225,3.06 12.409,4.386 l -14.594,3.858 c -1.499,2.073 -1.848,2.466 -1.047,1.18 -0.903,2.368 -1.163,2.998 -0.777,1.89 0.219,-0.851 0.447,-1.662 0.581,-2.536 -0.178,1.329 -0.357,2.658 -0.536,3.988 0.158,-1.562 0.125,-3.079 -0.039,-4.64 0.179,1.329 0.358,2.659 0.536,3.988 -0.365,-2.651 -1.054,-5.21 -1.933,-7.734 -0.483,-1.387 -0.998,-2.763 -1.528,-4.132 -0.211,-0.547 -0.426,-1.093 -0.644,-1.637 -0.218,-0.544 -0.439,-1.087 -0.663,-1.628 0.277,0.654 0.555,1.309 0.832,1.963 -2.16,-5.413 -4.898,-10.658 -7.669,-15.779 -5.602,-10.352 -11.985,-20.256 -18.463,-30.075 -6.504,-9.859 -13.123,-19.649 -19.215,-29.772 -6.207,-10.313 -12.61,-21.317 -16.298,-32.826 -3.931,-12.263 -3.647,-26.416 4.967,-36.605 5.126,-6.062 13.616,-9.237 21.443,-8.823 8.068,0.426 15.454,3.604 22.639,7.061 20.965,10.089 38.103,27.082 52.65,44.914 16.826,20.626 32.121,42.555 47.903,63.979 16.708,22.682 33.417,45.364 50.125,68.046 32.75,44.459 65.709,88.773 98.22,133.408 29.796,40.907 58.129,83.252 75.776,131.006 2.152,5.823 4.112,11.713 5.892,17.66 1.918,6.411 -1.291,13.561 -6.893,16.94 -20.081,12.109 -42.795,0.532 -58.661,-12.958 C 478.822,335.238 465.84,320.848 453.49,306.089 429.201,277.064 406.027,246.986 384.023,216.197 362.745,186.424 342.719,155.731 324.63,123.911 306.166,91.43 289.851,57.761 276.129,23.003 269.468,6.13 263.491,-11.014 258.3,-28.397 c -5.662,-18.963 -11.34,-38.524 -13.282,-58.274 -0.496,-5.043 -0.52,-10.095 0.066,-15.13 0.4,-3.434 1.042,-6.269 3.221,-9.089 1.91,-2.472 4.655,-4.672 7.792,-5.376 8.797,-1.973 16.903,-0.641 25.042,2.952 6.167,2.722 11.546,6.946 16.679,11.257 8.686,7.294 16.964,15.129 24.972,23.158 17.079,17.126 32.668,35.689 46.886,55.25 7.682,10.568 14.88,21.48 21.601,32.684 -8.634,5.047 -17.269,10.095 -25.904,15.142 -8.545,-14.477 -16.811,-29.219 -22.188,-45.22 -5.347,-15.915 -6.92,-32.984 -3.663,-49.497 3.088,-15.665 12.478,-33.338 27.682,-40.123 9.218,-4.113 19.422,-4.691 28.953,-1.079 9.032,3.423 16.716,8.885 23.846,15.35 11.305,10.251 21.651,21.957 30.125,34.653 8.106,12.147 14.543,26.213 16.698,40.735 2.134,14.385 1.5,29.356 -3.951,43 -5.502,13.773 -14.669,26.609 -28.077,33.669 -13.358,7.035 -29.374,8.712 -43.921,4.602 -7.605,-2.149 -14.315,-5.847 -20.396,-10.825 -6.298,-5.157 -10.32,-11.938 -13.337,-19.369 -1.365,-3.362 -0.235,-8.572 1.512,-11.558 1.821,-3.111 5.389,-6.079 8.964,-6.893 3.84,-0.875 8.151,-0.686 11.559,1.512 3.493,2.252 5.34,5.14 6.893,8.964 -2.123,-5.228 -0.065,-0.37 0.714,0.923 0.427,0.707 0.898,1.378 1.362,2.06 1.412,2.079 -2.422,-2.857 -0.833,-1.105 0.962,1.06 1.917,2.105 2.982,3.063 1.003,0.902 3.526,2.391 -0.67,-0.405 0.596,0.397 1.162,0.84 1.761,1.234 1.206,0.793 2.459,1.512 3.748,2.16 0.65,0.327 1.322,0.606 1.974,0.926 -4.529,-2.218 -2.176,-0.911 -0.96,-0.478 2.896,1.031 5.885,1.719 8.927,2.147 -1.329,-0.179 -2.658,-0.357 -3.987,-0.536 4.051,0.513 8.109,0.517 12.161,0.006 -1.329,0.178 -2.659,0.357 -3.988,0.536 2.332,-0.328 4.636,-0.803 6.891,-1.486 1.023,-0.31 2.016,-0.686 3.022,-1.043 2.457,-0.873 -3.556,1.694 -1.234,0.51 0.473,-0.241 0.958,-0.459 1.431,-0.702 1.039,-0.537 2.054,-1.119 3.039,-1.75 0.448,-0.287 0.882,-0.596 1.324,-0.891 2.071,-1.382 -1.012,0.497 -1.067,0.866 0.087,-0.59 2.599,-2.231 3.092,-2.701 0.983,-0.937 1.925,-1.918 2.824,-2.936 0.408,-0.462 0.792,-0.943 1.194,-1.409 1.166,-1.355 -2.185,2.986 -0.764,0.993 0.786,-1.104 1.553,-2.216 2.266,-3.37 1.375,-2.228 2.401,-4.583 3.6,-6.898 -2.341,4.518 -0.22,0.404 0.24,-0.944 0.446,-1.303 0.847,-2.622 1.205,-3.952 0.723,-2.682 1.251,-5.407 1.645,-8.156 -0.179,1.329 -0.357,2.658 -0.536,3.987 0.835,-6.323 0.834,-12.683 0.031,-19.009 l 0.536,3.988 c -0.575,-4.166 -1.489,-8.254 -2.744,-12.267 -0.692,-2.213 -1.506,-4.374 -2.336,-6.537 -1.007,-2.623 1.441,3.132 0.16,0.394 -0.49,-1.046 -0.96,-2.1 -1.468,-3.138 -2.037,-4.161 -4.365,-8.177 -6.909,-12.048 -1.119,-1.703 -2.281,-3.379 -3.48,-5.027 -0.683,-0.939 -1.456,-1.84 -2.095,-2.808 2.536,3.84 0.304,0.424 -0.373,-0.409 -5.723,-7.046 -12.026,-13.648 -18.65,-19.849 -1.544,-1.446 -3.126,-2.851 -4.76,-4.194 -0.473,-0.388 -0.95,-0.771 -1.432,-1.149 1.828,1.403 2.106,1.633 0.834,0.69 -1.012,-0.681 -1.995,-1.397 -3.027,-2.048 -1.018,-0.64 -2.056,-1.249 -3.118,-1.812 -0.524,-0.278 -1.054,-0.545 -1.589,-0.8 -1.452,-0.662 -1.063,-0.507 1.167,0.462 -0.999,-0.059 -2.282,-0.817 -3.273,-1.081 -1.095,-0.292 -2.199,-0.499 -3.319,-0.666 l 3.988,0.535 c -1.983,-0.226 -3.896,-0.235 -5.878,-0.002 l 3.987,-0.536 c -0.999,0.16 -1.98,0.352 -2.952,0.636 -3.427,0.999 2.57,-1.485 0.118,-0.154 -0.724,0.393 -1.437,0.772 -2.132,1.217 -0.461,0.297 -0.911,0.608 -1.351,0.934 l 1.743,-1.323 c -1.514,0.646 -2.992,2.919 -4.075,4.143 -1.99,2.249 1.926,-2.916 0.332,-0.377 -0.524,0.836 -1.095,1.641 -1.606,2.487 -0.972,1.608 -1.786,3.273 -2.631,4.947 -1.406,2.783 1.215,-3.355 0.167,-0.42 -0.337,0.944 -0.698,1.877 -1.01,2.831 -1.21,3.696 -2.012,7.495 -2.53,11.347 0.178,-1.329 0.357,-2.658 0.536,-3.987 -0.811,6.674 -0.68,13.367 0.206,20.026 -0.178,-1.329 -0.357,-2.659 -0.536,-3.988 0.706,4.916 1.807,9.748 3.268,14.495 0.797,2.59 1.69,5.15 2.663,7.679 0.458,1.19 0.98,2.358 1.426,3.552 -0.255,-0.683 -1.209,-2.759 -0.379,-0.944 0.332,0.727 0.65,1.459 0.983,2.185 4.48,9.768 9.893,19.068 15.35,28.313 3.992,6.763 1.76,16.75 -5.381,20.523 -7.258,3.835 -16.209,1.809 -20.523,-5.381 -5.456,-9.095 -11.222,-17.999 -17.314,-26.682 -3.089,-4.403 -6.259,-8.75 -9.507,-13.038 -0.743,-0.98 -1.496,-1.951 -2.24,-2.93 2.642,3.478 0.178,0.245 -0.489,-0.601 -1.712,-2.173 -3.443,-4.331 -5.196,-6.472 -13.435,-16.411 -28.049,-31.856 -43.702,-46.169 -2.155,-1.97 -4.331,-3.918 -6.525,-5.845 -1.144,-1.005 -2.29,-2.009 -3.453,-2.993 -0.46,-0.39 -0.922,-0.776 -1.389,-1.158 -1.761,-1.441 -0.568,-0.339 0.524,0.36 -2.576,-1.65 -4.927,-3.522 -7.667,-4.93 -0.444,-0.228 -1.152,-0.695 -1.607,-0.776 0.652,0.277 1.304,0.553 1.956,0.83 -0.542,-0.21 -1.091,-0.403 -1.645,-0.579 -1.372,-0.432 -2.76,-0.722 -4.183,-0.926 1.33,0.179 2.659,0.358 3.988,0.536 -1.727,-0.175 -3.394,-0.164 -5.118,0.052 1.329,-0.179 2.659,-0.358 3.988,-0.536 -0.58,0.086 -1.154,0.201 -1.722,0.343 l 11.012,-14.464 c -0.705,6.062 -0.478,12.107 0.281,18.153 -0.178,-1.33 -0.357,-2.659 -0.536,-3.988 2.308,17.035 7.255,33.942 12.141,50.394 4.776,16.087 10.228,31.971 16.273,47.624 1.525,3.948 3.087,7.88 4.685,11.798 0.742,1.819 1.492,3.636 2.25,5.449 0.175,0.418 0.352,0.836 0.526,1.254 0.639,1.53 -0.678,-1.603 -0.63,-1.494 0.487,1.107 0.948,2.226 1.426,3.337 3.287,7.643 6.712,15.228 10.26,22.754 7.178,15.223 14.866,30.204 22.986,44.946 16.248,29.499 34.208,58.037 53.328,85.754 9.542,13.831 19.374,27.46 29.441,40.914 2.561,3.422 5.137,6.833 7.727,10.234 1.202,1.578 2.408,3.154 3.616,4.727 0.65,0.847 1.303,1.692 1.954,2.539 1,1.301 -1.007,-1.302 -0.947,-1.225 0.375,0.481 0.747,0.965 1.121,1.447 5.227,6.742 10.508,13.443 15.836,20.106 10.91,13.643 21.901,27.261 33.751,40.106 5.985,6.487 12.198,12.768 18.731,18.705 1.545,1.404 3.106,2.789 4.687,4.151 0.764,0.659 1.533,1.311 2.315,1.948 0.323,0.263 0.662,0.512 0.977,0.784 -3.158,-2.721 -1.5,-1.157 -0.679,-0.557 3.102,2.265 6.377,4.316 9.839,5.988 0.446,0.215 1.033,0.562 1.528,0.707 0.198,0.057 -3.208,-1.231 -1.658,-0.716 0.91,0.302 1.796,0.666 2.715,0.946 1.783,0.545 3.597,0.932 5.444,1.185 -1.329,-0.178 -2.658,-0.357 -3.988,-0.535 2.058,0.223 4.075,0.238 6.131,-0.006 -1.329,0.179 -2.658,0.358 -3.987,0.536 1.275,-0.197 2.477,-0.508 3.713,-0.865 2.158,-0.623 -1.491,0.55 -1.419,0.639 0.075,0.091 2.01,-1.101 2.106,-1.159 -2.298,5.646 -4.596,11.293 -6.893,16.939 -2.579,-8.617 -5.55,-17.109 -8.896,-25.458 -0.345,-0.861 -0.694,-1.721 -1.047,-2.579 -0.216,-0.526 -0.555,-1.154 -0.71,-1.715 -0.025,-0.089 1.268,2.968 0.61,1.446 -0.921,-2.129 -1.84,-4.259 -2.793,-6.374 -1.843,-4.091 -3.767,-8.145 -5.76,-12.165 -7.942,-16.012 -17,-31.45 -26.667,-46.477 -20.06,-31.184 -42.58,-60.738 -64.558,-90.574 C 396.295,135.217 372.277,102.611 348.258,70.006 324.24,37.4 300.222,4.794 276.203,-27.811 c -2.373,-3.221 -4.749,-6.442 -7.152,-9.642 -1.186,-1.581 -2.379,-3.157 -3.58,-4.727 -0.344,-0.448 -0.682,-0.903 -1.034,-1.345 -0.103,-0.13 2.05,2.634 1.047,1.358 -0.7,-0.89 -1.394,-1.785 -2.096,-2.673 -4.987,-6.306 -10.166,-12.468 -15.695,-18.308 -2.783,-2.939 -5.655,-5.795 -8.632,-8.538 -1.428,-1.315 -2.879,-2.604 -4.357,-3.863 -0.737,-0.627 -1.479,-1.248 -2.229,-1.859 -0.321,-0.262 -0.643,-0.522 -0.966,-0.781 -1.869,-1.497 0.007,-0.149 0.757,0.56 -2.808,-2.653 -6.568,-4.768 -9.85,-6.781 -3.29,-2.018 -6.689,-3.858 -10.187,-5.488 -0.88,-0.411 -1.778,-0.783 -2.659,-1.192 4.209,1.952 1.025,0.446 -0.032,0.057 -2.202,-0.811 -4.431,-1.421 -6.756,-1.749 l 3.988,0.536 c -1.221,-0.114 -2.398,-0.137 -3.621,-0.047 1.329,-0.179 2.658,-0.357 3.987,-0.536 -0.474,0.066 -2.202,0.73 -2.638,0.56 2.228,-1.02 2.855,-1.285 1.881,-0.795 -0.273,0.134 -0.538,0.281 -0.796,0.442 -0.863,0.579 -0.677,0.414 0.558,-0.496 1.186,-0.961 1.396,-1.106 0.629,-0.436 -1.221,1.398 -0.514,1.356 0.868,-1.322 -0.255,0.494 -0.596,0.978 -0.88,1.457 -1.165,1.966 1.232,-3.807 0.625,-1.443 -0.305,1.188 -0.601,2.327 -0.767,3.55 0.179,-1.33 0.358,-2.659 0.536,-3.988 -0.256,2.393 -0.18,4.762 0.11,7.149 -0.179,-1.329 -0.357,-2.659 -0.536,-3.988 0.283,2.019 0.694,4.011 1.258,5.971 0.277,0.966 0.589,1.922 0.931,2.867 0.057,0.157 0.545,1.542 0.586,1.532 -0.054,0.014 -1.937,-4.419 -0.292,-0.79 2.184,4.819 4.588,9.535 7.142,14.167 5.27,9.557 11.175,18.744 17.177,27.853 11.949,18.135 24.456,36.128 33.122,56.14 2.7,6.236 5.846,12.813 7.066,19.561 0.914,5.052 1.086,9.167 0.281,14.194 -0.788,4.915 -3.386,8.918 -6.473,12.704 -3.192,3.915 -9.938,5.333 -14.594,3.857 C 221.662,56.006 193.558,38.849 168.789,17.527 143.512,-4.232 122.41,-30.54 103.817,-58.116 93.302,-73.711 83.612,-89.843 74.279,-106.168 c 8.635,-5.047 17.27,-10.095 25.905,-15.142 27.491,50.164 54.997,100.352 84.744,149.227 8.319,13.669 16.816,27.228 25.523,40.653 4.278,6.596 1.553,16.859 -5.382,20.523 -7.753,4.096 -15.621,1.443 -20.523,-5.382 -19.652,-27.36 -39.304,-54.721 -58.957,-82.082 -8.897,-12.387 -17.698,-24.851 -26.821,-37.073 -1.097,-1.468 -2.198,-2.932 -3.307,-4.391 -0.555,-0.729 -1.113,-1.456 -1.669,-2.183 -2.004,-2.624 2.145,2.733 0.104,0.139 -2.262,-2.876 -4.532,-5.744 -6.858,-8.569 -4.634,-5.628 -9.438,-11.119 -14.478,-16.389 -5.649,-5.906 -11.596,-11.535 -17.9,-16.739 -0.702,-0.579 -1.407,-1.153 -2.117,-1.721 -0.474,-0.379 -0.949,-0.756 -1.427,-1.13 1.719,1.32 2.13,1.638 1.234,0.954 -1.547,-1.159 -3.084,-2.326 -4.699,-3.388 -0.747,-0.491 -1.504,-0.965 -2.276,-1.414 -0.825,-0.479 -2.535,-0.967 -3.153,-1.651 0.656,0.274 1.312,0.548 1.968,0.822 -0.538,-0.211 -1.083,-0.404 -1.634,-0.578 -1.084,-0.339 -2.178,-0.575 -3.299,-0.758 1.33,0.179 2.659,0.358 3.988,0.536 -1.394,-0.16 -2.73,-0.18 -4.125,-0.038 1.329,-0.179 2.659,-0.357 3.988,-0.536 -0.551,0.072 -1.095,0.179 -1.633,0.318 -1.51,0.482 -1.099,0.263 1.233,-0.656 -0.48,0.229 -0.946,0.485 -1.397,0.768 -1.274,0.868 -0.902,0.559 1.118,-0.926 -0.433,0.764 -1.639,1.63 -2.26,2.292 -1.958,2.082 1.772,-2.714 0.377,-0.43 -1.187,1.945 -2.386,3.857 -3.447,5.879 -0.547,1.043 -1.072,2.098 -1.575,3.164 -0.21,0.445 -1.746,3.965 -0.674,1.422 1.072,-2.542 -0.375,1.004 -0.548,1.465 -0.412,1.092 -0.801,2.193 -1.171,3.3 -0.693,2.077 -1.312,4.177 -1.864,6.295 -1.149,4.404 -1.989,8.876 -2.625,13.381 l 0.536,-3.987 C 26.494,-40.204 28.14,-19.985 30,0 30.337,3.616 28.084,8.129 25.607,10.607 23.005,13.208 18.737,15.167 15,15 6.25,14.608 0.781,8.394 0,0"
             style="fill:#fcee21;fill-opacity:1;fill-rule:nonzero;stroke:none"
             id="path36" />
        </g>
        <g
           id="g38"
           transform="translate(1239.6681,298.6752)">
          <path
             d="m 0,0 c 8.453,-8.638 19.34,-14.648 30.89,-18.03 5.844,-1.711 11.93,-2.601 17.979,-3.186 4.79,-0.464 9.618,-0.521 14.421,-0.231 24.997,1.513 49.309,9.545 70.918,22.085 11.896,6.904 23.052,15.355 32.961,24.891 2.739,2.635 4.394,6.836 4.394,10.606 0,3.679 -1.634,8.074 -4.394,10.607 -2.858,2.624 -6.611,4.572 -10.606,4.393 -4.023,-0.18 -7.662,-1.56 -10.607,-4.393 -4.083,-3.929 -8.375,-7.629 -12.858,-11.094 1.012,0.782 2.024,1.563 3.036,2.345 -10.777,-8.281 -22.598,-15.153 -35.104,-20.471 1.195,0.504 2.389,1.009 3.583,1.513 C 93.006,14.138 80.833,10.624 68.343,8.91 69.672,9.088 71.001,9.267 72.33,9.446 63.522,8.268 54.624,7.971 45.798,9.139 47.127,8.96 48.456,8.781 49.786,8.603 43.687,9.439 37.701,10.952 32.017,13.33 c 1.194,-0.504 2.389,-1.008 3.583,-1.512 -4.35,1.852 -8.455,4.195 -12.205,7.078 1.011,-0.782 2.023,-1.564 3.035,-2.345 -1.842,1.438 -3.582,2.991 -5.217,4.662 -2.672,2.731 -6.803,4.394 -10.606,4.394 C 6.928,25.607 2.533,23.973 0,21.213 -2.624,18.355 -4.572,14.602 -4.393,10.607 -4.214,6.603 -2.85,2.912 0,0"
             style="fill:#fcee21;fill-opacity:1;fill-rule:nonzero;stroke:none"
             id="path40" />
        </g>
        <g
           id="g42"
           transform="translate(1012.1975,404.9652)">
          <path
             d="M 0,0 C 0.511,0.398 1.023,0.796 1.536,1.192 0.524,0.41 -0.488,-0.372 -1.5,-1.153 c 17.973,13.841 37.307,25.888 57.67,35.89 5.816,2.857 11.716,5.542 17.684,8.067 -1.195,-0.504 -2.389,-1.008 -3.583,-1.512 17.983,7.568 36.822,14.353 56.224,17.04 -1.329,-0.179 -2.659,-0.357 -3.988,-0.536 8.545,1.134 17.197,1.391 25.757,0.263 -1.329,0.178 -2.658,0.357 -3.987,0.536 6.253,-0.872 12.357,-2.5 18.195,-4.909 -1.195,0.504 -2.389,1.008 -3.583,1.512 5.092,-2.15 9.896,-4.87 14.287,-8.234 -1.012,0.782 -2.024,1.564 -3.035,2.346 3.59,-2.806 6.823,-5.996 9.613,-9.602 -0.782,1.012 -1.564,2.024 -2.346,3.036 7.607,-10.066 9.939,-22.896 17.1,-33.192 5.286,-7.6 11.986,-13.515 20.991,-16.263 9.886,-3.017 20.645,-0.806 30.517,1.115 29.729,5.786 58.557,18.735 82.726,36.972 14.182,10.701 27.108,22.707 38.097,36.706 2.561,3.264 4.393,6.276 4.393,10.607 0,3.679 -1.634,8.074 -4.393,10.607 -2.859,2.624 -6.612,4.572 -10.607,4.393 -3.695,-0.165 -8.212,-1.342 -10.607,-4.393 -9.667,-12.315 -20.853,-23.36 -33.219,-32.955 1.011,0.782 2.023,1.564 3.035,2.345 -13.318,-10.269 -27.908,-18.8 -43.391,-25.368 1.195,0.504 2.389,1.008 3.583,1.512 -15.014,-6.318 -30.84,-10.845 -46.989,-13.069 1.33,0.178 2.659,0.357 3.988,0.535 -3.309,-0.429 -6.605,-0.654 -9.928,-0.244 1.329,-0.178 2.658,-0.357 3.988,-0.535 -1.708,0.26 -3.351,0.685 -4.957,1.321 1.194,-0.505 2.389,-1.009 3.583,-1.513 -1.643,0.694 -3.162,1.569 -4.591,2.634 1.012,-0.782 2.023,-1.564 3.035,-2.346 -1.747,1.358 -3.261,2.928 -4.629,4.664 0.782,-1.012 1.563,-2.024 2.345,-3.036 -4.174,5.454 -6.717,11.931 -9.375,18.204 -1.361,3.212 -2.742,6.423 -4.375,9.508 -2.306,4.358 -5.275,8.346 -8.475,12.085 -5.743,6.712 -13.291,12.301 -21.189,16.223 -8.066,4.006 -16.613,6.949 -25.538,8.224 -5.846,0.835 -11.65,1.41 -17.56,1.298 C 128.984,88.67 123.054,87.935 117.14,87.065 107.21,85.605 97.487,82.966 87.961,79.842 69.249,73.705 50.967,65.95 33.514,56.834 14.136,46.713 -3.983,34.642 -21.213,21.213 c -2.814,-2.192 -4.394,-7.231 -4.394,-10.606 0,-3.679 1.635,-8.074 4.394,-10.607 2.858,-2.624 6.611,-4.572 10.606,-4.393 1.33,0.178 2.659,0.357 3.988,0.535 C -4.078,-3.145 -1.872,-1.859 0,0"
             style="fill:#fcee21;fill-opacity:1;fill-rule:nonzero;stroke:none"
             id="path44" />
        </g>
        <g
           id="g46"
           transform="translate(31,522)">
          <path
             d="M 0,0 C 3.846,0 7.886,1.673 10.607,4.393 13.208,6.995 15.167,11.263 15,15 14.826,18.879 13.552,22.903 10.607,25.607 7.672,28.301 4.064,30 0,30 -3.846,30 -7.886,28.327 -10.607,25.607 -13.208,23.005 -15.167,18.737 -15,15 -14.826,11.121 -13.552,7.097 -10.607,4.393 -7.672,1.699 -4.064,0 0,0"
             style="fill:#fcee21;fill-opacity:1;fill-rule:nonzero;stroke:none"
             id="path48" />
        </g>
        <g
           id="g50"
           transform="translate(282.1054,73.5673)">
          <path
             d="m 0,0 c -2.38,1.419 -0.603,0.226 -0.098,-0.192 -0.635,0.525 -1.172,1.132 -1.767,1.698 1.864,-1.775 0,0.135 -0.723,1.442 -0.817,1.474 0.255,-0.592 0.311,-0.779 -0.231,0.763 -0.428,1.623 -0.702,2.379 -0.866,2.398 -0.206,0.575 -0.111,-0.244 -0.124,1.074 -0.167,2.157 -0.178,3.238 -0.011,0.991 0.291,4.935 -0.105,1.971 0.209,1.562 0.572,3.112 0.985,4.631 0.238,0.876 0.517,1.736 0.795,2.6 0.126,0.392 1.204,3.007 0.478,1.364 -0.666,-1.507 0.288,0.515 0.373,0.657 0.572,0.953 1.055,1.951 1.645,2.895 0.338,0.54 2.783,3.824 1.389,2.114 1.217,1.494 2.51,2.929 3.865,4.299 1.176,1.19 2.404,2.327 3.673,3.418 0.263,0.227 2.572,2.074 1.263,1.071 -1.187,-0.91 2.039,1.391 1.957,1.336 2.782,1.861 5.705,3.514 8.721,4.966 0.863,0.416 1.741,0.831 2.626,1.203 -0.634,-0.266 -2.312,-0.83 0.453,0.117 1.845,0.632 3.673,1.296 5.545,1.85 3.544,1.049 7.152,1.876 10.794,2.502 0.734,0.126 1.469,0.247 2.206,0.356 -2.481,-0.367 0.03,-0.008 0.461,0.029 2.247,0.191 4.483,0.397 6.737,0.493 3.511,0.149 7.026,0.132 10.536,-0.042 2.002,-0.099 4.001,-0.25 5.996,-0.452 0.747,-0.075 1.492,-0.156 2.237,-0.245 -2.578,0.308 0.712,-0.126 1.19,-0.205 17.776,-2.94 34.553,-9.639 50.563,-17.034 18.078,-8.35 35.799,-17.414 54.326,-24.766 18.17,-7.211 36.985,-12.706 56.056,-16.957 39.065,-8.707 79.092,-12.448 118.932,-15.518 83.19,-6.41 166.553,-11.641 250.006,-12.564 84.111,-0.931 168.247,2.836 251.635,14.213 70.493,9.619 159.122,22.606 194.939,93.607 3.891,7.713 7.022,15.856 9.06,24.253 1.908,7.867 -2.498,16.259 -10.477,18.452 -7.646,2.1 -16.534,-2.572 -18.452,-10.477 -0.932,-3.842 -2.052,-7.621 -3.445,-11.323 -0.815,-2.166 -2.409,-5.587 -4.429,-9.235 -1.908,-3.445 -4.013,-6.779 -6.291,-9.991 -1.442,-2.034 -1.432,-2.034 -2.454,-3.253 -1.361,-1.623 -2.725,-3.241 -4.153,-4.807 -2.687,-2.947 -5.515,-5.764 -8.463,-8.45 -3.137,-2.859 -5.909,-5.163 -8.106,-6.781 C 982.915,38.767 975.583,34.337 967.947,30.496 933.406,13.122 892.455,7.7 854.254,2.196 770.978,-9.803 686.549,-13.245 602.491,-12.391 517.71,-11.53 433.01,-6.217 348.501,0.344 309.053,3.407 270.459,7.095 231.98,16.379 213.447,20.851 194.476,26.692 177.327,34.109 159.413,41.856 142.161,51.042 124.209,58.707 91.468,72.686 55.352,81.665 20.322,70.309 4.119,65.056 -10.52,55.878 -21.002,42.329 -31.098,29.279 -36.541,11.003 -31.394,-5.218 c 2.778,-8.757 8.344,-15.97 16.252,-20.686 C 1.48,-35.816 16.585,-9.89 0,0"
             style="fill:#fcee21;fill-opacity:1;fill-rule:nonzero;stroke:none"
             id="path52" />
        </g>
      </g>
    </g>
  </g>
</svg>
